NotoSerifTamilSlanted-CondensedItalic.ufo
<glyph name="quotedbl" format="2">
  <advance width="338"/>
  <unicode hex="0022"/>
  <outline>
    <contour>
      <point x="121" y="483" type="line"/>
      <point x="162" y="483" type="line"/>
      <point x="243" y="714" type="line"/>
      <point x="147" y="714" type="line"/>
    </contour>
    <contour>
      <point x="277" y="483" type="line"/>
      <point x="318" y="483" type="line"/>
      <point x="399" y="714" type="line"/>
      <point x="304" y="714" type="line"/>
    </contour>
  </outline>
</glyph>
<glyph name="percent" format="2">
  <advance width="727"/>
  <unicode hex="0025"/>
  <outline>
    <contour>
      <point x="140" y="0" type="line"/>
      <point x="201" y="0" type="line"/>
      <point x="629" y="714" type="line"/>
      <point x="572" y="714" type="line"/>
    </contour>
    <contour>
      <point x="171" y="281" type="curve" smooth="yes"/>
      <point x="298" y="281"/>
      <point x="360" y="471"/>
      <point x="360" y="577" type="curve" smooth="yes"/>
      <point x="360" y="665"/>
      <point x="329" y="723"/>
      <point x="257" y="723" type="curve" smooth="yes"/>
      <point x="132" y="723"/>
      <point x="72" y="540"/>
      <point x="72" y="427" type="curve" smooth="yes"/>
      <point x="72" y="328"/>
      <point x="110" y="281"/>
    </contour>
    <contour>
      <point x="178" y="321" type="curve" smooth="yes"/>
      <point x="151" y="321"/>
      <point x="141" y="353"/>
      <point x="141" y="407" type="curve" smooth="yes"/>
      <point x="141" y="501"/>
      <point x="183" y="684"/>
      <point x="252" y="684" type="curve" smooth="yes"/>
      <point x="279" y="684"/>
      <point x="289" y="653"/>
      <point x="289" y="598" type="curve" smooth="yes"/>
      <point x="289" y="504"/>
      <point x="247" y="321"/>
    </contour>
    <contour>
      <point x="517" y="-8" type="curve" smooth="yes"/>
      <point x="644" y="-8"/>
      <point x="705" y="183"/>
      <point x="705" y="288" type="curve" smooth="yes"/>
      <point x="705" y="376"/>
      <point x="674" y="434"/>
      <point x="602" y="434" type="curve" smooth="yes"/>
      <point x="477" y="434"/>
      <point x="418" y="251"/>
      <point x="418" y="138" type="curve" smooth="yes"/>
      <point x="418" y="39"/>
      <point x="456" y="-8"/>
    </contour>
    <contour>
      <point x="524" y="32" type="curve" smooth="yes"/>
      <point x="496" y="32"/>
      <point x="486" y="64"/>
      <point x="486" y="120" type="curve" smooth="yes"/>
      <point x="486" y="212"/>
      <point x="529" y="395"/>
      <point x="597" y="395" type="curve" smooth="yes"/>
      <point x="625" y="395"/>
      <point x="635" y="363"/>
      <point x="635" y="309" type="curve" smooth="yes"/>
      <point x="635" y="215"/>
      <point x="593" y="32"/>
    </contour>
  </outline>
</glyph>
<glyph name="parenleft" format="2">
  <advance width="288"/>
  <unicode hex="0028"/>
  <outline>
    <contour>
      <point x="180" y="-127" type="curve"/>
      <point x="191" y="-83" type="line"/>
      <point x="143" y="-39"/>
      <point x="127" y="59"/>
      <point x="127" y="139" type="curve" smooth="yes"/>
      <point x="127" y="269"/>
      <point x="177" y="595"/>
      <point x="360" y="716" type="curve"/>
      <point x="369" y="758" type="line"/>
      <point x="151" y="682"/>
      <point x="40" y="399"/>
      <point x="40" y="163" type="curve" smooth="yes"/>
      <point x="40" y="35"/>
      <point x="82" y="-77"/>
    </contour>
  </outline>
</glyph>
<glyph name="parenright" format="2">
  <advance width="288"/>
  <unicode hex="0029"/>
  <outline>
    <contour>
      <point x="-44" y="-136" type="line"/>
      <point x="175" y="-59"/>
      <point x="284" y="224"/>
      <point x="284" y="460" type="curve" smooth="yes"/>
      <point x="284" y="588"/>
      <point x="244" y="699"/>
      <point x="145" y="749" type="curve"/>
      <point x="135" y="706" type="line"/>
      <point x="182" y="662"/>
      <point x="198" y="564"/>
      <point x="198" y="484" type="curve" smooth="yes"/>
      <point x="198" y="355"/>
      <point x="149" y="29"/>
      <point x="-34" y="-93" type="curve"/>
    </contour>
  </outline>
</glyph>
<glyph name="asterisk" format="2">
  <advance width="412"/>
  <unicode hex="002A"/>
  <outline>
    <contour>
      <point x="283" y="375" type="line"/>
      <point x="292" y="534" type="line"/>
      <point x="392" y="413" type="line"/>
      <point x="437" y="478" type="line"/>
      <point x="320" y="562" type="line"/>
      <point x="458" y="576" type="line"/>
      <point x="446" y="658" type="line"/>
      <point x="307" y="599" type="line"/>
      <point x="363" y="747" type="line"/>
      <point x="291" y="765" type="line"/>
      <point x="279" y="604" type="line"/>
      <point x="181" y="731" type="line"/>
      <point x="135" y="663" type="line"/>
      <point x="253" y="577" type="line"/>
      <point x="115" y="562" type="line"/>
      <point x="127" y="481" type="line"/>
      <point x="265" y="541" type="line"/>
      <point x="210" y="392" type="line"/>
    </contour>
  </outline>
</glyph>
<glyph name="comma" format="2">
  <advance width="211"/>
  <unicode hex="002C"/>
  <outline>
    <contour>
      <point x="-26" y="-146" type="line"/>
      <point x="83" y="-121"/>
      <point x="135" y="-46"/>
      <point x="135" y="42" type="curve" smooth="yes"/>
      <point x="135" y="95"/>
      <point x="107" y="125"/>
      <point x="74" y="125" type="curve" smooth="yes"/>
      <point x="44" y="125"/>
      <point x="20" y="104"/>
      <point x="20" y="65" type="curve" smooth="yes"/>
      <point x="20" y="16"/>
      <point x="65" y="14"/>
      <point x="65" y="-19" type="curve" smooth="yes"/>
      <point x="65" y="-60"/>
      <point x="37" y="-89"/>
      <point x="-20" y="-105" type="curve"/>
    </contour>
  </outline>
</glyph>
<glyph name="zero" format="2">
  <advance width="461"/>
  <unicode hex="0030"/>
  <outline>
    <contour>
      <point x="193" y="-11" type="curve" smooth="yes"/>
      <point x="379" y="-11"/>
      <point x="459" y="324"/>
      <point x="459" y="515" type="curve" smooth="yes"/>
      <point x="459" y="660"/>
      <point x="395" y="724"/>
      <point x="312" y="724" type="curve" smooth="yes"/>
      <point x="128" y="724"/>
      <point x="46" y="410"/>
      <point x="46" y="210" type="curve" smooth="yes"/>
      <point x="46" y="67"/>
      <point x="104" y="-11"/>
    </contour>
    <contour>
      <point x="201" y="43" type="curve" smooth="yes"/>
      <point x="157" y="43"/>
      <point x="132" y="91"/>
      <point x="132" y="189" type="curve" smooth="yes"/>
      <point x="132" y="352"/>
      <point x="191" y="671"/>
      <point x="304" y="671" type="curve" smooth="yes"/>
      <point x="350" y="671"/>
      <point x="374" y="623"/>
      <point x="374" y="528" type="curve" smooth="yes"/>
      <point x="374" y="366"/>
      <point x="317" y="43"/>
    </contour>
  </outline>
</glyph>
<glyph name="one" format="2">
  <advance width="461"/>
  <unicode hex="0031"/>
  <outline>
    <contour>
      <point x="36" y="0" type="line"/>
      <point x="340" y="0" type="line"/>
      <point x="349" y="41" type="line"/>
      <point x="307" y="41" type="line" smooth="yes"/>
      <point x="275" y="41"/>
      <point x="251" y="47"/>
      <point x="251" y="79" type="curve" smooth="yes"/>
      <point x="251" y="86"/>
      <point x="253" y="99"/>
      <point x="258" y="122" type="curve" smooth="yes"/>
      <point x="384" y="718" type="line"/>
      <point x="324" y="718" type="line"/>
      <point x="258" y="666" type="line" smooth="yes"/>
      <point x="195" y="617"/>
      <point x="159" y="601"/>
      <point x="122" y="589" type="curve"/>
      <point x="121" y="560"/>
      <point x="132" y="538"/>
      <point x="154" y="538" type="curve" smooth="yes"/>
      <point x="188" y="538"/>
      <point x="223" y="576"/>
      <point x="280" y="642" type="curve"/>
      <point x="282" y="642" type="line"/>
      <point x="272" y="611"/>
      <point x="261" y="560"/>
      <point x="246" y="487" type="curve" smooth="yes"/>
      <point x="167" y="113" type="line" smooth="yes"/>
      <point x="153" y="49"/>
      <point x="124" y="41"/>
      <point x="88" y="41" type="curve" smooth="yes"/>
      <point x="44" y="41" type="line"/>
    </contour>
  </outline>
</glyph>
<glyph name="two" format="2">
  <advance width="461"/>
  <unicode hex="0032"/>
  <outline>
    <contour>
      <point x="-6" y="0" type="line"/>
      <point x="348" y="0" type="line"/>
      <point x="390" y="166" type="line"/>
      <point x="352" y="166" type="line"/>
      <point x="346" y="151" type="line" smooth="yes"/>
      <point x="330" y="113"/>
      <point x="312" y="76"/>
      <point x="263" y="76" type="curve" smooth="yes"/>
      <point x="78" y="76" type="line"/>
      <point x="251" y="263" type="line"/>
      <point x="395" y="402"/>
      <point x="450" y="481"/>
      <point x="450" y="585" type="curve" smooth="yes"/>
      <point x="450" y="670"/>
      <point x="399" y="724"/>
      <point x="300" y="724" type="curve" smooth="yes"/>
      <point x="183" y="724"/>
      <point x="116" y="653"/>
      <point x="116" y="585" type="curve" smooth="yes"/>
      <point x="116" y="544"/>
      <point x="144" y="527"/>
      <point x="183" y="527" type="curve"/>
      <point x="194" y="605"/>
      <point x="230" y="676"/>
      <point x="293" y="676" type="curve" smooth="yes"/>
      <point x="334" y="676"/>
      <point x="357" y="638"/>
      <point x="357" y="582" type="curve" smooth="yes"/>
      <point x="357" y="497"/>
      <point x="334" y="428"/>
      <point x="212" y="295" type="curve" smooth="yes"/>
      <point x="12" y="78" type="line"/>
    </contour>
  </outline>
</glyph>
<glyph name="three" format="2">
  <advance width="461"/>
  <unicode hex="0033"/>
  <outline>
    <contour>
      <point x="159" y="-10" type="curve" smooth="yes"/>
      <point x="264" y="-10"/>
      <point x="395" y="51"/>
      <point x="395" y="233" type="curve" smooth="yes"/>
      <point x="395" y="313"/>
      <point x="351" y="365"/>
      <point x="281" y="374" type="curve"/>
      <point x="393" y="399"/>
      <point x="451" y="492"/>
      <point x="451" y="587" type="curve" smooth="yes"/>
      <point x="451" y="674"/>
      <point x="390" y="724"/>
      <point x="302" y="724" type="curve" smooth="yes"/>
      <point x="199" y="724"/>
      <point x="118" y="661"/>
      <point x="118" y="579" type="curve" smooth="yes"/>
      <point x="118" y="539"/>
      <point x="146" y="526"/>
      <point x="183" y="526" type="curve"/>
      <point x="200" y="606"/>
      <point x="224" y="676"/>
      <point x="294" y="676" type="curve" smooth="yes"/>
      <point x="337" y="676"/>
      <point x="359" y="639"/>
      <point x="359" y="586" type="curve" smooth="yes"/>
      <point x="359" y="471"/>
      <point x="287" y="395"/>
      <point x="193" y="395" type="curve" smooth="yes"/>
      <point x="167" y="395" type="line"/>
      <point x="158" y="345" type="line"/>
      <point x="192" y="345" type="line" smooth="yes"/>
      <point x="262" y="345"/>
      <point x="301" y="298"/>
      <point x="301" y="227" type="curve" smooth="yes"/>
      <point x="301" y="103"/>
      <point x="237" y="43"/>
      <point x="168" y="43" type="curve" smooth="yes"/>
      <point x="98" y="43"/>
      <point x="73" y="107"/>
      <point x="76" y="166" type="curve"/>
      <point x="35" y="166"/>
      <point x="5" y="142"/>
      <point x="5" y="95" type="curve" smooth="yes"/>
      <point x="5" y="42"/>
      <point x="45" y="-10"/>
    </contour>
  </outline>
</glyph>
<glyph name="four" format="2">
  <advance width="461"/>
  <unicode hex="0034"/>
  <outline>
    <contour>
      <point x="108" y="0" type="line"/>
      <point x="374" y="0" type="line"/>
      <point x="384" y="41" type="line"/>
      <point x="366" y="41" type="line" smooth="yes"/>
      <point x="335" y="41"/>
      <point x="312" y="47"/>
      <point x="312" y="78" type="curve" smooth="yes"/>
      <point x="312" y="85"/>
      <point x="314" y="100"/>
      <point x="316" y="108" type="curve" smooth="yes"/>
      <point x="444" y="714" type="line"/>
      <point x="355" y="714" type="line"/>
      <point x="18" y="236" type="line"/>
      <point x="9" y="200" type="line"/>
      <point x="428" y="200" type="line"/>
      <point x="440" y="250" type="line"/>
      <point x="54" y="250" type="line"/>
      <point x="64" y="230" type="line"/>
      <point x="272" y="517" type="line" smooth="yes"/>
      <point x="291" y="543"/>
      <point x="326" y="598"/>
      <point x="344" y="635" type="curve"/>
      <point x="326" y="573"/>
      <point x="309" y="500"/>
      <point x="297" y="441" type="curve" smooth="yes"/>
      <point x="229" y="113" type="line" smooth="yes"/>
      <point x="216" y="50"/>
      <point x="183" y="41"/>
      <point x="148" y="41" type="curve" smooth="yes"/>
      <point x="116" y="41" type="line"/>
    </contour>
  </outline>
</glyph>
<glyph name="six" format="2">
  <advance width="461"/>
  <unicode hex="0036"/>
  <outline>
    <contour>
      <point x="207" y="-10" type="curve" smooth="yes"/>
      <point x="349" y="-10"/>
      <point x="419" y="130"/>
      <point x="419" y="270" type="curve" smooth="yes"/>
      <point x="419" y="359"/>
      <point x="379" y="433"/>
      <point x="294" y="433" type="curve" smooth="yes"/>
      <point x="238" y="433"/>
      <point x="196" y="402"/>
      <point x="171" y="381" type="curve"/>
      <point x="216" y="575"/>
      <point x="279" y="677"/>
      <point x="356" y="677" type="curve" smooth="yes"/>
      <point x="403" y="677"/>
      <point x="407" y="621"/>
      <point x="404" y="562" type="curve"/>
      <point x="454" y="562"/>
      <point x="485" y="591"/>
      <point x="485" y="635" type="curve" smooth="yes"/>
      <point x="485" y="685"/>
      <point x="445" y="724"/>
      <point x="367" y="724" type="curve" smooth="yes"/>
      <point x="182" y="724"/>
      <point x="60" y="458"/>
      <point x="60" y="208" type="curve" smooth="yes"/>
      <point x="60" y="51"/>
      <point x="125" y="-10"/>
    </contour>
    <contour>
      <point x="215" y="41" type="curve" smooth="yes"/>
      <point x="171" y="41"/>
      <point x="145" y="92"/>
      <point x="145" y="188" type="curve" smooth="yes"/>
      <point x="145" y="233"/>
      <point x="149" y="270"/>
      <point x="160" y="325" type="curve"/>
      <point x="185" y="353"/>
      <point x="227" y="384"/>
      <point x="267" y="384" type="curve" smooth="yes"/>
      <point x="308" y="384"/>
      <point x="331" y="343"/>
      <point x="331" y="269" type="curve" smooth="yes"/>
      <point x="331" y="142"/>
      <point x="282" y="41"/>
    </contour>
  </outline>
</glyph>
<glyph name="seven" format="2">
  <advance width="461"/>
  <unicode hex="0037"/>
  <outline>
    <contour>
      <point x="92" y="0" type="line"/>
      <point x="156" y="0" type="line"/>
      <point x="500" y="689" type="line"/>
      <point x="505" y="714" type="line"/>
      <point x="145" y="714" type="line"/>
      <point x="102" y="536" type="line"/>
      <point x="140" y="536" type="line"/>
      <point x="153" y="586" type="line" smooth="yes"/>
      <point x="162" y="619"/>
      <point x="180" y="638"/>
      <point x="209" y="638" type="curve" smooth="yes"/>
      <point x="420" y="638" type="line"/>
    </contour>
  </outline>
</glyph>
<glyph name="nine" format="2">
  <advance width="461"/>
  <unicode hex="0039"/>
  <outline>
    <contour>
      <point x="147" y="-10" type="curve" smooth="yes"/>
      <point x="365" y="-10"/>
      <point x="452" y="377"/>
      <point x="452" y="548" type="curve" smooth="yes"/>
      <point x="452" y="661"/>
      <point x="396" y="724"/>
      <point x="308" y="724" type="curve" smooth="yes"/>
      <point x="188" y="724"/>
      <point x="83" y="602"/>
      <point x="83" y="430" type="curve" smooth="yes"/>
      <point x="83" y="339"/>
      <point x="129" y="275"/>
      <point x="211" y="275" type="curve" smooth="yes"/>
      <point x="267" y="275"/>
      <point x="308" y="308"/>
      <point x="336" y="343" type="curve"/>
      <point x="290" y="163"/>
      <point x="238" y="38"/>
      <point x="158" y="38" type="curve" smooth="yes"/>
      <point x="110" y="38"/>
      <point x="94" y="94"/>
      <point x="96" y="143" type="curve"/>
      <point x="58" y="143"/>
      <point x="35" y="112"/>
      <point x="35" y="75" type="curve" smooth="yes"/>
      <point x="35" y="33"/>
      <point x="64" y="-10"/>
    </contour>
    <contour>
      <point x="238" y="327" type="curve" smooth="yes"/>
      <point x="198" y="327"/>
      <point x="172" y="362"/>
      <point x="172" y="427" type="curve" smooth="yes"/>
      <point x="172" y="540"/>
      <point x="224" y="673"/>
      <point x="302" y="673" type="curve" smooth="yes"/>
      <point x="341" y="673"/>
      <point x="369" y="637"/>
      <point x="369" y="550" type="curve" smooth="yes"/>
      <point x="369" y="512"/>
      <point x="361" y="452"/>
      <point x="351" y="414" type="curve"/>
      <point x="327" y="372"/>
      <point x="288" y="327"/>
    </contour>
  </outline>
</glyph>
<glyph name="semicolon" format="2">
  <advance width="244"/>
  <unicode hex="003B"/>
  <outline>
    <contour>
      <point x="-13" y="-146" type="line"/>
      <point x="95" y="-121"/>
      <point x="148" y="-46"/>
      <point x="148" y="42" type="curve" smooth="yes"/>
      <point x="148" y="95"/>
      <point x="120" y="125"/>
      <point x="87" y="125" type="curve" smooth="yes"/>
      <point x="58" y="125"/>
      <point x="32" y="105"/>
      <point x="32" y="65" type="curve" smooth="yes"/>
      <point x="32" y="16"/>
      <point x="78" y="14"/>
      <point x="78" y="-19" type="curve" smooth="yes"/>
      <point x="78" y="-60"/>
      <point x="50" y="-89"/>
      <point x="-7" y="-105" type="curve"/>
    </contour>
    <contour>
      <point x="171" y="406" type="curve" smooth="yes"/>
      <point x="199" y="406"/>
      <point x="231" y="427"/>
      <point x="231" y="485" type="curve" smooth="yes"/>
      <point x="231" y="522"/>
      <point x="209" y="541"/>
      <point x="180" y="541" type="curve" smooth="yes"/>
      <point x="144" y="541"/>
      <point x="120" y="508"/>
      <point x="120" y="461" type="curve" smooth="yes"/>
      <point x="120" y="425"/>
      <point x="140" y="406"/>
    </contour>
  </outline>
</glyph>
<glyph name="less" format="2">
  <advance width="425"/>
  <unicode hex="003C"/>
  <outline>
    <contour>
      <point x="397" y="111" type="line"/>
      <point x="397" y="177" type="line"/>
      <point x="134" y="357" type="line"/>
      <point x="397" y="540" type="line"/>
      <point x="397" y="605" type="line"/>
      <point x="58" y="375" type="line"/>
      <point x="58" y="340" type="line"/>
    </contour>
  </outline>
</glyph>
<glyph name="equal" format="2">
  <advance width="425"/>
  <unicode hex="003D"/>
  <outline>
    <contour>
      <point x="58" y="423" type="line"/>
      <point x="398" y="423" type="line"/>
      <point x="398" y="481" type="line"/>
      <point x="58" y="481" type="line"/>
    </contour>
    <contour>
      <point x="58" y="233" type="line"/>
      <point x="398" y="233" type="line"/>
      <point x="398" y="291" type="line"/>
      <point x="58" y="291" type="line"/>
    </contour>
  </outline>
</glyph>
<glyph name="greater" format="2">
  <advance width="425"/>
  <unicode hex="003E"/>
  <outline>
    <contour>
      <point x="58" y="111" type="line"/>
      <point x="397" y="340" type="line"/>
      <point x="397" y="375" type="line"/>
      <point x="58" y="605" type="line"/>
      <point x="58" y="540" type="line"/>
      <point x="321" y="357" type="line"/>
      <point x="58" y="177" type="line"/>
    </contour>
  </outline>
</glyph>
<glyph name="question" format="2">
  <advance width="405"/>
  <unicode hex="003F"/>
  <outline>
    <contour>
      <point x="162" y="206" type="line"/>
      <point x="208" y="206" type="line"/>
      <point x="237" y="317" type="line"/>
      <point x="354" y="373"/>
      <point x="445" y="449"/>
      <point x="445" y="579" type="curve" smooth="yes"/>
      <point x="445" y="674"/>
      <point x="387" y="724"/>
      <point x="294" y="724" type="curve" smooth="yes"/>
      <point x="186" y="724"/>
      <point x="119" y="659"/>
      <point x="119" y="590" type="curve" smooth="yes"/>
      <point x="119" y="555"/>
      <point x="142" y="534"/>
      <point x="186" y="534" type="curve"/>
      <point x="199" y="610"/>
      <point x="223" y="675"/>
      <point x="286" y="675" type="curve" smooth="yes"/>
      <point x="325" y="675"/>
      <point x="353" y="639"/>
      <point x="353" y="576" type="curve" smooth="yes"/>
      <point x="353" y="465"/>
      <point x="284" y="396"/>
      <point x="179" y="349" type="curve"/>
    </contour>
    <contour>
      <point x="156" y="-8" type="curve" smooth="yes"/>
      <point x="186" y="-8"/>
      <point x="217" y="13"/>
      <point x="217" y="71" type="curve" smooth="yes"/>
      <point x="217" y="108"/>
      <point x="196" y="127"/>
      <point x="166" y="127" type="curve" smooth="yes"/>
      <point x="130" y="127"/>
      <point x="106" y="95"/>
      <point x="106" y="48" type="curve" smooth="yes"/>
      <point x="106" y="11"/>
      <point x="126" y="-8"/>
    </contour>
  </outline>
</glyph>
<glyph name="bracketleft" format="2">
  <advance width="299"/>
  <unicode hex="005B"/>
  <outline>
    <contour>
      <point x="2" y="-128" type="line"/>
      <point x="192" y="-128" type="line"/>
      <point x="201" y="-87" type="line"/>
      <point x="166" y="-87" type="line" smooth="yes"/>
      <point x="134" y="-87"/>
      <point x="112" y="-81"/>
      <point x="112" y="-50" type="curve" smooth="yes"/>
      <point x="112" y="-44"/>
      <point x="113" y="-28"/>
      <point x="115" y="-20" type="curve" smooth="yes"/>
      <point x="256" y="647" type="line" smooth="yes"/>
      <point x="269" y="710"/>
      <point x="301" y="719"/>
      <point x="337" y="719" type="curve" smooth="yes"/>
      <point x="371" y="719" type="line"/>
      <point x="381" y="760" type="line"/>
      <point x="191" y="760" type="line"/>
    </contour>
  </outline>
</glyph>
<glyph name="bracketright" format="2">
  <advance width="299"/>
  <unicode hex="005D"/>
  <outline>
    <contour>
      <point x="-45" y="-128" type="line"/>
      <point x="145" y="-128" type="line"/>
      <point x="333" y="760" type="line"/>
      <point x="144" y="760" type="line"/>
      <point x="134" y="719" type="line"/>
      <point x="169" y="719" type="line" smooth="yes"/>
      <point x="200" y="719"/>
      <point x="224" y="713"/>
      <point x="224" y="682" type="curve" smooth="yes"/>
      <point x="224" y="675"/>
      <point x="222" y="661"/>
      <point x="220" y="652" type="curve" smooth="yes"/>
      <point x="79" y="-15" type="line" smooth="yes"/>
      <point x="66" y="-78"/>
      <point x="34" y="-87"/>
      <point x="-1" y="-87" type="curve" smooth="yes"/>
      <point x="-35" y="-87" type="line"/>
    </contour>
  </outline>
</glyph>
<glyph name="asciicircum" format="2">
  <advance width="425"/>
  <unicode hex="005E"/>
  <outline>
    <contour>
      <point x="46" y="267" type="line"/>
      <point x="101" y="267" type="line"/>
      <point x="227" y="624" type="line"/>
      <point x="354" y="267" type="line"/>
      <point x="409" y="267" type="line"/>
      <point x="242" y="714" type="line"/>
      <point x="212" y="714" type="line"/>
    </contour>
  </outline>
</glyph>
<glyph name="braceleft" format="2">
  <advance width="346"/>
  <unicode hex="007B"/>
  <outline>
    <contour>
      <point x="188" y="-128" type="curve" smooth="yes"/>
      <point x="241" y="-128" type="line"/>
      <point x="250" y="-86" type="line"/>
      <point x="224" y="-86" type="line" smooth="yes"/>
      <point x="191" y="-86"/>
      <point x="176" y="-66"/>
      <point x="176" y="-28" type="curve" smooth="yes"/>
      <point x="176" y="-15"/>
      <point x="178" y="1"/>
      <point x="182" y="19" type="curve" smooth="yes"/>
      <point x="218" y="182" type="line" smooth="yes"/>
      <point x="221" y="196"/>
      <point x="224" y="212"/>
      <point x="224" y="229" type="curve" smooth="yes"/>
      <point x="224" y="274"/>
      <point x="201" y="305"/>
      <point x="156" y="314" type="curve"/>
      <point x="156" y="317" type="line"/>
      <point x="221" y="329"/>
      <point x="257" y="373"/>
      <point x="271" y="440" type="curve" smooth="yes"/>
      <point x="306" y="605" type="line" smooth="yes"/>
      <point x="323" y="687"/>
      <point x="349" y="718"/>
      <point x="394" y="718" type="curve" smooth="yes"/>
      <point x="420" y="718" type="line"/>
      <point x="430" y="760" type="line"/>
      <point x="378" y="760" type="line" smooth="yes"/>
      <point x="286" y="760"/>
      <point x="242" y="712"/>
      <point x="220" y="616" type="curve" smooth="yes"/>
      <point x="181" y="443" type="line" smooth="yes"/>
      <point x="162" y="360"/>
      <point x="119" y="340"/>
      <point x="66" y="337" type="curve"/>
      <point x="57" y="297" type="line"/>
      <point x="100" y="295"/>
      <point x="132" y="278"/>
      <point x="132" y="227" type="curve" smooth="yes"/>
      <point x="132" y="215"/>
      <point x="131" y="202"/>
      <point x="128" y="189" type="curve"/>
      <point x="96" y="35" type="line" smooth="yes"/>
      <point x="91" y="12"/>
      <point x="87" y="-7"/>
      <point x="87" y="-30" type="curve" smooth="yes"/>
      <point x="87" y="-95"/>
      <point x="125" y="-128"/>
    </contour>
  </outline>
</glyph>
<glyph name="bar" format="2">
  <advance width="442"/>
  <unicode hex="007C"/>
  <outline>
    <contour>
      <point x="203" y="-240" type="line"/>
      <point x="254" y="-240" type="line"/>
      <point x="254" y="760" type="line"/>
      <point x="203" y="760" type="line"/>
    </contour>
  </outline>
</glyph>
<glyph name="twosuperior" format="2">
  <advance width="320"/>
  <unicode hex="00B2"/>
  <outline>
    <contour>
      <point x="60" y="386" type="line"/>
      <point x="306" y="386" type="line"/>
      <point x="333" y="502" type="line"/>
      <point x="305" y="502" type="line"/>
      <point x="298" y="481" type="line" smooth="yes"/>
      <point x="291" y="459"/>
      <point x="279" y="440"/>
      <point x="254" y="440" type="curve" smooth="yes"/>
      <point x="139" y="440" type="line"/>
      <point x="236" y="533" type="line"/>
      <point x="333" y="626"/>
      <point x="363" y="673"/>
      <point x="363" y="733" type="curve" smooth="yes"/>
      <point x="363" y="788"/>
      <point x="324" y="824"/>
      <point x="261" y="824" type="curve" smooth="yes"/>
      <point x="185" y="824"/>
      <point x="138" y="773"/>
      <point x="138" y="728" type="curve" smooth="yes"/>
      <point x="138" y="701"/>
      <point x="156" y="683"/>
      <point x="186" y="683" type="curve"/>
      <point x="193" y="736"/>
      <point x="216" y="784"/>
      <point x="253" y="784" type="curve" smooth="yes"/>
      <point x="282" y="784"/>
      <point x="294" y="759"/>
      <point x="294" y="726" type="curve" smooth="yes"/>
      <point x="294" y="670"/>
      <point x="265" y="621"/>
      <point x="189" y="543" type="curve" smooth="yes"/>
      <point x="69" y="421" type="line"/>
    </contour>
  </outline>
</glyph>
<glyph name="threesuperior" format="2">
  <advance width="320"/>
  <unicode hex="00B3"/>
  <outline>
    <contour>
      <point x="183" y="380" type="curve" smooth="yes"/>
      <point x="273" y="380"/>
      <point x="341" y="430"/>
      <point x="341" y="518" type="curve" smooth="yes"/>
      <point x="341" y="568"/>
      <point x="312" y="604"/>
      <point x="265" y="611" type="curve"/>
      <point x="265" y="614" type="line"/>
      <point x="327" y="631"/>
      <point x="373" y="665"/>
      <point x="373" y="737" type="curve" smooth="yes"/>
      <point x="373" y="785"/>
      <point x="340" y="824"/>
      <point x="267" y="824" type="curve" smooth="yes"/>
      <point x="188" y="824"/>
      <point x="140" y="784"/>
      <point x="140" y="737" type="curve" smooth="yes"/>
      <point x="140" y="706"/>
      <point x="160" y="697"/>
      <point x="191" y="697" type="curve"/>
      <point x="201" y="743"/>
      <point x="217" y="783"/>
      <point x="260" y="783" type="curve" smooth="yes"/>
      <point x="285" y="783"/>
      <point x="301" y="765"/>
      <point x="301" y="732" type="curve" smooth="yes"/>
      <point x="301" y="670"/>
      <point x="253" y="630"/>
      <point x="204" y="630" type="curve" smooth="yes"/>
      <point x="177" y="630" type="line"/>
      <point x="169" y="590" type="line"/>
      <point x="195" y="590" type="line" smooth="yes"/>
      <point x="248" y="590"/>
      <point x="270" y="561"/>
      <point x="270" y="516" type="curve" smooth="yes"/>
      <point x="270" y="451"/>
      <point x="233" y="425"/>
      <point x="190" y="425" type="curve" smooth="yes"/>
      <point x="140" y="425"/>
      <point x="123" y="471"/>
      <point x="125" y="511" type="curve"/>
      <point x="97" y="511"/>
      <point x="74" y="491"/>
      <point x="74" y="456" type="curve" smooth="yes"/>
      <point x="74" y="412"/>
      <point x="111" y="380"/>
    </contour>
  </outline>
</glyph>
<glyph name="udatta-deva" format="2">
  <unicode hex="0951"/>
  <anchor x="59" y="554" name="_vedic"/>
  <outline>
    <contour>
      <point x="112" y="917" type="line"/>
      <point x="161" y="917" type="line"/>
      <point x="202" y="1112" type="line"/>
      <point x="153" y="1112" type="line"/>
    </contour>
  </outline>
</glyph>
<glyph name="anudatta-deva" format="2">
  <unicode hex="0952"/>
  <anchor x="-59" y="0" name="_bottom"/>
  <outline>
    <contour>
      <point x="-367" y="-523" type="line"/>
      <point x="27" y="-523" type="line"/>
      <point x="41" y="-456" type="line"/>
      <point x="-353" y="-456" type="line"/>
    </contour>
  </outline>
</glyph>
<glyph name="danda-deva" format="2">
  <advance width="241"/>
  <unicode hex="0964"/>
  <outline>
    <contour>
      <point x="18" y="0" type="line"/>
      <point x="106" y="0" type="line"/>
      <point x="224" y="554" type="line"/>
      <point x="135" y="554" type="line"/>
    </contour>
  </outline>
</glyph>
<glyph name="dbldanda-deva" format="2">
  <advance width="435"/>
  <unicode hex="0965"/>
  <outline>
    <contour>
      <point x="212" y="0" type="line"/>
      <point x="300" y="0" type="line"/>
      <point x="418" y="554" type="line"/>
      <point x="329" y="554" type="line"/>
    </contour>
    <contour>
      <point x="18" y="0" type="line"/>
      <point x="106" y="0" type="line"/>
      <point x="224" y="554" type="line"/>
      <point x="135" y="554" type="line"/>
    </contour>
  </outline>
</glyph>
<glyph name="anusvara-tamil" format="2">
  <unicode hex="0B82"/>
  <note>
uni0B82
</note>
  <anchor x="59" y="554" name="_top"/>
  <outline>
    <contour>
      <point x="97" y="633" type="curve" smooth="yes"/>
      <point x="157" y="633"/>
      <point x="201" y="673"/>
      <point x="201" y="734" type="curve" smooth="yes"/>
      <point x="201" y="794"/>
      <point x="157" y="835"/>
      <point x="97" y="835" type="curve" smooth="yes"/>
      <point x="37" y="835"/>
      <point x="-7" y="794"/>
      <point x="-7" y="734" type="curve" smooth="yes"/>
      <point x="-7" y="673"/>
      <point x="37" y="633"/>
    </contour>
    <contour>
      <point x="97" y="687" type="curve" smooth="yes"/>
      <point x="70" y="687"/>
      <point x="52" y="706"/>
      <point x="52" y="734" type="curve" smooth="yes"/>
      <point x="52" y="762"/>
      <point x="70" y="781"/>
      <point x="97" y="781" type="curve" smooth="yes"/>
      <point x="124" y="781"/>
      <point x="142" y="762"/>
      <point x="142" y="734" type="curve" smooth="yes"/>
      <point x="142" y="706"/>
      <point x="124" y="687"/>
    </contour>
  </outline>
</glyph>
<glyph name="a-tamil" format="2">
  <advance width="959"/>
  <unicode hex="0B85"/>
  <note>
uni0B85
</note>
  <anchor x="410" y="0" name="bottom"/>
  <anchor x="250" y="-122" name="nukta"/>
  <anchor x="515" y="554" name="top"/>
  <anchor x="517" y="554" name="vedic"/>
  <outline>
    <contour>
      <point x="699" y="-184" type="line"/>
      <point x="787" y="-184" type="line"/>
      <point x="944" y="554" type="line"/>
      <point x="856" y="554" type="line"/>
      <point x="774" y="171" type="line"/>
      <point x="71" y="171" type="line" smooth="yes"/>
      <point x="17" y="171"/>
      <point x="-7" y="134"/>
      <point x="-7" y="83" type="curve" smooth="yes"/>
      <point x="-7" y="-7"/>
      <point x="87" y="-122"/>
      <point x="250" y="-122" type="curve" smooth="yes"/>
      <point x="508" y="-122"/>
      <point x="695" y="66"/>
      <point x="695" y="320" type="curve" smooth="yes"/>
      <point x="695" y="476"/>
      <point x="604" y="559"/>
      <point x="486" y="559" type="curve" smooth="yes"/>
      <point x="373" y="559"/>
      <point x="278" y="478"/>
      <point x="278" y="362" type="curve" smooth="yes"/>
      <point x="278" y="303"/>
      <point x="310" y="247"/>
      <point x="377" y="247" type="curve" smooth="yes"/>
      <point x="460" y="247"/>
      <point x="514" y="308"/>
      <point x="514" y="388" type="curve" smooth="yes"/>
      <point x="514" y="446"/>
      <point x="481" y="507"/>
      <point x="434" y="517" type="curve"/>
      <point x="394" y="518" type="line"/>
      <point x="422" y="502"/>
      <point x="442" y="455"/>
      <point x="442" y="405" type="curve" smooth="yes"/>
      <point x="442" y="350"/>
      <point x="414" y="301"/>
      <point x="368" y="301" type="curve" smooth="yes"/>
      <point x="338" y="301"/>
      <point x="324" y="331"/>
      <point x="324" y="366" type="curve" smooth="yes"/>
      <point x="324" y="443"/>
      <point x="387" y="505"/>
      <point x="471" y="505" type="curve" smooth="yes"/>
      <point x="552" y="505"/>
      <point x="606" y="443"/>
      <point x="606" y="319" type="curve" smooth="yes"/>
      <point x="606" y="122"/>
      <point x="470" y="-68"/>
      <point x="255" y="-68" type="curve" smooth="yes"/>
      <point x="117" y="-68"/>
      <point x="46" y="23"/>
      <point x="46" y="85" type="curve" smooth="yes"/>
      <point x="46" y="107"/>
      <point x="57" y="117"/>
      <point x="76" y="117" type="curve" smooth="yes"/>
      <point x="763" y="117" type="line"/>
    </contour>
  </outline>
</glyph>
<glyph name="aa-tamil" format="2">
  <advance width="1087"/>
  <unicode hex="0B86"/>
  <note>
uni0B86
</note>
  <anchor x="463" y="0" name="bottom"/>
  <anchor x="247" y="-122" name="nukta"/>
  <anchor x="590" y="554" name="top"/>
  <anchor x="591" y="554" name="vedic"/>
  <outline>
    <contour>
      <point x="582" y="-409" type="curve" smooth="yes"/>
      <point x="774" y="-409"/>
      <point x="997" y="-250"/>
      <point x="997" y="-62" type="curve" smooth="yes"/>
      <point x="997" y="9"/>
      <point x="966" y="45"/>
      <point x="912" y="45" type="curve" smooth="yes"/>
      <point x="857" y="45"/>
      <point x="809" y="-10"/>
      <point x="786" y="-91" type="curve"/>
      <point x="802" y="-99" type="line"/>
      <point x="812" y="-55"/>
      <point x="837" y="-31"/>
      <point x="865" y="-31" type="curve" smooth="yes"/>
      <point x="892" y="-31"/>
      <point x="908" y="-49"/>
      <point x="908" y="-80" type="curve" smooth="yes"/>
      <point x="908" y="-233"/>
      <point x="732" y="-355"/>
      <point x="585" y="-355" type="curve" smooth="yes"/>
      <point x="515" y="-355"/>
      <point x="480" y="-328"/>
      <point x="480" y="-278" type="curve" smooth="yes"/>
      <point x="480" y="-231"/>
      <point x="523" y="-201"/>
      <point x="583" y="-184" type="curve"/>
      <point x="570" y="-133" type="line"/>
      <point x="488" y="-158"/>
      <point x="424" y="-204"/>
      <point x="424" y="-286" type="curve" smooth="yes"/>
      <point x="424" y="-362"/>
      <point x="487" y="-409"/>
    </contour>
    <component base="a-tamil"/>
  </outline>
</glyph>
<glyph name="i-tamil" format="2">
  <advance width="752"/>
  <unicode hex="0B87"/>
  <note>
uni0B87
</note>
  <anchor x="302" y="0" name="bottom"/>
  <anchor x="242" y="-272" name="nukta"/>
  <anchor x="459" y="815" name="top"/>
  <anchor x="400" y="554" name="vedic"/>
  <outline>
    <contour>
      <point x="83" y="-297" type="curve" smooth="yes"/>
      <point x="329" y="-297"/>
      <point x="579" y="60"/>
      <point x="579" y="341" type="curve" smooth="yes"/>
      <point x="579" y="491"/>
      <point x="502" y="559"/>
      <point x="400" y="559" type="curve" smooth="yes"/>
      <point x="293" y="559"/>
      <point x="209" y="460"/>
      <point x="209" y="354" type="curve" smooth="yes"/>
      <point x="209" y="296"/>
      <point x="243" y="248"/>
      <point x="308" y="248" type="curve" smooth="yes"/>
      <point x="377" y="248"/>
      <point x="433" y="307"/>
      <point x="433" y="386" type="curve" smooth="yes"/>
      <point x="433" y="451"/>
      <point x="406" y="496"/>
      <point x="361" y="517" type="curve"/>
      <point x="317" y="512" type="line"/>
      <point x="344" y="494"/>
      <point x="364" y="455"/>
      <point x="364" y="405" type="curve" smooth="yes"/>
      <point x="364" y="352"/>
      <point x="339" y="300"/>
      <point x="295" y="300" type="curve" smooth="yes"/>
      <point x="271" y="300"/>
      <point x="255" y="321"/>
      <point x="255" y="357" type="curve" smooth="yes"/>
      <point x="255" y="425"/>
      <point x="302" y="505"/>
      <point x="384" y="505" type="curve" smooth="yes"/>
      <point x="456" y="505"/>
      <point x="496" y="454"/>
      <point x="496" y="350" type="curve" smooth="yes"/>
      <point x="496" y="104"/>
      <point x="299" y="-243"/>
      <point x="88" y="-243" type="curve" smooth="yes"/>
      <point x="31" y="-243"/>
      <point x="5" y="-209"/>
      <point x="5" y="-158" type="curve" smooth="yes"/>
      <point x="5" y="-35"/>
      <point x="136" y="57"/>
      <point x="288" y="57" type="curve" smooth="yes"/>
      <point x="417" y="57"/>
      <point x="535" y="-21"/>
      <point x="535" y="-125" type="curve" smooth="yes"/>
      <point x="535" y="-203"/>
      <point x="492" y="-243"/>
      <point x="416" y="-243" type="curve" smooth="yes"/>
      <point x="256" y="-243"/>
      <point x="123" y="-5"/>
      <point x="123" y="273" type="curve" smooth="yes"/>
      <point x="123" y="529"/>
      <point x="220" y="726"/>
      <point x="445" y="726" type="curve" smooth="yes"/>
      <point x="579" y="726"/>
      <point x="681" y="652"/>
      <point x="681" y="489" type="curve" smooth="yes"/>
      <point x="681" y="458"/>
      <point x="677" y="423"/>
      <point x="669" y="385" type="curve" smooth="yes"/>
      <point x="606" y="86" type="line"/>
      <point x="660" y="86" type="line"/>
      <point x="724" y="391" type="line" smooth="yes"/>
      <point x="734" y="438"/>
      <point x="738" y="481"/>
      <point x="738" y="520" type="curve" smooth="yes"/>
      <point x="738" y="711"/>
      <point x="630" y="815"/>
      <point x="459" y="815" type="curve" smooth="yes"/>
      <point x="204" y="815"/>
      <point x="67" y="581"/>
      <point x="67" y="271" type="curve" smooth="yes"/>
      <point x="67" y="-29"/>
      <point x="211" y="-297"/>
      <point x="427" y="-297" type="curve" smooth="yes"/>
      <point x="522" y="-297"/>
      <point x="593" y="-240"/>
      <point x="593" y="-127" type="curve" smooth="yes"/>
      <point x="593" y="16"/>
      <point x="453" y="110"/>
      <point x="289" y="110" type="curve" smooth="yes"/>
      <point x="102" y="110"/>
      <point x="-54" y="-13"/>
      <point x="-54" y="-165" type="curve" smooth="yes"/>
      <point x="-54" y="-241"/>
      <point x="-4" y="-297"/>
    </contour>
  </outline>
</glyph>
<glyph name="uu-tamil" format="2">
  <advance width="1238"/>
  <unicode hex="0B8A"/>
  <note>
uni0B8A
</note>
  <anchor x="582" y="0" name="bottom"/>
  <anchor x="582" y="0" name="nukta"/>
  <anchor x="703" y="554" name="top"/>
  <anchor x="703" y="554" name="vedic"/>
  <outline>
    <contour>
      <point x="77" y="0" type="curve" smooth="yes"/>
      <point x="1158" y="0" type="line"/>
      <point x="1169" y="54" type="line"/>
      <point x="84" y="54" type="line" smooth="yes"/>
      <point x="62" y="54"/>
      <point x="46" y="71"/>
      <point x="46" y="91" type="curve" smooth="yes"/>
      <point x="46" y="122"/>
      <point x="70" y="135"/>
      <point x="88" y="135" type="curve" smooth="yes"/>
      <point x="249" y="135" type="line" smooth="yes"/>
      <point x="390" y="135"/>
      <point x="505" y="221"/>
      <point x="505" y="371" type="curve" smooth="yes"/>
      <point x="505" y="497"/>
      <point x="416" y="559"/>
      <point x="318" y="559" type="curve" smooth="yes"/>
      <point x="206" y="559"/>
      <point x="119" y="465"/>
      <point x="119" y="357" type="curve" smooth="yes"/>
      <point x="119" y="298"/>
      <point x="153" y="247"/>
      <point x="214" y="247" type="curve" smooth="yes"/>
      <point x="289" y="247"/>
      <point x="346" y="305"/>
      <point x="346" y="395" type="curve" smooth="yes"/>
      <point x="346" y="451"/>
      <point x="318" y="502"/>
      <point x="274" y="519" type="curve"/>
      <point x="233" y="516" type="line"/>
      <point x="260" y="494"/>
      <point x="275" y="445"/>
      <point x="275" y="402" type="curve" smooth="yes"/>
      <point x="275" y="351"/>
      <point x="254" y="301"/>
      <point x="206" y="301" type="curve" smooth="yes"/>
      <point x="178" y="301"/>
      <point x="166" y="328"/>
      <point x="166" y="361" type="curve" smooth="yes"/>
      <point x="166" y="437"/>
      <point x="219" y="505"/>
      <point x="303" y="505" type="curve" smooth="yes"/>
      <point x="370" y="505"/>
      <point x="418" y="463"/>
      <point x="418" y="374" type="curve" smooth="yes"/>
      <point x="418" y="264"/>
      <point x="349" y="188"/>
      <point x="248" y="188" type="curve" smooth="yes"/>
      <point x="93" y="188" type="line" smooth="yes"/>
      <point x="34" y="188"/>
      <point x="-7" y="144"/>
      <point x="-7" y="85" type="curve" smooth="yes"/>
      <point x="-7" y="41"/>
      <point x="22" y="0"/>
    </contour>
    <contour>
      <point x="654" y="103" type="curve" smooth="yes"/>
      <point x="735" y="103"/>
      <point x="802" y="180"/>
      <point x="802" y="279" type="curve" smooth="yes"/>
      <point x="802" y="353"/>
      <point x="757" y="390"/>
      <point x="705" y="390" type="curve" smooth="yes"/>
      <point x="650" y="390"/>
      <point x="592" y="333"/>
      <point x="571" y="251" type="curve"/>
      <point x="579" y="215" type="line"/>
      <point x="590" y="280"/>
      <point x="637" y="327"/>
      <point x="674" y="327" type="curve" smooth="yes"/>
      <point x="705" y="327"/>
      <point x="724" y="306"/>
      <point x="724" y="261" type="curve" smooth="yes"/>
      <point x="724" y="207"/>
      <point x="694" y="156"/>
      <point x="646" y="156" type="curve" smooth="yes"/>
      <point x="610" y="156"/>
      <point x="595" y="193"/>
      <point x="595" y="256" type="curve" smooth="yes"/>
      <point x="595" y="377"/>
      <point x="656" y="505"/>
      <point x="770" y="505" type="curve" smooth="yes"/>
      <point x="861" y="505"/>
      <point x="896" y="423"/>
      <point x="874" y="311" type="curve"/>
      <point x="919" y="311" type="line"/>
      <point x="948" y="450"/>
      <point x="899" y="559"/>
      <point x="777" y="559" type="curve" smooth="yes"/>
      <point x="638" y="559"/>
      <point x="544" y="410"/>
      <point x="544" y="253" type="curve" smooth="yes"/>
      <point x="544" y="172"/>
      <point x="574" y="103"/>
    </contour>
    <contour>
      <point x="830" y="107" type="line"/>
      <point x="916" y="107" type="line"/>
      <point x="999" y="502" type="line"/>
      <point x="1108" y="502" type="line"/>
      <point x="1024" y="107" type="line"/>
      <point x="1109" y="107" type="line"/>
      <point x="1193" y="502" type="line"/>
      <point x="1264" y="502" type="line"/>
      <point x="1275" y="554" type="line"/>
      <point x="938" y="554" type="line"/>
      <point x="901" y="379" type="line"/>
      <point x="887" y="375" type="line"/>
    </contour>
  </outline>
</glyph>
<glyph name="e-tamil" format="2">
  <advance width="687"/>
  <unicode hex="0B8E"/>
  <note>
uni0B8E
</note>
  <anchor x="292" y="0" name="bottom"/>
  <anchor x="293" y="0" name="nukta"/>
  <anchor x="413" y="554" name="top"/>
  <anchor x="413" y="554" name="vedic"/>
  <outline>
    <contour>
      <point x="164" y="-5" type="curve" smooth="yes"/>
      <point x="243" y="-5"/>
      <point x="322" y="66"/>
      <point x="322" y="174" type="curve" smooth="yes"/>
      <point x="322" y="257"/>
      <point x="273" y="303"/>
      <point x="210" y="303" type="curve" smooth="yes"/>
      <point x="135" y="303"/>
      <point x="78" y="237"/>
      <point x="49" y="144" type="curve"/>
      <point x="72" y="116" type="line"/>
      <point x="94" y="193"/>
      <point x="129" y="236"/>
      <point x="177" y="236" type="curve" smooth="yes"/>
      <point x="211" y="236"/>
      <point x="236" y="209"/>
      <point x="236" y="157" type="curve" smooth="yes"/>
      <point x="236" y="98"/>
      <point x="204" y="49"/>
      <point x="152" y="49" type="curve" smooth="yes"/>
      <point x="102" y="49"/>
      <point x="77" y="102"/>
      <point x="77" y="199" type="curve" smooth="yes"/>
      <point x="77" y="336"/>
      <point x="161" y="500"/>
      <point x="328" y="500" type="curve" smooth="yes"/>
      <point x="507" y="500" type="line"/>
      <point x="401" y="0" type="line"/>
      <point x="489" y="0" type="line"/>
      <point x="595" y="500" type="line"/>
      <point x="712" y="500" type="line"/>
      <point x="723" y="554" type="line"/>
      <point x="334" y="554" type="line" smooth="yes"/>
      <point x="140" y="554"/>
      <point x="26" y="364"/>
      <point x="26" y="198" type="curve" smooth="yes"/>
      <point x="26" y="67"/>
      <point x="74" y="-5"/>
    </contour>
  </outline>
</glyph>
<glyph name="ai-tamil" format="2">
  <advance width="737"/>
  <unicode hex="0B90"/>
  <note>
uni0B90
</note>
  <anchor x="306" y="0" name="bottom"/>
  <anchor x="239" y="-296" name="nukta"/>
  <anchor x="434" y="554" name="top"/>
  <anchor x="428" y="554" name="vedic"/>
  <outline>
    <contour>
      <point x="106" y="-296" type="curve" smooth="yes"/>
      <point x="191" y="-296"/>
      <point x="253" y="-247"/>
      <point x="284" y="-175" type="curve"/>
      <point x="288" y="-242"/>
      <point x="332" y="-296"/>
      <point x="416" y="-296" type="curve" smooth="yes"/>
      <point x="539" y="-296"/>
      <point x="619" y="-200"/>
      <point x="619" y="-63" type="curve" smooth="yes"/>
      <point x="619" y="-12"/>
      <point x="606" y="35"/>
      <point x="594" y="68" type="curve"/>
      <point x="543" y="48" type="line"/>
      <point x="555" y="16"/>
      <point x="566" y="-24"/>
      <point x="566" y="-60" type="curve" smooth="yes"/>
      <point x="566" y="-161"/>
      <point x="514" y="-235"/>
      <point x="424" y="-235" type="curve" smooth="yes"/>
      <point x="351" y="-235"/>
      <point x="331" y="-179"/>
      <point x="351" y="-84" type="curve" smooth="yes"/>
      <point x="360" y="-41" type="line"/>
      <point x="271" y="-41" type="line"/>
      <point x="263" y="-78" type="line" smooth="yes"/>
      <point x="241" y="-179"/>
      <point x="199" y="-241"/>
      <point x="126" y="-241" type="curve" smooth="yes"/>
      <point x="77" y="-241"/>
      <point x="46" y="-202"/>
      <point x="46" y="-141" type="curve" smooth="yes"/>
      <point x="46" y="34"/>
      <point x="172" y="62"/>
      <point x="348" y="86" type="curve" smooth="yes"/>
      <point x="564" y="116"/>
      <point x="707" y="203"/>
      <point x="707" y="396" type="curve" smooth="yes"/>
      <point x="707" y="505"/>
      <point x="642" y="559"/>
      <point x="564" y="559" type="curve" smooth="yes"/>
      <point x="498" y="559"/>
      <point x="447" y="522"/>
      <point x="410" y="444" type="curve"/>
      <point x="397" y="520"/>
      <point x="335" y="559"/>
      <point x="264" y="559" type="curve" smooth="yes"/>
      <point x="138" y="559"/>
      <point x="47" y="447"/>
      <point x="47" y="305" type="curve" smooth="yes"/>
      <point x="47" y="230"/>
      <point x="72" y="156"/>
      <point x="148" y="156" type="curve" smooth="yes"/>
      <point x="219" y="156"/>
      <point x="282" y="219"/>
      <point x="282" y="309" type="curve" smooth="yes"/>
      <point x="282" y="380"/>
      <point x="246" y="412"/>
      <point x="197" y="412" type="curve" smooth="yes"/>
      <point x="148" y="412"/>
      <point x="102" y="365"/>
      <point x="76" y="288" type="curve"/>
      <point x="85" y="255" type="line"/>
      <point x="112" y="328"/>
      <point x="137" y="348"/>
      <point x="167" y="348" type="curve" smooth="yes"/>
      <point x="189" y="348"/>
      <point x="208" y="333"/>
      <point x="208" y="294" type="curve" smooth="yes"/>
      <point x="208" y="251"/>
      <point x="183" y="210"/>
      <point x="146" y="210" type="curve" smooth="yes"/>
      <point x="109" y="210"/>
      <point x="98" y="251"/>
      <point x="98" y="300" type="curve" smooth="yes"/>
      <point x="98" y="402"/>
      <point x="149" y="505"/>
      <point x="250" y="505" type="curve" smooth="yes"/>
      <point x="339" y="505"/>
      <point x="371" y="448"/>
      <point x="350" y="355" type="curve" smooth="yes"/>
      <point x="319" y="215" type="line"/>
      <point x="408" y="215" type="line"/>
      <point x="438" y="361" type="line" smooth="yes"/>
      <point x="455" y="443"/>
      <point x="485" y="505"/>
      <point x="545" y="505" type="curve" smooth="yes"/>
      <point x="588" y="505"/>
      <point x="618" y="478"/>
      <point x="618" y="402" type="curve" smooth="yes"/>
      <point x="618" y="208"/>
      <point x="510" y="150"/>
      <point x="305" y="121" type="curve" smooth="yes"/>
      <point x="107" y="93"/>
      <point x="-43" y="46"/>
      <point x="-43" y="-136" type="curve" smooth="yes"/>
      <point x="-43" y="-234"/>
      <point x="19" y="-296"/>
    </contour>
  </outline>
</glyph>
<glyph name="o-tamil" format="2">
  <advance width="739"/>
  <unicode hex="0B92"/>
  <note>
uni0B92
</note>
  <anchor x="317" y="0" name="bottom"/>
  <anchor x="244" y="-335" name="nukta"/>
  <anchor x="428" y="554" name="top"/>
  <anchor x="428" y="554" name="vedic"/>
  <outline>
    <contour>
      <point x="171" y="-294" type="curve" smooth="yes"/>
      <point x="313" y="-294"/>
      <point x="365" y="-135"/>
      <point x="487" y="-135" type="curve" smooth="yes"/>
      <point x="519" y="-135" type="line"/>
      <point x="531" y="-81" type="line"/>
      <point x="489" y="-81" type="line" smooth="yes"/>
      <point x="407" y="-81"/>
      <point x="369" y="-37"/>
      <point x="369" y="27" type="curve" smooth="yes"/>
      <point x="369" y="73"/>
      <point x="389" y="130"/>
      <point x="428" y="187" type="curve"/>
      <point x="433" y="184" type="line"/>
      <point x="417" y="146"/>
      <point x="409" y="111"/>
      <point x="409" y="82" type="curve" smooth="yes"/>
      <point x="409" y="29"/>
      <point x="437" y="-5"/>
      <point x="497" y="-5" type="curve" smooth="yes"/>
      <point x="605" y="-5"/>
      <point x="689" y="109"/>
      <point x="689" y="263" type="curve" smooth="yes"/>
      <point x="689" y="446"/>
      <point x="564" y="559"/>
      <point x="388" y="559" type="curve" smooth="yes"/>
      <point x="193" y="559"/>
      <point x="26" y="395"/>
      <point x="26" y="203" type="curve" smooth="yes"/>
      <point x="26" y="72"/>
      <point x="74" y="-5"/>
      <point x="162" y="-5" type="curve" smooth="yes"/>
      <point x="242" y="-5"/>
      <point x="316" y="66"/>
      <point x="316" y="174" type="curve" smooth="yes"/>
      <point x="316" y="257"/>
      <point x="270" y="303"/>
      <point x="207" y="303" type="curve" smooth="yes"/>
      <point x="132" y="303"/>
      <point x="78" y="237"/>
      <point x="49" y="144" type="curve"/>
      <point x="72" y="116" type="line"/>
      <point x="94" y="193"/>
      <point x="126" y="236"/>
      <point x="174" y="236" type="curve" smooth="yes"/>
      <point x="208" y="236"/>
      <point x="230" y="209"/>
      <point x="230" y="157" type="curve" smooth="yes"/>
      <point x="230" y="98"/>
      <point x="201" y="49"/>
      <point x="150" y="49" type="curve" smooth="yes"/>
      <point x="102" y="49"/>
      <point x="77" y="107"/>
      <point x="77" y="204" type="curve" smooth="yes"/>
      <point x="77" y="365"/>
      <point x="217" y="505"/>
      <point x="375" y="505" type="curve" smooth="yes"/>
      <point x="511" y="505"/>
      <point x="604" y="409"/>
      <point x="604" y="265" type="curve" smooth="yes"/>
      <point x="604" y="158"/>
      <point x="565" y="49"/>
      <point x="491" y="49" type="curve" smooth="yes"/>
      <point x="463" y="49"/>
      <point x="452" y="68"/>
      <point x="452" y="96" type="curve" smooth="yes"/>
      <point x="452" y="136"/>
      <point x="474" y="195"/>
      <point x="502" y="249" type="curve"/>
      <point x="446" y="278" type="line"/>
      <point x="374" y="190"/>
      <point x="323" y="92"/>
      <point x="323" y="14" type="curve" smooth="yes"/>
      <point x="323" y="-36"/>
      <point x="345" y="-78"/>
      <point x="397" y="-103" type="curve"/>
      <point x="396" y="-108" type="line"/>
      <point x="291" y="-129"/>
      <point x="257" y="-229"/>
      <point x="163" y="-229" type="curve" smooth="yes"/>
      <point x="125" y="-229"/>
      <point x="102" y="-203"/>
      <point x="102" y="-170" type="curve" smooth="yes"/>
      <point x="102" y="-135"/>
      <point x="119" y="-114"/>
      <point x="155" y="-84" type="curve"/>
      <point x="125" y="-47" type="line"/>
      <point x="80" y="-85"/>
      <point x="48" y="-120"/>
      <point x="48" y="-177" type="curve" smooth="yes"/>
      <point x="48" y="-241"/>
      <point x="97" y="-294"/>
    </contour>
  </outline>
</glyph>
<glyph name="oo-tamil" format="2">
  <advance width="739"/>
  <unicode hex="0B93"/>
  <note>
uni0B93
</note>
  <anchor x="314" y="0" name="bottom"/>
  <anchor x="254" y="-271" name="nukta"/>
  <anchor x="424" y="554" name="top"/>
  <anchor x="424" y="554" name="vedic"/>
  <outline>
    <contour>
      <point x="149" y="-307" type="curve" smooth="yes"/>
      <point x="291" y="-307"/>
      <point x="365" y="-135"/>
      <point x="487" y="-135" type="curve" smooth="yes"/>
      <point x="519" y="-135" type="line"/>
      <point x="531" y="-81" type="line"/>
      <point x="489" y="-81" type="line" smooth="yes"/>
      <point x="407" y="-81"/>
      <point x="369" y="-37"/>
      <point x="369" y="27" type="curve" smooth="yes"/>
      <point x="369" y="73"/>
      <point x="389" y="130"/>
      <point x="428" y="187" type="curve"/>
      <point x="433" y="184" type="line"/>
      <point x="417" y="146"/>
      <point x="409" y="111"/>
      <point x="409" y="82" type="curve" smooth="yes"/>
      <point x="409" y="29"/>
      <point x="437" y="-5"/>
      <point x="497" y="-5" type="curve" smooth="yes"/>
      <point x="605" y="-5"/>
      <point x="689" y="109"/>
      <point x="689" y="263" type="curve" smooth="yes"/>
      <point x="689" y="446"/>
      <point x="564" y="559"/>
      <point x="388" y="559" type="curve" smooth="yes"/>
      <point x="193" y="559"/>
      <point x="26" y="395"/>
      <point x="26" y="203" type="curve" smooth="yes"/>
      <point x="26" y="72"/>
      <point x="74" y="-5"/>
      <point x="162" y="-5" type="curve" smooth="yes"/>
      <point x="242" y="-5"/>
      <point x="316" y="66"/>
      <point x="316" y="174" type="curve" smooth="yes"/>
      <point x="316" y="257"/>
      <point x="270" y="303"/>
      <point x="207" y="303" type="curve" smooth="yes"/>
      <point x="132" y="303"/>
      <point x="78" y="237"/>
      <point x="49" y="144" type="curve"/>
      <point x="72" y="116" type="line"/>
      <point x="94" y="193"/>
      <point x="126" y="236"/>
      <point x="174" y="236" type="curve" smooth="yes"/>
      <point x="208" y="236"/>
      <point x="230" y="209"/>
      <point x="230" y="157" type="curve" smooth="yes"/>
      <point x="230" y="98"/>
      <point x="201" y="49"/>
      <point x="150" y="49" type="curve" smooth="yes"/>
      <point x="102" y="49"/>
      <point x="77" y="107"/>
      <point x="77" y="204" type="curve" smooth="yes"/>
      <point x="77" y="365"/>
      <point x="217" y="505"/>
      <point x="375" y="505" type="curve" smooth="yes"/>
      <point x="511" y="505"/>
      <point x="604" y="409"/>
      <point x="604" y="265" type="curve" smooth="yes"/>
      <point x="604" y="158"/>
      <point x="565" y="49"/>
      <point x="491" y="49" type="curve" smooth="yes"/>
      <point x="463" y="49"/>
      <point x="452" y="68"/>
      <point x="452" y="96" type="curve" smooth="yes"/>
      <point x="452" y="136"/>
      <point x="474" y="195"/>
      <point x="502" y="249" type="curve"/>
      <point x="446" y="278" type="line"/>
      <point x="374" y="190"/>
      <point x="323" y="92"/>
      <point x="323" y="14" type="curve" smooth="yes"/>
      <point x="323" y="-36"/>
      <point x="345" y="-78"/>
      <point x="397" y="-103" type="curve"/>
      <point x="396" y="-108" type="line"/>
      <point x="291" y="-129"/>
      <point x="235" y="-246"/>
      <point x="141" y="-246" type="curve" smooth="yes"/>
      <point x="98" y="-246"/>
      <point x="83" y="-217"/>
      <point x="83" y="-184" type="curve" smooth="yes"/>
      <point x="83" y="-151"/>
      <point x="105" y="-125"/>
      <point x="133" y="-125" type="curve" smooth="yes"/>
      <point x="159" y="-125"/>
      <point x="176" y="-141"/>
      <point x="179" y="-175" type="curve"/>
      <point x="218" y="-164"/>
      <point x="237" y="-138"/>
      <point x="237" y="-111" type="curve" smooth="yes"/>
      <point x="237" y="-73"/>
      <point x="205" y="-52"/>
      <point x="165" y="-52" type="curve" smooth="yes"/>
      <point x="99" y="-52"/>
      <point x="37" y="-108"/>
      <point x="37" y="-189" type="curve" smooth="yes"/>
      <point x="37" y="-254"/>
      <point x="77" y="-307"/>
    </contour>
  </outline>
</glyph>
<glyph name="ka-tamil" format="2">
  <advance width="621"/>
  <unicode hex="0B95"/>
  <note>
uni0B95
</note>
  <anchor x="260" y="0" name="bottom"/>
  <anchor x="467" y="554" name="imatra"/>
  <anchor x="260" y="0" name="nukta"/>
  <anchor x="381" y="554" name="top"/>
  <anchor x="397" y="554" name="vedic"/>
  <outline>
    <contour>
      <point x="164" y="-4" type="curve" smooth="yes"/>
      <point x="273" y="-4"/>
      <point x="329" y="62"/>
      <point x="355" y="186" type="curve" smooth="yes"/>
      <point x="371" y="263" type="line"/>
      <point x="409" y="263" type="line" smooth="yes"/>
      <point x="452" y="263"/>
      <point x="476" y="230"/>
      <point x="476" y="179" type="curve" smooth="yes"/>
      <point x="476" y="114"/>
      <point x="443" y="51"/>
      <point x="385" y="51" type="curve" smooth="yes"/>
      <point x="363" y="51" type="line"/>
      <point x="352" y="-2" type="line"/>
      <point x="389" y="-2" type="line" smooth="yes"/>
      <point x="491" y="-2"/>
      <point x="567" y="72"/>
      <point x="567" y="179" type="curve" smooth="yes"/>
      <point x="567" y="268"/>
      <point x="514" y="317"/>
      <point x="421" y="317" type="curve" smooth="yes"/>
      <point x="383" y="317" type="line"/>
      <point x="422" y="500" type="line"/>
      <point x="535" y="500" type="line"/>
      <point x="547" y="554" type="line"/>
      <point x="191" y="554" type="line"/>
      <point x="134" y="286" type="line"/>
      <point x="188" y="286" type="line"/>
      <point x="233" y="500" type="line"/>
      <point x="333" y="500" type="line"/>
      <point x="295" y="317" type="line"/>
      <point x="178" y="317" type="line" smooth="yes"/>
      <point x="78" y="317"/>
      <point x="16" y="229"/>
      <point x="16" y="138" type="curve" smooth="yes"/>
      <point x="16" y="60"/>
      <point x="74" y="-4"/>
    </contour>
    <contour>
      <point x="158" y="49" type="curve" smooth="yes"/>
      <point x="105" y="49"/>
      <point x="73" y="91"/>
      <point x="73" y="143" type="curve" smooth="yes"/>
      <point x="73" y="207"/>
      <point x="103" y="263"/>
      <point x="172" y="263" type="curve" smooth="yes"/>
      <point x="283" y="263" type="line"/>
      <point x="264" y="175" type="line" smooth="yes"/>
      <point x="244" y="82"/>
      <point x="213" y="49"/>
    </contour>
  </outline>
</glyph>
<glyph name="nga-tamil" format="2">
  <advance width="757"/>
  <unicode hex="0B99"/>
  <note>
uni0B99
</note>
  <anchor x="320" y="0" name="bottom"/>
  <anchor x="463" y="554" name="imatra"/>
  <anchor x="320" y="0" name="nukta"/>
  <anchor x="436" y="554" name="top"/>
  <anchor x="437" y="554" name="vedic"/>
  <outline>
    <contour>
      <point x="16" y="0" type="line"/>
      <point x="74" y="0" type="line"/>
      <point x="180" y="500" type="line"/>
      <point x="286" y="500" type="line"/>
      <point x="221" y="196" type="line"/>
      <point x="305" y="196" type="line"/>
      <point x="316" y="245" type="line" smooth="yes"/>
      <point x="326" y="290"/>
      <point x="344" y="313"/>
      <point x="373" y="313" type="curve" smooth="yes"/>
      <point x="403" y="313"/>
      <point x="418" y="293"/>
      <point x="418" y="250" type="curve" smooth="yes"/>
      <point x="418" y="150"/>
      <point x="351" y="54"/>
      <point x="272" y="54" type="curve" smooth="yes"/>
      <point x="191" y="54" type="line"/>
      <point x="179" y="0" type="line"/>
      <point x="624" y="0" type="line"/>
      <point x="742" y="554" type="line"/>
      <point x="653" y="554" type="line"/>
      <point x="547" y="54" type="line"/>
      <point x="367" y="54" type="line"/>
      <point x="441" y="88"/>
      <point x="506" y="164"/>
      <point x="506" y="268" type="curve" smooth="yes"/>
      <point x="506" y="344"/>
      <point x="468" y="379"/>
      <point x="417" y="379" type="curve" smooth="yes"/>
      <point x="377" y="379"/>
      <point x="351" y="353"/>
      <point x="337" y="333" type="curve"/>
      <point x="372" y="500" type="line"/>
      <point x="471" y="500" type="line"/>
      <point x="482" y="554" type="line"/>
      <point x="133" y="554" type="line"/>
    </contour>
  </outline>
</glyph>
<glyph name="ja-tamil" format="2">
  <advance width="732"/>
  <unicode hex="0B9C"/>
  <note>
uni0B9C
</note>
  <anchor x="308" y="0" name="bottom"/>
  <anchor x="241" y="-296" name="nukta"/>
  <anchor x="434" y="554" name="top"/>
  <anchor x="430" y="554" name="vedic"/>
  <outline>
    <contour>
      <point x="84" y="-296" type="curve" smooth="yes"/>
      <point x="248" y="-296"/>
      <point x="340" y="-21"/>
      <point x="449" y="-21" type="curve" smooth="yes"/>
      <point x="496" y="-21"/>
      <point x="518" y="-55"/>
      <point x="518" y="-110" type="curve" smooth="yes"/>
      <point x="518" y="-182"/>
      <point x="481" y="-242"/>
      <point x="413" y="-242" type="curve" smooth="yes"/>
      <point x="385" y="-242"/>
      <point x="364" y="-234"/>
      <point x="340" y="-219" type="curve"/>
      <point x="314" y="-263" type="line"/>
      <point x="344" y="-283"/>
      <point x="374" y="-296"/>
      <point x="424" y="-296" type="curve" smooth="yes"/>
      <point x="520" y="-296"/>
      <point x="607" y="-222"/>
      <point x="607" y="-109" type="curve" smooth="yes"/>
      <point x="607" y="-15"/>
      <point x="560" y="37"/>
      <point x="474" y="37" type="curve" smooth="yes"/>
      <point x="316" y="37"/>
      <point x="227" y="-238"/>
      <point x="109" y="-238" type="curve" smooth="yes"/>
      <point x="58" y="-238"/>
      <point x="46" y="-201"/>
      <point x="46" y="-145" type="curve" smooth="yes"/>
      <point x="46" y="4"/>
      <point x="125" y="51"/>
      <point x="338" y="82" type="curve" smooth="yes"/>
      <point x="575" y="117"/>
      <point x="707" y="203"/>
      <point x="707" y="396" type="curve" smooth="yes"/>
      <point x="707" y="505"/>
      <point x="642" y="559"/>
      <point x="564" y="559" type="curve" smooth="yes"/>
      <point x="498" y="559"/>
      <point x="447" y="522"/>
      <point x="410" y="444" type="curve"/>
      <point x="397" y="520"/>
      <point x="335" y="559"/>
      <point x="264" y="559" type="curve" smooth="yes"/>
      <point x="138" y="559"/>
      <point x="47" y="447"/>
      <point x="47" y="305" type="curve" smooth="yes"/>
      <point x="47" y="230"/>
      <point x="72" y="156"/>
      <point x="148" y="156" type="curve" smooth="yes"/>
      <point x="219" y="156"/>
      <point x="282" y="219"/>
      <point x="282" y="309" type="curve" smooth="yes"/>
      <point x="282" y="380"/>
      <point x="246" y="412"/>
      <point x="197" y="412" type="curve" smooth="yes"/>
      <point x="148" y="412"/>
      <point x="102" y="365"/>
      <point x="76" y="288" type="curve"/>
      <point x="85" y="255" type="line"/>
      <point x="112" y="328"/>
      <point x="137" y="348"/>
      <point x="167" y="348" type="curve" smooth="yes"/>
      <point x="189" y="348"/>
      <point x="208" y="333"/>
      <point x="208" y="294" type="curve" smooth="yes"/>
      <point x="208" y="251"/>
      <point x="183" y="210"/>
      <point x="146" y="210" type="curve" smooth="yes"/>
      <point x="109" y="210"/>
      <point x="98" y="251"/>
      <point x="98" y="300" type="curve" smooth="yes"/>
      <point x="98" y="402"/>
      <point x="149" y="505"/>
      <point x="250" y="505" type="curve" smooth="yes"/>
      <point x="339" y="505"/>
      <point x="371" y="448"/>
      <point x="350" y="355" type="curve" smooth="yes"/>
      <point x="319" y="215" type="line"/>
      <point x="408" y="215" type="line"/>
      <point x="438" y="361" type="line" smooth="yes"/>
      <point x="455" y="443"/>
      <point x="485" y="505"/>
      <point x="545" y="505" type="curve" smooth="yes"/>
      <point x="588" y="505"/>
      <point x="618" y="478"/>
      <point x="618" y="402" type="curve" smooth="yes"/>
      <point x="618" y="208"/>
      <point x="515" y="147"/>
      <point x="305" y="117" type="curve" smooth="yes"/>
      <point x="60" y="82"/>
      <point x="-42" y="11"/>
      <point x="-42" y="-145" type="curve" smooth="yes"/>
      <point x="-42" y="-237"/>
      <point x="-5" y="-296"/>
    </contour>
  </outline>
</glyph>
<glyph name="nya-tamil" format="2">
  <advance width="992"/>
  <unicode hex="0B9E"/>
  <note>
uni0B9E
</note>
  <anchor x="472" y="0" name="bottom"/>
  <anchor x="840" y="554" name="imatra"/>
  <anchor x="415" y="-304" name="nukta"/>
  <anchor x="606" y="554" name="top"/>
  <anchor x="587" y="554" name="vedic"/>
  <outline>
    <contour>
      <point x="410" y="-304" type="curve" smooth="yes"/>
      <point x="703" y="-304"/>
      <point x="924" y="-78"/>
      <point x="924" y="203" type="curve" smooth="yes"/>
      <point x="924" y="288"/>
      <point x="885" y="345"/>
      <point x="814" y="345" type="curve" smooth="yes"/>
      <point x="745" y="345"/>
      <point x="695" y="280"/>
      <point x="679" y="206" type="curve" smooth="yes"/>
      <point x="669" y="159" type="line"/>
      <point x="690" y="159" type="line"/>
      <point x="700" y="204" type="line" smooth="yes"/>
      <point x="710" y="248"/>
      <point x="739" y="282"/>
      <point x="776" y="282" type="curve" smooth="yes"/>
      <point x="816" y="282"/>
      <point x="833" y="247"/>
      <point x="833" y="196" type="curve" smooth="yes"/>
      <point x="833" y="-46"/>
      <point x="669" y="-250"/>
      <point x="412" y="-250" type="curve" smooth="yes"/>
      <point x="226" y="-250"/>
      <point x="75" y="-103"/>
      <point x="75" y="110" type="curve" smooth="yes"/>
      <point x="75" y="310"/>
      <point x="151" y="455"/>
      <point x="293" y="614" type="curve"/>
      <point x="259" y="644" type="line"/>
      <point x="113" y="484"/>
      <point x="23" y="313"/>
      <point x="23" y="104" type="curve" smooth="yes"/>
      <point x="23" y="-120"/>
      <point x="182" y="-304"/>
    </contour>
    <component base="e-tamil" xOffset="168"/>
  </outline>
</glyph>
<glyph name="tta-tamil" format="2">
  <advance width="666"/>
  <unicode hex="0B9F"/>
  <note>
uni0B9F
</note>
  <anchor x="290" y="0" name="bottom"/>
  <anchor x="290" y="0" name="nukta"/>
  <anchor x="414" y="554" name="top"/>
  <anchor x="421" y="554" name="vedic"/>
  <outline>
    <contour>
      <point x="16" y="0" type="line"/>
      <point x="590" y="0" type="line"/>
      <point x="601" y="54" type="line"/>
      <point x="115" y="54" type="line"/>
      <point x="222" y="554" type="line"/>
      <point x="133" y="554" type="line"/>
    </contour>
  </outline>
</glyph>
<glyph name="na-tamil" format="2">
  <advance width="593"/>
  <unicode hex="0BA8"/>
  <note>
uni0BA8
</note>
  <anchor x="226" y="0" name="bottom"/>
  <anchor x="463" y="554" name="imatra"/>
  <anchor x="225" y="-181" name="nukta"/>
  <anchor x="348" y="554" name="top"/>
  <anchor x="358" y="554" name="vedic"/>
  <outline>
    <contour>
      <point x="35" y="-248" type="curve"/>
      <point x="49" y="-180"/>
      <point x="77" y="-139"/>
      <point x="150" y="-139" type="curve" smooth="yes"/>
      <point x="215" y="-139" type="line" smooth="yes"/>
      <point x="395" y="-139"/>
      <point x="527" y="3"/>
      <point x="527" y="207" type="curve" smooth="yes"/>
      <point x="527" y="299"/>
      <point x="491" y="345"/>
      <point x="426" y="345" type="curve" smooth="yes"/>
      <point x="386" y="345"/>
      <point x="358" y="321"/>
      <point x="341" y="297" type="curve"/>
      <point x="385" y="500" type="line"/>
      <point x="487" y="500" type="line"/>
      <point x="499" y="554" type="line"/>
      <point x="132" y="554" type="line"/>
      <point x="15" y="0" type="line"/>
      <point x="69" y="0" type="line"/>
      <point x="175" y="500" type="line"/>
      <point x="297" y="500" type="line"/>
      <point x="190" y="0" type="line"/>
      <point x="278" y="0" type="line"/>
      <point x="322" y="208" type="line" smooth="yes"/>
      <point x="331" y="249"/>
      <point x="355" y="278"/>
      <point x="384" y="278" type="curve" smooth="yes"/>
      <point x="417" y="278"/>
      <point x="435" y="255"/>
      <point x="435" y="198" type="curve" smooth="yes"/>
      <point x="435" y="51"/>
      <point x="366" y="-92"/>
      <point x="215" y="-92" type="curve" smooth="yes"/>
      <point x="124" y="-92" type="line" smooth="yes"/>
      <point x="40" y="-92"/>
      <point x="-29" y="-120"/>
      <point x="-29" y="-189" type="curve" smooth="yes"/>
      <point x="-29" y="-227"/>
      <point x="-6" y="-248"/>
    </contour>
  </outline>
</glyph>
<glyph name="pa-tamil" format="2">
  <advance width="667"/>
  <unicode hex="0BAA"/>
  <note>
uni0BAA
</note>
  <anchor x="278" y="0" name="bottom"/>
  <anchor x="647" y="554" name="imatra"/>
  <anchor x="278" y="0" name="nukta"/>
  <anchor x="394" y="554" name="top"/>
  <anchor x="396" y="554" name="vedic"/>
  <outline>
    <contour>
      <point x="16" y="0" type="line"/>
      <point x="534" y="0" type="line"/>
      <point x="652" y="554" type="line"/>
      <point x="565" y="554" type="line"/>
      <point x="458" y="54" type="line"/>
      <point x="115" y="54" type="line"/>
      <point x="222" y="554" type="line"/>
      <point x="133" y="554" type="line"/>
    </contour>
  </outline>
</glyph>
<glyph name="ya-tamil" format="2">
  <advance width="725"/>
  <unicode hex="0BAF"/>
  <note>
uni0BAF
</note>
  <anchor x="306" y="0" name="bottom"/>
  <anchor x="707" y="554" name="imatra"/>
  <anchor x="309" y="0" name="nukta"/>
  <anchor x="438" y="554" name="top"/>
  <anchor x="426" y="554" name="vedic"/>
  <outline>
    <contour>
      <point x="131" y="-5" type="curve" smooth="yes"/>
      <point x="188" y="-5"/>
      <point x="220" y="28"/>
      <point x="235" y="50" type="curve"/>
      <point x="224" y="0" type="line"/>
      <point x="592" y="0" type="line"/>
      <point x="710" y="554" type="line"/>
      <point x="621" y="554" type="line"/>
      <point x="515" y="54" type="line"/>
      <point x="318" y="54" type="line"/>
      <point x="424" y="554" type="line"/>
      <point x="336" y="554" type="line"/>
      <point x="249" y="142" type="line" smooth="yes"/>
      <point x="237" y="84"/>
      <point x="209" y="56"/>
      <point x="173" y="56" type="curve" smooth="yes"/>
      <point x="138" y="56"/>
      <point x="119" y="89"/>
      <point x="132" y="151" type="curve" smooth="yes"/>
      <point x="219" y="554" type="line"/>
      <point x="130" y="554" type="line"/>
      <point x="46" y="160" type="line" smooth="yes"/>
      <point x="24" y="56"/>
      <point x="63" y="-5"/>
    </contour>
  </outline>
</glyph>
<glyph name="rra-tamil" format="2">
  <advance width="634"/>
  <unicode hex="0BB1"/>
  <note>
uni0BB1
</note>
  <anchor x="255" y="0" name="bottom"/>
  <anchor x="210" y="-199" name="nukta"/>
  <anchor x="358" y="554" name="top"/>
  <anchor x="383" y="554" name="vedic"/>
  <outline>
    <contour>
      <point x="34" y="-233" type="curve"/>
      <point x="48" y="-165"/>
      <point x="76" y="-124"/>
      <point x="149" y="-124" type="curve" smooth="yes"/>
      <point x="216" y="-124" type="line" smooth="yes"/>
      <point x="470" y="-124"/>
      <point x="597" y="105"/>
      <point x="597" y="358" type="curve" smooth="yes"/>
      <point x="597" y="481"/>
      <point x="537" y="559"/>
      <point x="448" y="559" type="curve" smooth="yes"/>
      <point x="384" y="559"/>
      <point x="346" y="519"/>
      <point x="321" y="482" type="curve"/>
      <point x="311" y="517"/>
      <point x="284" y="558"/>
      <point x="222" y="558" type="curve" smooth="yes"/>
      <point x="163" y="558"/>
      <point x="111" y="516"/>
      <point x="93" y="430" type="curve" smooth="yes"/>
      <point x="2" y="0" type="line"/>
      <point x="56" y="0" type="line"/>
      <point x="146" y="424" type="line" smooth="yes"/>
      <point x="157" y="477"/>
      <point x="179" y="504"/>
      <point x="218" y="504" type="curve" smooth="yes"/>
      <point x="261" y="504"/>
      <point x="274" y="464"/>
      <point x="262" y="409" type="curve" smooth="yes"/>
      <point x="175" y="0" type="line"/>
      <point x="263" y="0" type="line"/>
      <point x="353" y="421" type="line" smooth="yes"/>
      <point x="365" y="476"/>
      <point x="398" y="505"/>
      <point x="439" y="505" type="curve" smooth="yes"/>
      <point x="488" y="505"/>
      <point x="512" y="459"/>
      <point x="512" y="380" type="curve" smooth="yes"/>
      <point x="512" y="141"/>
      <point x="416" y="-77"/>
      <point x="224" y="-77" type="curve" smooth="yes"/>
      <point x="123" y="-77" type="line" smooth="yes"/>
      <point x="39" y="-77"/>
      <point x="-30" y="-105"/>
      <point x="-30" y="-174" type="curve" smooth="yes"/>
      <point x="-30" y="-212"/>
      <point x="-7" y="-233"/>
    </contour>
  </outline>
</glyph>
<glyph name="la-tamil" format="2">
  <advance width="781"/>
  <unicode hex="0BB2"/>
  <note>
uni0BB2
</note>
  <anchor x="330" y="0" name="bottom"/>
  <anchor x="330" y="0" name="nukta"/>
  <anchor x="472" y="554" name="top"/>
  <anchor x="447" y="554" name="vedic"/>
  <outline>
    <contour>
      <point x="163" y="-5" type="curve" smooth="yes"/>
      <point x="242" y="-5"/>
      <point x="321" y="66"/>
      <point x="321" y="174" type="curve" smooth="yes"/>
      <point x="321" y="257"/>
      <point x="272" y="303"/>
      <point x="209" y="303" type="curve" smooth="yes"/>
      <point x="134" y="303"/>
      <point x="77" y="237"/>
      <point x="48" y="144" type="curve"/>
      <point x="71" y="116" type="line"/>
      <point x="93" y="193"/>
      <point x="128" y="236"/>
      <point x="176" y="236" type="curve" smooth="yes"/>
      <point x="210" y="236"/>
      <point x="235" y="209"/>
      <point x="235" y="157" type="curve" smooth="yes"/>
      <point x="235" y="98"/>
      <point x="203" y="49"/>
      <point x="151" y="49" type="curve" smooth="yes"/>
      <point x="101" y="49"/>
      <point x="76" y="102"/>
      <point x="76" y="199" type="curve" smooth="yes"/>
      <point x="76" y="331"/>
      <point x="169" y="505"/>
      <point x="318" y="505" type="curve" smooth="yes"/>
      <point x="421" y="505"/>
      <point x="457" y="429"/>
      <point x="430" y="314" type="curve" smooth="yes"/>
      <point x="396" y="168" type="line" smooth="yes"/>
      <point x="376" y="82"/>
      <point x="397" y="0"/>
      <point x="493" y="0" type="curve" smooth="yes"/>
      <point x="632" y="0"/>
      <point x="750" y="150"/>
      <point x="750" y="372" type="curve" smooth="yes"/>
      <point x="750" y="441"/>
      <point x="734" y="501"/>
      <point x="709" y="559" type="curve"/>
      <point x="657" y="536" type="line"/>
      <point x="679" y="483"/>
      <point x="696" y="431"/>
      <point x="696" y="363" type="curve" smooth="yes"/>
      <point x="696" y="180"/>
      <point x="600" y="59"/>
      <point x="521" y="59" type="curve" smooth="yes"/>
      <point x="473" y="59"/>
      <point x="470" y="105"/>
      <point x="484" y="167" type="curve" smooth="yes"/>
      <point x="518" y="315" type="line" smooth="yes"/>
      <point x="552" y="464"/>
      <point x="477" y="559"/>
      <point x="332" y="559" type="curve" smooth="yes"/>
      <point x="148" y="559"/>
      <point x="25" y="361"/>
      <point x="25" y="198" type="curve" smooth="yes"/>
      <point x="25" y="67"/>
      <point x="73" y="-5"/>
    </contour>
  </outline>
</glyph>
<glyph name="va-tamil" format="2">
  <advance width="838"/>
  <unicode hex="0BB5"/>
  <note>
uni0BB5
</note>
  <anchor x="388" y="0" name="bottom"/>
  <anchor x="753" y="554" name="imatra"/>
  <anchor x="388" y="0" name="nukta"/>
  <anchor x="486" y="554" name="top"/>
  <anchor x="466" y="554" name="vedic"/>
  <outline>
    <contour>
      <point x="162" y="-5" type="curve" smooth="yes"/>
      <point x="241" y="-5"/>
      <point x="320" y="66"/>
      <point x="320" y="174" type="curve" smooth="yes"/>
      <point x="320" y="257"/>
      <point x="271" y="303"/>
      <point x="208" y="303" type="curve" smooth="yes"/>
      <point x="133" y="303"/>
      <point x="76" y="237"/>
      <point x="47" y="144" type="curve"/>
      <point x="70" y="116" type="line"/>
      <point x="92" y="193"/>
      <point x="127" y="236"/>
      <point x="175" y="236" type="curve" smooth="yes"/>
      <point x="209" y="236"/>
      <point x="234" y="209"/>
      <point x="234" y="157" type="curve" smooth="yes"/>
      <point x="234" y="98"/>
      <point x="202" y="49"/>
      <point x="150" y="49" type="curve" smooth="yes"/>
      <point x="100" y="49"/>
      <point x="75" y="102"/>
      <point x="75" y="199" type="curve" smooth="yes"/>
      <point x="75" y="331"/>
      <point x="182" y="505"/>
      <point x="326" y="505" type="curve" smooth="yes"/>
      <point x="441" y="505"/>
      <point x="470" y="416"/>
      <point x="470" y="325" type="curve" smooth="yes"/>
      <point x="470" y="223"/>
      <point x="426" y="127"/>
      <point x="359" y="40" type="curve"/>
      <point x="367" y="0" type="line"/>
      <point x="705" y="0" type="line"/>
      <point x="823" y="554" type="line"/>
      <point x="735" y="554" type="line"/>
      <point x="629" y="54" type="line"/>
      <point x="432" y="54" type="line"/>
      <point x="508" y="137"/>
      <point x="557" y="229"/>
      <point x="557" y="340" type="curve" smooth="yes"/>
      <point x="557" y="470"/>
      <point x="483" y="559"/>
      <point x="338" y="559" type="curve" smooth="yes"/>
      <point x="159" y="559"/>
      <point x="24" y="361"/>
      <point x="24" y="198" type="curve" smooth="yes"/>
      <point x="24" y="67"/>
      <point x="72" y="-5"/>
    </contour>
  </outline>
</glyph>
<glyph name="sa-tamil" format="2">
  <advance width="1017"/>
  <unicode hex="0BB8"/>
  <note>
uni0BB8
</note>
  <anchor x="447" y="0" name="bottom"/>
  <anchor x="447" y="0" name="nukta"/>
  <anchor x="555" y="554" name="top"/>
  <anchor x="563" y="554" name="vedic"/>
  <outline>
    <contour>
      <point x="380" y="0" type="line"/>
      <point x="468" y="0" type="line"/>
      <point x="558" y="426" type="line" smooth="yes"/>
      <point x="569" y="476"/>
      <point x="590" y="504"/>
      <point x="634" y="504" type="curve" smooth="yes"/>
      <point x="676" y="504"/>
      <point x="697" y="469"/>
      <point x="686" y="418" type="curve" smooth="yes"/>
      <point x="632" y="168" type="line" smooth="yes"/>
      <point x="612" y="82"/>
      <point x="633" y="0"/>
      <point x="729" y="0" type="curve" smooth="yes"/>
      <point x="868" y="0"/>
      <point x="986" y="150"/>
      <point x="986" y="372" type="curve" smooth="yes"/>
      <point x="986" y="441"/>
      <point x="970" y="501"/>
      <point x="945" y="559" type="curve"/>
      <point x="893" y="536" type="line"/>
      <point x="915" y="483"/>
      <point x="932" y="431"/>
      <point x="932" y="363" type="curve" smooth="yes"/>
      <point x="932" y="180"/>
      <point x="836" y="59"/>
      <point x="757" y="59" type="curve" smooth="yes"/>
      <point x="709" y="59"/>
      <point x="706" y="105"/>
      <point x="720" y="167" type="curve" smooth="yes"/>
      <point x="770" y="403" type="line" smooth="yes"/>
      <point x="787" y="485"/>
      <point x="751" y="559"/>
      <point x="658" y="559" type="curve" smooth="yes"/>
      <point x="582" y="559"/>
      <point x="525" y="506"/>
      <point x="509" y="433" type="curve" smooth="yes"/>
      <point x="491" y="352" type="line"/>
      <point x="454" y="352" type="line"/>
    </contour>
    <contour>
      <point x="163" y="-5" type="curve" smooth="yes"/>
      <point x="242" y="-5"/>
      <point x="321" y="66"/>
      <point x="321" y="174" type="curve" smooth="yes"/>
      <point x="321" y="257"/>
      <point x="272" y="303"/>
      <point x="209" y="303" type="curve" smooth="yes"/>
      <point x="134" y="303"/>
      <point x="77" y="237"/>
      <point x="48" y="144" type="curve"/>
      <point x="71" y="116" type="line"/>
      <point x="93" y="193"/>
      <point x="128" y="236"/>
      <point x="176" y="236" type="curve" smooth="yes"/>
      <point x="210" y="236"/>
      <point x="235" y="209"/>
      <point x="235" y="157" type="curve" smooth="yes"/>
      <point x="235" y="98"/>
      <point x="203" y="49"/>
      <point x="151" y="49" type="curve" smooth="yes"/>
      <point x="101" y="49"/>
      <point x="76" y="102"/>
      <point x="76" y="199" type="curve" smooth="yes"/>
      <point x="76" y="331"/>
      <point x="169" y="505"/>
      <point x="318" y="505" type="curve" smooth="yes"/>
      <point x="419" y="505"/>
      <point x="473" y="442"/>
      <point x="448" y="322" type="curve"/>
      <point x="501" y="327" type="line"/>
      <point x="531" y="466"/>
      <point x="458" y="559"/>
      <point x="332" y="559" type="curve" smooth="yes"/>
      <point x="148" y="559"/>
      <point x="25" y="361"/>
      <point x="25" y="198" type="curve" smooth="yes"/>
      <point x="25" y="67"/>
      <point x="73" y="-5"/>
    </contour>
  </outline>
</glyph>
<glyph name="ha-tamil" format="2">
  <advance width="1211"/>
  <unicode hex="0BB9"/>
  <note>
uni0BB9
</note>
  <anchor x="571" y="0" name="bottom"/>
  <anchor x="539" y="-152" name="nukta"/>
  <anchor x="682" y="554" name="top"/>
  <anchor x="667" y="554" name="vedic"/>
  <outline>
    <contour>
      <point x="71" y="-238" type="curve"/>
      <point x="85" y="-170"/>
      <point x="113" y="-131"/>
      <point x="186" y="-131" type="curve" smooth="yes"/>
      <point x="741" y="-131" type="line" smooth="yes"/>
      <point x="1043" y="-131"/>
      <point x="1175" y="105"/>
      <point x="1175" y="358" type="curve" smooth="yes"/>
      <point x="1175" y="481"/>
      <point x="1115" y="559"/>
      <point x="1026" y="559" type="curve" smooth="yes"/>
      <point x="962" y="559"/>
      <point x="924" y="519"/>
      <point x="899" y="482" type="curve"/>
      <point x="889" y="517"/>
      <point x="862" y="558"/>
      <point x="800" y="558" type="curve" smooth="yes"/>
      <point x="741" y="558"/>
      <point x="689" y="516"/>
      <point x="671" y="430" type="curve" smooth="yes"/>
      <point x="591" y="54" type="line"/>
      <point x="432" y="54" type="line"/>
      <point x="508" y="137"/>
      <point x="557" y="229"/>
      <point x="557" y="340" type="curve" smooth="yes"/>
      <point x="557" y="470"/>
      <point x="483" y="559"/>
      <point x="338" y="559" type="curve" smooth="yes"/>
      <point x="159" y="559"/>
      <point x="24" y="361"/>
      <point x="24" y="198" type="curve" smooth="yes"/>
      <point x="24" y="67"/>
      <point x="72" y="-5"/>
      <point x="162" y="-5" type="curve" smooth="yes"/>
      <point x="241" y="-5"/>
      <point x="320" y="66"/>
      <point x="320" y="174" type="curve" smooth="yes"/>
      <point x="320" y="257"/>
      <point x="271" y="303"/>
      <point x="208" y="303" type="curve" smooth="yes"/>
      <point x="133" y="303"/>
      <point x="76" y="237"/>
      <point x="47" y="144" type="curve"/>
      <point x="70" y="116" type="line"/>
      <point x="92" y="193"/>
      <point x="127" y="236"/>
      <point x="175" y="236" type="curve" smooth="yes"/>
      <point x="209" y="236"/>
      <point x="234" y="209"/>
      <point x="234" y="157" type="curve" smooth="yes"/>
      <point x="234" y="98"/>
      <point x="202" y="49"/>
      <point x="150" y="49" type="curve" smooth="yes"/>
      <point x="100" y="49"/>
      <point x="75" y="102"/>
      <point x="75" y="199" type="curve" smooth="yes"/>
      <point x="75" y="331"/>
      <point x="182" y="505"/>
      <point x="326" y="505" type="curve" smooth="yes"/>
      <point x="441" y="505"/>
      <point x="470" y="416"/>
      <point x="470" y="325" type="curve" smooth="yes"/>
      <point x="470" y="223"/>
      <point x="426" y="127"/>
      <point x="359" y="40" type="curve"/>
      <point x="367" y="0" type="line"/>
      <point x="634" y="0" type="line"/>
      <point x="724" y="424" type="line" smooth="yes"/>
      <point x="735" y="477"/>
      <point x="757" y="504"/>
      <point x="796" y="504" type="curve" smooth="yes"/>
      <point x="839" y="504"/>
      <point x="852" y="464"/>
      <point x="840" y="409" type="curve" smooth="yes"/>
      <point x="753" y="0" type="line"/>
      <point x="841" y="0" type="line"/>
      <point x="931" y="421" type="line" smooth="yes"/>
      <point x="943" y="476"/>
      <point x="976" y="505"/>
      <point x="1017" y="505" type="curve" smooth="yes"/>
      <point x="1066" y="505"/>
      <point x="1090" y="459"/>
      <point x="1090" y="380" type="curve" smooth="yes"/>
      <point x="1090" y="141"/>
      <point x="989" y="-80"/>
      <point x="749" y="-80" type="curve" smooth="yes"/>
      <point x="160" y="-80" type="line" smooth="yes"/>
      <point x="76" y="-80"/>
      <point x="7" y="-110"/>
      <point x="7" y="-179" type="curve" smooth="yes"/>
      <point x="7" y="-217"/>
      <point x="30" y="-238"/>
    </contour>
  </outline>
</glyph>
<glyph name="aaMatra-tamil" format="2">
  <advance width="500"/>
  <unicode hex="0BBE"/>
  <note>
uni0BBE
</note>
  <anchor x="204" y="0" name="bottom"/>
  <anchor x="203" y="0" name="nukta"/>
  <anchor x="315" y="554" name="top"/>
  <anchor x="315" y="554" name="vedic"/>
  <outline>
    <contour>
      <point x="16" y="0" type="line"/>
      <point x="72" y="0" type="line"/>
      <point x="178" y="500" type="line"/>
      <point x="320" y="500" type="line"/>
      <point x="214" y="0" type="line"/>
      <point x="302" y="0" type="line"/>
      <point x="408" y="500" type="line"/>
      <point x="525" y="500" type="line"/>
      <point x="536" y="554" type="line"/>
      <point x="133" y="554" type="line"/>
    </contour>
  </outline>
</glyph>
<glyph name="iMatra-tamil" format="2">
  <advance width="179"/>
  <unicode hex="0BBF"/>
  <note>
uni0BBF
</note>
  <outline>
    <contour>
      <point x="-4" y="0" type="line"/>
      <point x="50" y="0" type="line"/>
      <point x="174" y="579" type="line" smooth="yes"/>
      <point x="178" y="600"/>
      <point x="180" y="619"/>
      <point x="180" y="637" type="curve" smooth="yes"/>
      <point x="180" y="746"/>
      <point x="107" y="815"/>
      <point x="-12" y="815" type="curve" smooth="yes"/>
      <point x="-132" y="815"/>
      <point x="-212" y="728"/>
      <point x="-212" y="622" type="curve" smooth="yes"/>
      <point x="-212" y="555"/>
      <point x="-164" y="500"/>
      <point x="-106" y="500" type="curve" smooth="yes"/>
      <point x="-101" y="500" type="line"/>
      <point x="-89" y="554" type="line"/>
      <point x="-94" y="554" type="line" smooth="yes"/>
      <point x="-127" y="554"/>
      <point x="-154" y="580"/>
      <point x="-154" y="621" type="curve" smooth="yes"/>
      <point x="-154" y="681"/>
      <point x="-103" y="728"/>
      <point x="-22" y="728" type="curve" smooth="yes"/>
      <point x="67" y="728"/>
      <point x="119" y="680"/>
      <point x="119" y="601" type="curve" smooth="yes"/>
      <point x="119" y="587"/>
      <point x="118" y="571"/>
      <point x="114" y="555" type="curve" smooth="yes"/>
    </contour>
  </outline>
</glyph>
<glyph name="iiMatra-tamil" format="2">
  <unicode hex="0BC0"/>
  <note>
uni0BC0
</note>
  <anchor x="59" y="554" name="_imatra"/>
  <outline>
    <contour>
      <point x="35" y="505" type="curve" smooth="yes"/>
      <point x="49" y="505" type="line"/>
      <point x="59" y="554" type="line"/>
      <point x="48" y="554" type="line" smooth="yes"/>
      <point x="-6" y="554"/>
      <point x="-34" y="600"/>
      <point x="-34" y="666" type="curve" smooth="yes"/>
      <point x="-34" y="732"/>
      <point x="7" y="828"/>
      <point x="101" y="828" type="curve" smooth="yes"/>
      <point x="151" y="828"/>
      <point x="175" y="792"/>
      <point x="175" y="749" type="curve" smooth="yes"/>
      <point x="175" y="699"/>
      <point x="152" y="656"/>
      <point x="109" y="656" type="curve" smooth="yes"/>
      <point x="79" y="656"/>
      <point x="66" y="680"/>
      <point x="66" y="714" type="curve" smooth="yes"/>
      <point x="66" y="753"/>
      <point x="84" y="807"/>
      <point x="112" y="851" type="curve"/>
      <point x="72" y="855" type="line"/>
      <point x="38" y="805"/>
      <point x="20" y="751"/>
      <point x="20" y="705" type="curve" smooth="yes"/>
      <point x="20" y="646"/>
      <point x="50" y="602"/>
      <point x="115" y="602" type="curve" smooth="yes"/>
      <point x="186" y="602"/>
      <point x="250" y="660"/>
      <point x="250" y="746" type="curve" smooth="yes"/>
      <point x="250" y="831"/>
      <point x="193" y="882"/>
      <point x="107" y="882" type="curve" smooth="yes"/>
      <point x="-12" y="882"/>
      <point x="-88" y="766"/>
      <point x="-88" y="661" type="curve" smooth="yes"/>
      <point x="-88" y="567"/>
      <point x="-35" y="505"/>
    </contour>
  </outline>
</glyph>
<glyph name="eMatra-tamil" format="2">
  <advance width="631"/>
  <unicode hex="0BC6"/>
  <note>
uni0BC6
</note>
  <outline>
    <contour>
      <point x="206" y="-5" type="curve" smooth="yes"/>
      <point x="290" y="-5"/>
      <point x="365" y="66"/>
      <point x="365" y="174" type="curve" smooth="yes"/>
      <point x="365" y="257"/>
      <point x="318" y="308"/>
      <point x="251" y="308" type="curve" smooth="yes"/>
      <point x="176" y="308"/>
      <point x="120" y="234"/>
      <point x="91" y="141" type="curve"/>
      <point x="114" y="113" type="line"/>
      <point x="136" y="190"/>
      <point x="172" y="241"/>
      <point x="220" y="241" type="curve" smooth="yes"/>
      <point x="254" y="241"/>
      <point x="279" y="213"/>
      <point x="279" y="157" type="curve" smooth="yes"/>
      <point x="279" y="98"/>
      <point x="246" y="49"/>
      <point x="192" y="49" type="curve" smooth="yes"/>
      <point x="142" y="49"/>
      <point x="101" y="108"/>
      <point x="101" y="245" type="curve" smooth="yes"/>
      <point x="101" y="455"/>
      <point x="212" y="725"/>
      <point x="411" y="725" type="curve" smooth="yes"/>
      <point x="516" y="725"/>
      <point x="563" y="677"/>
      <point x="563" y="583" type="curve" smooth="yes"/>
      <point x="563" y="558"/>
      <point x="560" y="528"/>
      <point x="553" y="496" type="curve" smooth="yes"/>
      <point x="449" y="0" type="line"/>
      <point x="503" y="0" type="line"/>
      <point x="611" y="513" type="line" smooth="yes"/>
      <point x="617" y="543"/>
      <point x="620" y="572"/>
      <point x="620" y="600" type="curve" smooth="yes"/>
      <point x="620" y="724"/>
      <point x="555" y="815"/>
      <point x="426" y="815" type="curve" smooth="yes"/>
      <point x="193" y="815"/>
      <point x="52" y="497"/>
      <point x="52" y="248" type="curve" smooth="yes"/>
      <point x="52" y="77"/>
      <point x="115" y="-5"/>
    </contour>
  </outline>
</glyph>
<glyph name="eeMatra-tamil" format="2">
  <advance width="482"/>
  <unicode hex="0BC7"/>
  <note>
uni0BC7
</note>
  <outline>
    <contour>
      <point x="240" y="-5" type="curve" smooth="yes"/>
      <point x="332" y="-5"/>
      <point x="412" y="68"/>
      <point x="412" y="179" type="curve" smooth="yes"/>
      <point x="412" y="261"/>
      <point x="365" y="308"/>
      <point x="304" y="308" type="curve" smooth="yes"/>
      <point x="217" y="308"/>
      <point x="156" y="195"/>
      <point x="134" y="100" type="curve"/>
      <point x="166" y="74" type="line"/>
      <point x="183" y="152"/>
      <point x="225" y="241"/>
      <point x="273" y="241" type="curve" smooth="yes"/>
      <point x="307" y="241"/>
      <point x="326" y="216"/>
      <point x="326" y="164" type="curve" smooth="yes"/>
      <point x="326" y="104"/>
      <point x="291" y="49"/>
      <point x="231" y="49" type="curve" smooth="yes"/>
      <point x="157" y="49"/>
      <point x="115" y="150"/>
      <point x="115" y="301" type="curve" smooth="yes"/>
      <point x="115" y="483"/>
      <point x="238" y="762"/>
      <point x="375" y="762" type="curve" smooth="yes"/>
      <point x="416" y="762"/>
      <point x="441" y="735"/>
      <point x="441" y="686" type="curve" smooth="yes"/>
      <point x="441" y="630"/>
      <point x="414" y="570"/>
      <point x="359" y="570" type="curve" smooth="yes"/>
      <point x="304" y="570"/>
      <point x="299" y="675"/>
      <point x="316" y="758" type="curve"/>
      <point x="273" y="732" type="line"/>
      <point x="252" y="619"/>
      <point x="279" y="502"/>
      <point x="373" y="502" type="curve" smooth="yes"/>
      <point x="460" y="502"/>
      <point x="525" y="583"/>
      <point x="525" y="681" type="curve" smooth="yes"/>
      <point x="525" y="769"/>
      <point x="470" y="815"/>
      <point x="392" y="815" type="curve" smooth="yes"/>
      <point x="206" y="815"/>
      <point x="63" y="514"/>
      <point x="63" y="297" type="curve" smooth="yes"/>
      <point x="63" y="112"/>
      <point x="126" y="-5"/>
    </contour>
  </outline>
</glyph>
<glyph name="aiMatra-tamil" format="2">
  <advance width="964"/>
  <unicode hex="0BC8"/>
  <note>
uni0BC8
</note>
  <outline>
    <contour>
      <point x="724" y="-8" type="line"/>
      <point x="856" y="78"/>
      <point x="930" y="199"/>
      <point x="930" y="333" type="curve" smooth="yes"/>
      <point x="930" y="476"/>
      <point x="837" y="559"/>
      <point x="704" y="559" type="curve" smooth="yes"/>
      <point x="505" y="559"/>
      <point x="361" y="313"/>
      <point x="361" y="137" type="curve" smooth="yes"/>
      <point x="361" y="45"/>
      <point x="396" y="-5"/>
      <point x="470" y="-5" type="curve" smooth="yes"/>
      <point x="582" y="-5"/>
      <point x="647" y="109"/>
      <point x="647" y="235" type="curve" smooth="yes"/>
      <point x="647" y="409"/>
      <point x="559" y="559"/>
      <point x="355" y="559" type="curve" smooth="yes"/>
      <point x="173" y="559"/>
      <point x="24" y="371"/>
      <point x="24" y="198" type="curve" smooth="yes"/>
      <point x="24" y="67"/>
      <point x="72" y="-5"/>
      <point x="162" y="-5" type="curve" smooth="yes"/>
      <point x="241" y="-5"/>
      <point x="320" y="66"/>
      <point x="320" y="174" type="curve" smooth="yes"/>
      <point x="320" y="257"/>
      <point x="271" y="303"/>
      <point x="208" y="303" type="curve" smooth="yes"/>
      <point x="133" y="303"/>
      <point x="76" y="237"/>
      <point x="47" y="144" type="curve"/>
      <point x="70" y="116" type="line"/>
      <point x="92" y="193"/>
      <point x="127" y="236"/>
      <point x="175" y="236" type="curve" smooth="yes"/>
      <point x="209" y="236"/>
      <point x="234" y="209"/>
      <point x="234" y="157" type="curve" smooth="yes"/>
      <point x="234" y="98"/>
      <point x="202" y="49"/>
      <point x="150" y="49" type="curve" smooth="yes"/>
      <point x="100" y="49"/>
      <point x="75" y="102"/>
      <point x="75" y="199" type="curve" smooth="yes"/>
      <point x="75" y="341"/>
      <point x="194" y="505"/>
      <point x="350" y="505" type="curve" smooth="yes"/>
      <point x="510" y="505"/>
      <point x="559" y="359"/>
      <point x="559" y="228" type="curve" smooth="yes"/>
      <point x="559" y="132"/>
      <point x="524" y="49"/>
      <point x="461" y="49" type="curve" smooth="yes"/>
      <point x="428" y="49"/>
      <point x="414" y="80"/>
      <point x="414" y="144" type="curve" smooth="yes"/>
      <point x="414" y="282"/>
      <point x="535" y="505"/>
      <point x="696" y="505" type="curve" smooth="yes"/>
      <point x="794" y="505"/>
      <point x="843" y="442"/>
      <point x="843" y="337" type="curve" smooth="yes"/>
      <point x="843" y="216"/>
      <point x="792" y="116"/>
      <point x="698" y="27" type="curve"/>
    </contour>
  </outline>
</glyph>
<glyph name="halant-tamil" format="2">
  <unicode hex="0BCD"/>
  <note>
uni0BCD
</note>
  <anchor x="59" y="554" name="_top"/>
  <anchor x="85" y="674" name="top"/>
  <outline>
    <contour>
      <point x="86" y="625" type="curve" smooth="yes"/>
      <point x="117" y="625"/>
      <point x="142" y="650"/>
      <point x="142" y="679" type="curve" smooth="yes"/>
      <point x="142" y="708"/>
      <point x="117" y="734"/>
      <point x="86" y="734" type="curve" smooth="yes"/>
      <point x="55" y="734"/>
      <point x="30" y="708"/>
      <point x="30" y="679" type="curve" smooth="yes"/>
      <point x="30" y="650"/>
      <point x="55" y="625"/>
    </contour>
  </outline>
</glyph>
<glyph name="om-tamil" format="2">
  <advance width="739"/>
  <unicode hex="0BD0"/>
  <note>
uni0BD0
</note>
  <outline>
    <contour>
      <point x="141" y="-345" type="curve" smooth="yes"/>
      <point x="318" y="-345"/>
      <point x="385" y="-135"/>
      <point x="517" y="-135" type="curve" smooth="yes"/>
      <point x="539" y="-135" type="line"/>
      <point x="551" y="-81" type="line"/>
      <point x="519" y="-81" type="line" smooth="yes"/>
      <point x="428" y="-81"/>
      <point x="379" y="-27"/>
      <point x="379" y="47" type="curve" smooth="yes"/>
      <point x="379" y="89"/>
      <point x="395" y="138"/>
      <point x="428" y="187" type="curve"/>
      <point x="433" y="184" type="line"/>
      <point x="418" y="148"/>
      <point x="409" y="113"/>
      <point x="409" y="83" type="curve" smooth="yes"/>
      <point x="409" y="31"/>
      <point x="435" y="-5"/>
      <point x="497" y="-5" type="curve" smooth="yes"/>
      <point x="605" y="-5"/>
      <point x="689" y="109"/>
      <point x="689" y="263" type="curve" smooth="yes"/>
      <point x="689" y="446"/>
      <point x="564" y="559"/>
      <point x="388" y="559" type="curve" smooth="yes"/>
      <point x="193" y="559"/>
      <point x="28" y="405"/>
      <point x="28" y="213" type="curve" smooth="yes"/>
      <point x="28" y="82"/>
      <point x="76" y="5"/>
      <point x="164" y="5" type="curve" smooth="yes"/>
      <point x="244" y="5"/>
      <point x="318" y="76"/>
      <point x="318" y="184" type="curve" smooth="yes"/>
      <point x="318" y="267"/>
      <point x="272" y="313"/>
      <point x="209" y="313" type="curve" smooth="yes"/>
      <point x="134" y="313"/>
      <point x="80" y="247"/>
      <point x="51" y="154" type="curve"/>
      <point x="74" y="126" type="line"/>
      <point x="96" y="203"/>
      <point x="128" y="246"/>
      <point x="176" y="246" type="curve" smooth="yes"/>
      <point x="210" y="246"/>
      <point x="232" y="219"/>
      <point x="232" y="167" type="curve" smooth="yes"/>
      <point x="232" y="108"/>
      <point x="203" y="59"/>
      <point x="152" y="59" type="curve" smooth="yes"/>
      <point x="104" y="59"/>
      <point x="79" y="117"/>
      <point x="79" y="214" type="curve" smooth="yes"/>
      <point x="79" y="375"/>
      <point x="217" y="505"/>
      <point x="375" y="505" type="curve" smooth="yes"/>
      <point x="511" y="505"/>
      <point x="604" y="409"/>
      <point x="604" y="265" type="curve" smooth="yes"/>
      <point x="604" y="158"/>
      <point x="565" y="49"/>
      <point x="491" y="49" type="curve" smooth="yes"/>
      <point x="463" y="49"/>
      <point x="452" y="68"/>
      <point x="452" y="96" type="curve" smooth="yes"/>
      <point x="452" y="137"/>
      <point x="475" y="197"/>
      <point x="502" y="249" type="curve"/>
      <point x="446" y="278" type="line"/>
      <point x="383" y="199"/>
      <point x="338" y="109"/>
      <point x="338" y="33" type="curve" smooth="yes"/>
      <point x="338" y="-25"/>
      <point x="364" y="-74"/>
      <point x="427" y="-103" type="curve"/>
      <point x="426" y="-108" type="line"/>
      <point x="321" y="-129"/>
      <point x="275" y="-285"/>
      <point x="135" y="-285" type="curve" smooth="yes"/>
      <point x="75" y="-285"/>
      <point x="35" y="-255"/>
      <point x="35" y="-204" type="curve" smooth="yes"/>
      <point x="35" y="-192"/>
      <point x="37" y="-179"/>
      <point x="42" y="-164" type="curve"/>
      <point x="-5" y="-157" type="line"/>
      <point x="-12" y="-178"/>
      <point x="-15" y="-197"/>
      <point x="-15" y="-215" type="curve" smooth="yes"/>
      <point x="-15" y="-296"/>
      <point x="55" y="-345"/>
    </contour>
    <contour>
      <point x="66" y="-222" type="line"/>
      <point x="104" y="-222" type="line"/>
      <point x="136" y="-70" type="line"/>
      <point x="98" y="-70" type="line"/>
    </contour>
    <contour>
      <point x="78" y="-222" type="line"/>
      <point x="225" y="-222" type="line"/>
      <point x="233" y="-184" type="line"/>
      <point x="86" y="-184" type="line"/>
    </contour>
    <contour>
      <point x="134" y="-222" type="line"/>
      <point x="170" y="-222" type="line"/>
      <point x="191" y="-125" type="line" smooth="yes"/>
      <point x="194" y="-112"/>
      <point x="199" y="-106"/>
      <point x="209" y="-106" type="curve" smooth="yes"/>
      <point x="222" y="-106"/>
      <point x="225" y="-118"/>
      <point x="222" y="-132" type="curve" smooth="yes"/>
      <point x="203" y="-222" type="line"/>
      <point x="243" y="-222" type="line"/>
      <point x="261" y="-135" type="line" smooth="yes"/>
      <point x="268" y="-94"/>
      <point x="253" y="-67"/>
      <point x="215" y="-67" type="curve" smooth="yes"/>
      <point x="184" y="-67"/>
      <point x="163" y="-88"/>
      <point x="154" y="-128" type="curve" smooth="yes"/>
    </contour>
    <contour>
      <point x="190" y="-61" type="curve" smooth="yes"/>
      <point x="206" y="-61"/>
      <point x="219" y="-48"/>
      <point x="219" y="-33" type="curve" smooth="yes"/>
      <point x="219" y="-19"/>
      <point x="206" y="-6"/>
      <point x="190" y="-6" type="curve" smooth="yes"/>
      <point x="174" y="-6"/>
      <point x="161" y="-19"/>
      <point x="161" y="-33" type="curve" smooth="yes"/>
      <point x="161" y="-48"/>
      <point x="174" y="-61"/>
    </contour>
  </outline>
</glyph>
<glyph name="zero-tamil" format="2">
  <advance width="466"/>
  <unicode hex="0BE6"/>
  <note>
uni0BE6
</note>
  <outline>
    <contour>
      <point x="181" y="-5" type="curve" smooth="yes"/>
      <point x="330" y="-5"/>
      <point x="433" y="171"/>
      <point x="433" y="353" type="curve" smooth="yes"/>
      <point x="433" y="488"/>
      <point x="374" y="559"/>
      <point x="273" y="559" type="curve" smooth="yes"/>
      <point x="122" y="559"/>
      <point x="32" y="351"/>
      <point x="32" y="191" type="curve" smooth="yes"/>
      <point x="32" y="74"/>
      <point x="91" y="-5"/>
    </contour>
    <contour>
      <point x="176" y="61" type="curve" smooth="yes"/>
      <point x="113" y="61"/>
      <point x="90" y="117"/>
      <point x="90" y="194" type="curve" smooth="yes"/>
      <point x="90" y="310"/>
      <point x="148" y="494"/>
      <point x="256" y="494" type="curve" smooth="yes"/>
      <point x="316" y="494"/>
      <point x="345" y="447"/>
      <point x="345" y="359" type="curve" smooth="yes"/>
      <point x="345" y="232"/>
      <point x="285" y="61"/>
    </contour>
  </outline>
</glyph>
<glyph name="one-tamil" format="2">
  <advance width="635"/>
  <unicode hex="0BE7"/>
  <note>
uni0BE7
</note>
  <outline>
    <contour>
      <point x="164" y="-4" type="curve" smooth="yes"/>
      <point x="273" y="-4"/>
      <point x="329" y="62"/>
      <point x="355" y="186" type="curve" smooth="yes"/>
      <point x="371" y="263" type="line"/>
      <point x="409" y="263" type="line" smooth="yes"/>
      <point x="452" y="263"/>
      <point x="476" y="230"/>
      <point x="476" y="179" type="curve" smooth="yes"/>
      <point x="476" y="114"/>
      <point x="445" y="51"/>
      <point x="380" y="51" type="curve" smooth="yes"/>
      <point x="346" y="51"/>
      <point x="326" y="68"/>
      <point x="311" y="100" type="curve"/>
      <point x="274" y="60" type="line"/>
      <point x="297" y="20"/>
      <point x="333" y="-5"/>
      <point x="387" y="-5" type="curve" smooth="yes"/>
      <point x="495" y="-5"/>
      <point x="567" y="72"/>
      <point x="567" y="179" type="curve" smooth="yes"/>
      <point x="567" y="268"/>
      <point x="514" y="317"/>
      <point x="421" y="317" type="curve" smooth="yes"/>
      <point x="383" y="317" type="line"/>
      <point x="422" y="500" type="line"/>
      <point x="535" y="500" type="line"/>
      <point x="547" y="554" type="line"/>
      <point x="191" y="554" type="line"/>
      <point x="134" y="286" type="line"/>
      <point x="188" y="286" type="line"/>
      <point x="233" y="500" type="line"/>
      <point x="333" y="500" type="line"/>
      <point x="295" y="317" type="line"/>
      <point x="178" y="317" type="line" smooth="yes"/>
      <point x="78" y="317"/>
      <point x="16" y="229"/>
      <point x="16" y="138" type="curve" smooth="yes"/>
      <point x="16" y="60"/>
      <point x="74" y="-4"/>
    </contour>
    <contour>
      <point x="158" y="49" type="curve" smooth="yes"/>
      <point x="105" y="49"/>
      <point x="73" y="91"/>
      <point x="73" y="143" type="curve" smooth="yes"/>
      <point x="73" y="207"/>
      <point x="103" y="263"/>
      <point x="172" y="263" type="curve" smooth="yes"/>
      <point x="283" y="263" type="line"/>
      <point x="264" y="175" type="line" smooth="yes"/>
      <point x="244" y="82"/>
      <point x="213" y="49"/>
    </contour>
  </outline>
</glyph>
<glyph name="two-tamil" format="2">
  <advance width="696"/>
  <unicode hex="0BE8"/>
  <note>
uni0BE8
</note>
  <outline>
    <contour>
      <point x="82" y="0" type="curve" smooth="yes"/>
      <point x="615" y="0" type="line"/>
      <point x="626" y="54" type="line"/>
      <point x="89" y="54" type="line" smooth="yes"/>
      <point x="67" y="54"/>
      <point x="51" y="71"/>
      <point x="51" y="91" type="curve" smooth="yes"/>
      <point x="51" y="122"/>
      <point x="75" y="135"/>
      <point x="93" y="135" type="curve" smooth="yes"/>
      <point x="261" y="135" type="line" smooth="yes"/>
      <point x="391" y="135"/>
      <point x="509" y="220"/>
      <point x="509" y="370" type="curve" smooth="yes"/>
      <point x="509" y="492"/>
      <point x="429" y="559"/>
      <point x="321" y="559" type="curve" smooth="yes"/>
      <point x="180" y="559"/>
      <point x="94" y="435"/>
      <point x="94" y="317" type="curve" smooth="yes"/>
      <point x="94" y="206"/>
      <point x="162" y="149"/>
      <point x="250" y="149" type="curve"/>
      <point x="259" y="188" type="line"/>
      <point x="189" y="188"/>
      <point x="151" y="241"/>
      <point x="151" y="316" type="curve" smooth="yes"/>
      <point x="151" y="404"/>
      <point x="203" y="505"/>
      <point x="307" y="505" type="curve" smooth="yes"/>
      <point x="376" y="505"/>
      <point x="422" y="460"/>
      <point x="422" y="380" type="curve" smooth="yes"/>
      <point x="422" y="268"/>
      <point x="360" y="188"/>
      <point x="259" y="188" type="curve" smooth="yes"/>
      <point x="98" y="188" type="line" smooth="yes"/>
      <point x="39" y="188"/>
      <point x="-2" y="144"/>
      <point x="-2" y="85" type="curve" smooth="yes"/>
      <point x="-2" y="41"/>
      <point x="27" y="0"/>
    </contour>
  </outline>
</glyph>
<glyph name="three-tamil" format="2">
  <advance width="660"/>
  <unicode hex="0BE9"/>
  <note>
uni0BE9
</note>
  <outline>
    <contour>
      <point x="16" y="0" type="line"/>
      <point x="74" y="0" type="line"/>
      <point x="180" y="500" type="line"/>
      <point x="286" y="500" type="line"/>
      <point x="221" y="196" type="line"/>
      <point x="305" y="196" type="line"/>
      <point x="316" y="245" type="line" smooth="yes"/>
      <point x="326" y="290"/>
      <point x="350" y="313"/>
      <point x="373" y="313" type="curve" smooth="yes"/>
      <point x="403" y="313"/>
      <point x="418" y="293"/>
      <point x="418" y="250" type="curve" smooth="yes"/>
      <point x="418" y="150"/>
      <point x="351" y="54"/>
      <point x="272" y="54" type="curve" smooth="yes"/>
      <point x="191" y="54" type="line"/>
      <point x="179" y="0" type="line"/>
      <point x="577" y="0" type="line"/>
      <point x="589" y="54" type="line"/>
      <point x="367" y="54" type="line"/>
      <point x="441" y="88"/>
      <point x="506" y="164"/>
      <point x="506" y="268" type="curve" smooth="yes"/>
      <point x="506" y="344"/>
      <point x="468" y="379"/>
      <point x="417" y="379" type="curve" smooth="yes"/>
      <point x="377" y="379"/>
      <point x="351" y="353"/>
      <point x="337" y="333" type="curve"/>
      <point x="372" y="500" type="line"/>
      <point x="471" y="500" type="line"/>
      <point x="482" y="554" type="line"/>
      <point x="133" y="554" type="line"/>
    </contour>
  </outline>
</glyph>
<glyph name="five-tamil" format="2">
  <advance width="830"/>
  <unicode hex="0BEB"/>
  <note>
uni0BEB
</note>
  <outline>
    <contour>
      <point x="292" y="-296" type="curve" smooth="yes"/>
      <point x="516" y="-296"/>
      <point x="706" y="-63"/>
      <point x="706" y="204" type="curve" smooth="yes"/>
      <point x="706" y="285"/>
      <point x="671" y="345"/>
      <point x="600" y="345" type="curve" smooth="yes"/>
      <point x="534" y="345"/>
      <point x="493" y="290"/>
      <point x="477" y="203" type="curve" smooth="yes"/>
      <point x="472" y="175" type="line"/>
      <point x="493" y="175" type="line"/>
      <point x="498" y="200" type="line" smooth="yes"/>
      <point x="509" y="254"/>
      <point x="527" y="286"/>
      <point x="563" y="286" type="curve" smooth="yes"/>
      <point x="599" y="286"/>
      <point x="615" y="255"/>
      <point x="615" y="196" type="curve" smooth="yes"/>
      <point x="615" y="-32"/>
      <point x="493" y="-243"/>
      <point x="293" y="-243" type="curve" smooth="yes"/>
      <point x="145" y="-243"/>
      <point x="75" y="-125"/>
      <point x="75" y="101" type="curve" smooth="yes"/>
      <point x="75" y="398"/>
      <point x="218" y="739"/>
      <point x="489" y="739" type="curve" smooth="yes"/>
      <point x="678" y="739"/>
      <point x="773" y="597"/>
      <point x="743" y="396" type="curve"/>
      <point x="800" y="396" type="line"/>
      <point x="832" y="640"/>
      <point x="723" y="829"/>
      <point x="499" y="829" type="curve" smooth="yes"/>
      <point x="191" y="829"/>
      <point x="21" y="432"/>
      <point x="21" y="104" type="curve" smooth="yes"/>
      <point x="21" y="-153"/>
      <point x="110" y="-296"/>
    </contour>
    <contour>
      <point x="193" y="0" type="line"/>
      <point x="247" y="0" type="line"/>
      <point x="353" y="500" type="line"/>
      <point x="474" y="500" type="line"/>
      <point x="368" y="0" type="line"/>
      <point x="456" y="0" type="line"/>
      <point x="562" y="500" type="line"/>
      <point x="665" y="500" type="line"/>
      <point x="676" y="554" type="line"/>
      <point x="311" y="554" type="line"/>
    </contour>
  </outline>
</glyph>
<glyph name="six-tamil" format="2">
  <advance width="835"/>
  <unicode hex="0BEC"/>
  <note>
uni0BEC
</note>
  <outline>
    <contour>
      <point x="164" y="-4" type="curve" smooth="yes"/>
      <point x="273" y="-4"/>
      <point x="329" y="62"/>
      <point x="355" y="186" type="curve" smooth="yes"/>
      <point x="371" y="263" type="line"/>
      <point x="427" y="263" type="line" smooth="yes"/>
      <point x="452" y="263"/>
      <point x="466" y="250"/>
      <point x="459" y="218" type="curve" smooth="yes"/>
      <point x="412" y="0" type="line"/>
      <point x="495" y="0" type="line"/>
      <point x="540" y="214" type="line" smooth="yes"/>
      <point x="547" y="246"/>
      <point x="559" y="263"/>
      <point x="590" y="263" type="curve" smooth="yes"/>
      <point x="789" y="263" type="line"/>
      <point x="800" y="317" type="line"/>
      <point x="590" y="317" type="line" smooth="yes"/>
      <point x="550" y="317"/>
      <point x="521" y="299"/>
      <point x="507" y="266" type="curve"/>
      <point x="503" y="299"/>
      <point x="482" y="317"/>
      <point x="442" y="317" type="curve" smooth="yes"/>
      <point x="383" y="317" type="line"/>
      <point x="422" y="500" type="line"/>
      <point x="535" y="500" type="line"/>
      <point x="547" y="554" type="line"/>
      <point x="191" y="554" type="line"/>
      <point x="134" y="286" type="line"/>
      <point x="188" y="286" type="line"/>
      <point x="233" y="500" type="line"/>
      <point x="333" y="500" type="line"/>
      <point x="295" y="317" type="line"/>
      <point x="178" y="317" type="line" smooth="yes"/>
      <point x="78" y="317"/>
      <point x="16" y="229"/>
      <point x="16" y="138" type="curve" smooth="yes"/>
      <point x="16" y="60"/>
      <point x="74" y="-4"/>
    </contour>
    <contour>
      <point x="158" y="49" type="curve" smooth="yes"/>
      <point x="105" y="49"/>
      <point x="73" y="91"/>
      <point x="73" y="143" type="curve" smooth="yes"/>
      <point x="73" y="207"/>
      <point x="103" y="263"/>
      <point x="172" y="263" type="curve" smooth="yes"/>
      <point x="283" y="263" type="line"/>
      <point x="264" y="175" type="line" smooth="yes"/>
      <point x="244" y="82"/>
      <point x="213" y="49"/>
    </contour>
    <contour>
      <point x="588" y="0" type="line"/>
      <point x="671" y="0" type="line"/>
      <point x="732" y="288" type="line"/>
      <point x="649" y="288" type="line"/>
    </contour>
  </outline>
</glyph>
<glyph name="eight-tamil" format="2">
  <advance width="959"/>
  <unicode hex="0BEE"/>
  <note>
uni0BEE
</note>
  <outline>
    <contour>
      <point x="699" y="-184" type="line"/>
      <point x="787" y="-184" type="line"/>
      <point x="944" y="554" type="line"/>
      <point x="856" y="554" type="line"/>
      <point x="774" y="171" type="line"/>
      <point x="71" y="171" type="line" smooth="yes"/>
      <point x="17" y="171"/>
      <point x="-7" y="134"/>
      <point x="-7" y="83" type="curve" smooth="yes"/>
      <point x="-7" y="-7"/>
      <point x="87" y="-122"/>
      <point x="250" y="-122" type="curve" smooth="yes"/>
      <point x="508" y="-122"/>
      <point x="695" y="70"/>
      <point x="695" y="324" type="curve" smooth="yes"/>
      <point x="695" y="480"/>
      <point x="619" y="559"/>
      <point x="506" y="559" type="curve" smooth="yes"/>
      <point x="366" y="559"/>
      <point x="282" y="424"/>
      <point x="282" y="287" type="curve" smooth="yes"/>
      <point x="282" y="225"/>
      <point x="292" y="177"/>
      <point x="308" y="138" type="curve"/>
      <point x="361" y="138" type="line"/>
      <point x="341" y="181"/>
      <point x="331" y="229"/>
      <point x="331" y="292" type="curve" smooth="yes"/>
      <point x="331" y="392"/>
      <point x="385" y="505"/>
      <point x="487" y="505" type="curve" smooth="yes"/>
      <point x="563" y="505"/>
      <point x="606" y="447"/>
      <point x="606" y="323" type="curve" smooth="yes"/>
      <point x="606" y="126"/>
      <point x="470" y="-68"/>
      <point x="255" y="-68" type="curve" smooth="yes"/>
      <point x="117" y="-68"/>
      <point x="46" y="23"/>
      <point x="46" y="85" type="curve" smooth="yes"/>
      <point x="46" y="107"/>
      <point x="57" y="117"/>
      <point x="76" y="117" type="curve" smooth="yes"/>
      <point x="763" y="117" type="line"/>
    </contour>
  </outline>
</glyph>
<glyph name="nine-tamil" format="2">
  <advance width="910"/>
  <unicode hex="0BEF"/>
  <note>
uni0BEF
</note>
  <outline>
    <contour>
      <point x="707" y="-18" type="line"/>
      <point x="810" y="51"/>
      <point x="860" y="132"/>
      <point x="860" y="243" type="curve" smooth="yes"/>
      <point x="860" y="363"/>
      <point x="777" y="423"/>
      <point x="669" y="423" type="curve" smooth="yes"/>
      <point x="514" y="423"/>
      <point x="412" y="269"/>
      <point x="412" y="123" type="curve" smooth="yes"/>
      <point x="412" y="52"/>
      <point x="445" y="-5"/>
      <point x="521" y="-5" type="curve" smooth="yes"/>
      <point x="612" y="-5"/>
      <point x="677" y="71"/>
      <point x="677" y="169" type="curve" smooth="yes"/>
      <point x="677" y="263"/>
      <point x="613" y="317"/>
      <point x="507" y="317" type="curve" smooth="yes"/>
      <point x="383" y="317" type="line"/>
      <point x="422" y="500" type="line"/>
      <point x="535" y="500" type="line"/>
      <point x="547" y="554" type="line"/>
      <point x="191" y="554" type="line"/>
      <point x="134" y="286" type="line"/>
      <point x="188" y="286" type="line"/>
      <point x="233" y="500" type="line"/>
      <point x="333" y="500" type="line"/>
      <point x="295" y="317" type="line"/>
      <point x="178" y="317" type="line" smooth="yes"/>
      <point x="78" y="317"/>
      <point x="16" y="229"/>
      <point x="16" y="138" type="curve" smooth="yes"/>
      <point x="16" y="60"/>
      <point x="74" y="-4"/>
      <point x="164" y="-4" type="curve" smooth="yes"/>
      <point x="273" y="-4"/>
      <point x="329" y="62"/>
      <point x="355" y="186" type="curve" smooth="yes"/>
      <point x="371" y="263" type="line"/>
      <point x="490" y="263" type="line" smooth="yes"/>
      <point x="554" y="263"/>
      <point x="589" y="227"/>
      <point x="589" y="161" type="curve" smooth="yes"/>
      <point x="589" y="105"/>
      <point x="561" y="49"/>
      <point x="513" y="49" type="curve" smooth="yes"/>
      <point x="482" y="49"/>
      <point x="464" y="82"/>
      <point x="464" y="128" type="curve" smooth="yes"/>
      <point x="464" y="232"/>
      <point x="538" y="370"/>
      <point x="649" y="370" type="curve" smooth="yes"/>
      <point x="722" y="370"/>
      <point x="773" y="324"/>
      <point x="773" y="235" type="curve" smooth="yes"/>
      <point x="773" y="156"/>
      <point x="742" y="72"/>
      <point x="684" y="16" type="curve"/>
    </contour>
    <contour>
      <point x="158" y="49" type="curve" smooth="yes"/>
      <point x="105" y="49"/>
      <point x="73" y="91"/>
      <point x="73" y="143" type="curve" smooth="yes"/>
      <point x="73" y="207"/>
      <point x="103" y="263"/>
      <point x="172" y="263" type="curve" smooth="yes"/>
      <point x="283" y="263" type="line"/>
      <point x="264" y="175" type="line" smooth="yes"/>
      <point x="244" y="82"/>
      <point x="213" y="49"/>
    </contour>
  </outline>
</glyph>
<glyph name="onehundred-tamil" format="2">
  <advance width="671"/>
  <unicode hex="0BF1"/>
  <note>
uni0BF1
</note>
  <outline>
    <contour>
      <point x="173" y="0" type="line"/>
      <point x="227" y="0" type="line"/>
      <point x="334" y="500" type="line"/>
      <point x="477" y="500" type="line"/>
      <point x="370" y="0" type="line"/>
      <point x="458" y="0" type="line"/>
      <point x="564" y="500" type="line"/>
      <point x="678" y="500" type="line"/>
      <point x="689" y="554" type="line"/>
      <point x="291" y="554" type="line"/>
    </contour>
    <contour>
      <point x="5" y="0" type="line"/>
      <point x="61" y="0" type="line"/>
      <point x="153" y="432" type="line" smooth="yes"/>
      <point x="163" y="479"/>
      <point x="183" y="505"/>
      <point x="220" y="505" type="curve" smooth="yes"/>
      <point x="256" y="505"/>
      <point x="275" y="477"/>
      <point x="262" y="414" type="curve"/>
      <point x="288" y="414" type="line"/>
      <point x="307" y="502"/>
      <point x="272" y="559"/>
      <point x="209" y="559" type="curve" smooth="yes"/>
      <point x="152" y="559"/>
      <point x="115" y="514"/>
      <point x="99" y="439" type="curve" smooth="yes"/>
    </contour>
  </outline>
</glyph>
<glyph name="day-tamil" format="2">
  <advance width="656"/>
  <unicode hex="0BF3"/>
  <note>
uni0BF3
</note>
  <outline>
    <contour>
      <point x="153" y="-5" type="curve" smooth="yes"/>
      <point x="230" y="-5"/>
      <point x="306" y="68"/>
      <point x="306" y="176" type="curve" smooth="yes"/>
      <point x="306" y="259"/>
      <point x="260" y="303"/>
      <point x="198" y="303" type="curve" smooth="yes"/>
      <point x="126" y="303"/>
      <point x="74" y="237"/>
      <point x="45" y="144" type="curve"/>
      <point x="68" y="116" type="line"/>
      <point x="90" y="193"/>
      <point x="120" y="236"/>
      <point x="165" y="236" type="curve" smooth="yes"/>
      <point x="200" y="236"/>
      <point x="220" y="212"/>
      <point x="220" y="160" type="curve" smooth="yes"/>
      <point x="220" y="101"/>
      <point x="187" y="49"/>
      <point x="138" y="49" type="curve" smooth="yes"/>
      <point x="92" y="49"/>
      <point x="75" y="98"/>
      <point x="75" y="191" type="curve" smooth="yes"/>
      <point x="75" y="323"/>
      <point x="174" y="505"/>
      <point x="314" y="505" type="curve" smooth="yes"/>
      <point x="421" y="505"/>
      <point x="446" y="420"/>
      <point x="446" y="329" type="curve" smooth="yes"/>
      <point x="446" y="230"/>
      <point x="402" y="127"/>
      <point x="335" y="40" type="curve"/>
      <point x="343" y="0" type="line"/>
      <point x="588" y="0" type="line"/>
      <point x="599" y="54" type="line"/>
      <point x="408" y="54" type="line"/>
      <point x="483" y="137"/>
      <point x="533" y="236"/>
      <point x="533" y="344" type="curve" smooth="yes"/>
      <point x="533" y="474"/>
      <point x="463" y="559"/>
      <point x="326" y="559" type="curve" smooth="yes"/>
      <point x="151" y="559"/>
      <point x="24" y="353"/>
      <point x="24" y="190" type="curve" smooth="yes"/>
      <point x="24" y="61"/>
      <point x="64" y="-5"/>
    </contour>
  </outline>
</glyph>
<glyph name="month-tamil" format="2">
  <advance width="835"/>
  <unicode hex="0BF4"/>
  <note>
uni0BF4
</note>
  <anchor x="280" y="0" name="bottom"/>
  <anchor x="658" y="554" name="imatra"/>
  <anchor x="281" y="0" name="nukta"/>
  <anchor x="430" y="554" name="top"/>
  <anchor x="410" y="554" name="vedic"/>
  <outline>
    <contour>
      <point x="574" y="468" type="curve"/>
      <point x="600" y="491" type="line"/>
      <point x="581" y="527"/>
      <point x="572" y="563"/>
      <point x="572" y="608" type="curve" smooth="yes"/>
      <point x="572" y="687"/>
      <point x="612" y="786"/>
      <point x="698" y="786" type="curve" smooth="yes"/>
      <point x="745" y="786"/>
      <point x="768" y="753"/>
      <point x="768" y="704" type="curve" smooth="yes"/>
      <point x="768" y="665"/>
      <point x="751" y="620"/>
      <point x="710" y="620" type="curve" smooth="yes"/>
      <point x="686" y="620"/>
      <point x="674" y="647"/>
      <point x="674" y="684" type="curve" smooth="yes"/>
      <point x="674" y="782"/>
      <point x="737" y="887"/>
      <point x="826" y="887" type="curve" smooth="yes"/>
      <point x="881" y="887"/>
      <point x="912" y="850"/>
      <point x="898" y="784" type="curve" smooth="yes"/>
      <point x="852" y="571" type="line"/>
      <point x="925" y="571" type="line"/>
      <point x="973" y="796" type="line" smooth="yes"/>
      <point x="987" y="862"/>
      <point x="1012" y="896"/>
      <point x="1053" y="892" type="curve"/>
      <point x="1062" y="936" type="line"/>
      <point x="1007" y="940"/>
      <point x="965" y="894"/>
      <point x="948" y="846" type="curve"/>
      <point x="945" y="846" type="line"/>
      <point x="937" y="906"/>
      <point x="891" y="936"/>
      <point x="832" y="936" type="curve" smooth="yes"/>
      <point x="716" y="936"/>
      <point x="628" y="807"/>
      <point x="628" y="675" type="curve" smooth="yes"/>
      <point x="628" y="612"/>
      <point x="659" y="566"/>
      <point x="714" y="566" type="curve" smooth="yes"/>
      <point x="785" y="566"/>
      <point x="834" y="627"/>
      <point x="834" y="712" type="curve" smooth="yes"/>
      <point x="834" y="792"/>
      <point x="784" y="837"/>
      <point x="707" y="837" type="curve" smooth="yes"/>
      <point x="594" y="837"/>
      <point x="527" y="716"/>
      <point x="527" y="617" type="curve" smooth="yes"/>
      <point x="527" y="562"/>
      <point x="542" y="517"/>
    </contour>
    <component base="ma-tamil"/>
  </outline>
</glyph>
<glyph name="year-tamil" format="2">
  <advance width="1604"/>
  <unicode hex="0BF5"/>
  <note>
uni0BF5
</note>
  <anchor x="561" y="0" name="bottom"/>
  <anchor x="1043" y="554" name="imatra"/>
  <anchor x="566" y="0" name="nukta"/>
  <anchor x="727" y="554" name="top"/>
  <anchor x="693" y="554" name="vedic"/>
  <outline>
    <contour>
      <point x="525" y="-254" type="curve" smooth="yes"/>
      <point x="840" y="-254"/>
      <point x="1138" y="-76"/>
      <point x="1138" y="213" type="curve" smooth="yes"/>
      <point x="1138" y="292"/>
      <point x="1102" y="345"/>
      <point x="1039" y="345" type="curve" smooth="yes"/>
      <point x="972" y="345"/>
      <point x="920" y="291"/>
      <point x="900" y="195" type="curve" smooth="yes"/>
      <point x="890" y="148" type="line"/>
      <point x="913" y="148" type="line"/>
      <point x="923" y="193" type="line" smooth="yes"/>
      <point x="934" y="241"/>
      <point x="957" y="282"/>
      <point x="996" y="282" type="curve" smooth="yes"/>
      <point x="1028" y="282"/>
      <point x="1045" y="254"/>
      <point x="1045" y="213" type="curve" smooth="yes"/>
      <point x="1045" y="-49"/>
      <point x="805" y="-200"/>
      <point x="530" y="-200" type="curve" smooth="yes"/>
      <point x="281" y="-200"/>
      <point x="86" y="-76"/>
      <point x="86" y="192" type="curve" smooth="yes"/>
      <point x="86" y="536"/>
      <point x="362" y="775"/>
      <point x="744" y="775" type="curve" smooth="yes"/>
      <point x="1068" y="775"/>
      <point x="1319" y="604"/>
      <point x="1246" y="298" type="curve" smooth="yes"/>
      <point x="1215" y="168" type="line" smooth="yes"/>
      <point x="1194" y="82"/>
      <point x="1216" y="0"/>
      <point x="1312" y="0" type="curve" smooth="yes"/>
      <point x="1451" y="0"/>
      <point x="1569" y="150"/>
      <point x="1569" y="372" type="curve" smooth="yes"/>
      <point x="1569" y="441"/>
      <point x="1553" y="499"/>
      <point x="1528" y="557" type="curve"/>
      <point x="1476" y="534" type="line"/>
      <point x="1498" y="481"/>
      <point x="1515" y="431"/>
      <point x="1515" y="363" type="curve" smooth="yes"/>
      <point x="1515" y="180"/>
      <point x="1419" y="59"/>
      <point x="1340" y="59" type="curve" smooth="yes"/>
      <point x="1292" y="59"/>
      <point x="1288" y="105"/>
      <point x="1303" y="167" type="curve" smooth="yes"/>
      <point x="1334" y="299" type="line" smooth="yes"/>
      <point x="1414" y="638"/>
      <point x="1121" y="829"/>
      <point x="749" y="829" type="curve" smooth="yes"/>
      <point x="329" y="829"/>
      <point x="33" y="569"/>
      <point x="33" y="185" type="curve" smooth="yes"/>
      <point x="33" y="-107"/>
      <point x="250" y="-254"/>
    </contour>
    <component base="lla-tamil" xOffset="165"/>
  </outline>
</glyph>
<glyph name="asabove-tamil" format="2">
  <advance width="1413"/>
  <unicode hex="0BF8"/>
  <note>
uni0BF8
</note>
  <outline>
    <contour>
      <point x="485" y="-5" type="curve" smooth="yes"/>
      <point x="632" y="-5"/>
      <point x="702" y="174"/>
      <point x="702" y="330" type="curve" smooth="yes"/>
      <point x="702" y="526"/>
      <point x="606" y="657"/>
      <point x="418" y="657" type="curve" smooth="yes"/>
      <point x="227" y="657"/>
      <point x="29" y="461"/>
      <point x="29" y="198" type="curve" smooth="yes"/>
      <point x="29" y="67"/>
      <point x="77" y="-5"/>
      <point x="167" y="-5" type="curve" smooth="yes"/>
      <point x="248" y="-5"/>
      <point x="325" y="66"/>
      <point x="325" y="174" type="curve" smooth="yes"/>
      <point x="325" y="257"/>
      <point x="276" y="303"/>
      <point x="213" y="303" type="curve" smooth="yes"/>
      <point x="138" y="303"/>
      <point x="81" y="237"/>
      <point x="52" y="144" type="curve"/>
      <point x="75" y="116" type="line"/>
      <point x="97" y="193"/>
      <point x="132" y="236"/>
      <point x="180" y="236" type="curve" smooth="yes"/>
      <point x="214" y="236"/>
      <point x="239" y="209"/>
      <point x="239" y="157" type="curve" smooth="yes"/>
      <point x="239" y="98"/>
      <point x="207" y="49"/>
      <point x="155" y="49" type="curve" smooth="yes"/>
      <point x="105" y="49"/>
      <point x="80" y="102"/>
      <point x="80" y="199" type="curve" smooth="yes"/>
      <point x="80" y="431"/>
      <point x="254" y="603"/>
      <point x="404" y="603" type="curve" smooth="yes"/>
      <point x="551" y="603"/>
      <point x="620" y="494"/>
      <point x="620" y="354" type="curve" smooth="yes"/>
      <point x="620" y="226"/>
      <point x="578" y="56"/>
      <point x="478" y="56" type="curve" smooth="yes"/>
      <point x="441" y="56"/>
      <point x="423" y="99"/>
      <point x="423" y="156" type="curve" smooth="yes"/>
      <point x="423" y="312"/>
      <point x="533" y="505"/>
      <point x="694" y="505" type="curve" smooth="yes"/>
      <point x="802" y="505"/>
      <point x="848" y="416"/>
      <point x="848" y="325" type="curve" smooth="yes"/>
      <point x="848" y="223"/>
      <point x="806" y="127"/>
      <point x="737" y="40" type="curve"/>
      <point x="745" y="0" type="line"/>
      <point x="1342" y="0" type="line"/>
      <point x="1354" y="54" type="line"/>
      <point x="809" y="54" type="line"/>
      <point x="869" y="112"/>
      <point x="935" y="209"/>
      <point x="935" y="340" type="curve" smooth="yes"/>
      <point x="935" y="470"/>
      <point x="844" y="559"/>
      <point x="706" y="559" type="curve" smooth="yes"/>
      <point x="503" y="559"/>
      <point x="369" y="341"/>
      <point x="369" y="141" type="curve" smooth="yes"/>
      <point x="369" y="58"/>
      <point x="411" y="-5"/>
    </contour>
    <contour>
      <point x="1097" y="-254" type="line"/>
      <point x="1184" y="-254" type="line"/>
      <point x="1322" y="390" type="line" smooth="yes"/>
      <point x="1345" y="497"/>
      <point x="1305" y="554"/>
      <point x="1221" y="554" type="curve" smooth="yes"/>
      <point x="1080" y="554"/>
      <point x="999" y="371"/>
      <point x="999" y="230" type="curve" smooth="yes"/>
      <point x="999" y="99"/>
      <point x="1038" y="13"/>
      <point x="1152" y="13" type="curve"/>
      <point x="1160" y="54" type="line"/>
      <point x="1081" y="54"/>
      <point x="1052" y="132"/>
      <point x="1052" y="229" type="curve" smooth="yes"/>
      <point x="1052" y="338"/>
      <point x="1109" y="495"/>
      <point x="1198" y="495" type="curve" smooth="yes"/>
      <point x="1243" y="495"/>
      <point x="1249" y="457"/>
      <point x="1237" y="403" type="curve" smooth="yes"/>
    </contour>
  </outline>
</glyph>
<glyph name="rupee-tamil" format="2">
  <advance width="794"/>
  <unicode hex="0BF9"/>
  <note>
uni0BF9
</note>
  <outline>
    <contour>
      <point x="306" y="-296" type="curve" smooth="yes"/>
      <point x="534" y="-296"/>
      <point x="723" y="-63"/>
      <point x="723" y="204" type="curve" smooth="yes"/>
      <point x="723" y="285"/>
      <point x="686" y="345"/>
      <point x="615" y="345" type="curve" smooth="yes"/>
      <point x="549" y="345"/>
      <point x="505" y="290"/>
      <point x="489" y="203" type="curve" smooth="yes"/>
      <point x="484" y="175" type="line"/>
      <point x="505" y="175" type="line"/>
      <point x="510" y="200" type="line" smooth="yes"/>
      <point x="521" y="254"/>
      <point x="542" y="286"/>
      <point x="578" y="286" type="curve" smooth="yes"/>
      <point x="614" y="286"/>
      <point x="632" y="255"/>
      <point x="632" y="196" type="curve" smooth="yes"/>
      <point x="632" y="-32"/>
      <point x="508" y="-243"/>
      <point x="308" y="-243" type="curve" smooth="yes"/>
      <point x="160" y="-243"/>
      <point x="85" y="-125"/>
      <point x="85" y="101" type="curve" smooth="yes"/>
      <point x="85" y="348"/>
      <point x="249" y="798"/>
      <point x="404" y="798" type="curve" smooth="yes"/>
      <point x="455" y="798"/>
      <point x="479" y="770"/>
      <point x="479" y="723" type="curve" smooth="yes"/>
      <point x="479" y="692"/>
      <point x="460" y="659"/>
      <point x="430" y="659" type="curve" smooth="yes"/>
      <point x="412" y="659"/>
      <point x="403" y="675"/>
      <point x="403" y="708" type="curve" smooth="yes"/>
      <point x="403" y="780"/>
      <point x="448" y="850"/>
      <point x="526" y="850" type="curve" smooth="yes"/>
      <point x="576" y="850"/>
      <point x="611" y="820"/>
      <point x="611" y="769" type="curve" smooth="yes"/>
      <point x="611" y="721"/>
      <point x="581" y="682"/>
      <point x="552" y="651" type="curve"/>
      <point x="566" y="610" type="line"/>
      <point x="708" y="610" type="line"/>
      <point x="719" y="664" type="line"/>
      <point x="591" y="664" type="line"/>
      <point x="583" y="633" type="line"/>
      <point x="639" y="670"/>
      <point x="680" y="726"/>
      <point x="680" y="791" type="curve" smooth="yes"/>
      <point x="680" y="865"/>
      <point x="619" y="904"/>
      <point x="547" y="904" type="curve" smooth="yes"/>
      <point x="450" y="904"/>
      <point x="355" y="806"/>
      <point x="355" y="698" type="curve" smooth="yes"/>
      <point x="355" y="647"/>
      <point x="381" y="605"/>
      <point x="433" y="605" type="curve" smooth="yes"/>
      <point x="492" y="605"/>
      <point x="545" y="657"/>
      <point x="545" y="732" type="curve" smooth="yes"/>
      <point x="545" y="808"/>
      <point x="480" y="852"/>
      <point x="417" y="852" type="curve" smooth="yes"/>
      <point x="209" y="852"/>
      <point x="31" y="388"/>
      <point x="31" y="104" type="curve" smooth="yes"/>
      <point x="31" y="-153"/>
      <point x="124" y="-296"/>
    </contour>
    <contour>
      <point x="205" y="0" type="line"/>
      <point x="258" y="0" type="line"/>
      <point x="364" y="500" type="line"/>
      <point x="485" y="500" type="line"/>
      <point x="378" y="0" type="line"/>
      <point x="468" y="0" type="line"/>
      <point x="574" y="500" type="line"/>
      <point x="684" y="500" type="line"/>
      <point x="696" y="554" type="line"/>
      <point x="323" y="554" type="line"/>
    </contour>
  </outline>
</glyph>
<glyph name="doubleSvarita-vedic" format="2">
  <unicode hex="1CDA"/>
  <note>
uni1CDA
</note>
  <anchor x="59" y="554" name="_vedic"/>
  <outline>
    <contour>
      <point x="64" y="917" type="line"/>
      <point x="113" y="917" type="line"/>
      <point x="154" y="1112" type="line"/>
      <point x="105" y="1112" type="line"/>
    </contour>
    <contour>
      <point x="160" y="917" type="line"/>
      <point x="209" y="917" type="line"/>
      <point x="250" y="1112" type="line"/>
      <point x="201" y="1112" type="line"/>
    </contour>
  </outline>
</glyph>
<glyph name="endash" format="2">
  <advance width="500"/>
  <unicode hex="2013"/>
  <outline>
    <contour>
      <point x="-11" y="240" type="line"/>
      <point x="499" y="240" type="line"/>
      <point x="513" y="297" type="line"/>
      <point x="1" y="297" type="line"/>
    </contour>
  </outline>
</glyph>
<glyph name="emdash" format="2">
  <advance width="1000"/>
  <unicode hex="2014"/>
  <outline>
    <contour>
      <point x="-11" y="240" type="line"/>
      <point x="999" y="240" type="line"/>
      <point x="1012" y="297" type="line"/>
      <point x="1" y="297" type="line"/>
    </contour>
  </outline>
</glyph>
<glyph name="quoteleft" format="2">
  <advance width="206"/>
  <unicode hex="2018"/>
  <outline>
    <contour>
      <point x="164" y="443" type="curve" smooth="yes"/>
      <point x="194" y="443"/>
      <point x="219" y="464"/>
      <point x="219" y="504" type="curve" smooth="yes"/>
      <point x="219" y="553"/>
      <point x="172" y="554"/>
      <point x="172" y="588" type="curve" smooth="yes"/>
      <point x="172" y="628"/>
      <point x="201" y="658"/>
      <point x="258" y="673" type="curve"/>
      <point x="264" y="714" type="line"/>
      <point x="155" y="688"/>
      <point x="103" y="609"/>
      <point x="103" y="520" type="curve" smooth="yes"/>
      <point x="103" y="471"/>
      <point x="130" y="443"/>
    </contour>
  </outline>
</glyph>
<glyph name="quoteright" format="2">
  <advance width="206"/>
  <unicode hex="2019"/>
  <outline>
    <contour>
      <point x="90" y="460" type="line"/>
      <point x="195" y="484"/>
      <point x="246" y="557"/>
      <point x="246" y="642" type="curve" smooth="yes"/>
      <point x="246" y="687"/>
      <point x="219" y="712"/>
      <point x="187" y="712" type="curve" smooth="yes"/>
      <point x="158" y="712"/>
      <point x="134" y="693"/>
      <point x="134" y="656" type="curve" smooth="yes"/>
      <point x="134" y="611"/>
      <point x="178" y="609"/>
      <point x="178" y="578" type="curve" smooth="yes"/>
      <point x="178" y="540"/>
      <point x="150" y="513"/>
      <point x="97" y="498" type="curve"/>
    </contour>
  </outline>
</glyph>
<glyph name="quotedblleft" format="2">
  <advance width="369"/>
  <unicode hex="201C"/>
  <outline>
    <contour>
      <point x="326" y="443" type="curve" smooth="yes"/>
      <point x="356" y="443"/>
      <point x="381" y="464"/>
      <point x="381" y="504" type="curve" smooth="yes"/>
      <point x="381" y="553"/>
      <point x="334" y="554"/>
      <point x="334" y="588" type="curve" smooth="yes"/>
      <point x="334" y="628"/>
      <point x="363" y="658"/>
      <point x="420" y="673" type="curve"/>
      <point x="427" y="714" type="line"/>
      <point x="317" y="688"/>
      <point x="265" y="609"/>
      <point x="265" y="520" type="curve" smooth="yes"/>
      <point x="265" y="471"/>
      <point x="292" y="443"/>
    </contour>
    <contour>
      <point x="164" y="443" type="curve" smooth="yes"/>
      <point x="194" y="443"/>
      <point x="219" y="464"/>
      <point x="219" y="504" type="curve" smooth="yes"/>
      <point x="219" y="553"/>
      <point x="172" y="554"/>
      <point x="172" y="588" type="curve" smooth="yes"/>
      <point x="172" y="628"/>
      <point x="201" y="658"/>
      <point x="258" y="673" type="curve"/>
      <point x="264" y="714" type="line"/>
      <point x="155" y="688"/>
      <point x="103" y="609"/>
      <point x="103" y="520" type="curve" smooth="yes"/>
      <point x="103" y="471"/>
      <point x="130" y="443"/>
    </contour>
  </outline>
</glyph>
<glyph name="ellipsis" format="2">
  <advance width="699"/>
  <unicode hex="2026"/>
  <outline>
    <contour>
      <point x="555" y="-8" type="curve" smooth="yes"/>
      <point x="582" y="-8"/>
      <point x="614" y="13"/>
      <point x="614" y="71" type="curve" smooth="yes"/>
      <point x="614" y="108"/>
      <point x="592" y="127"/>
      <point x="563" y="127" type="curve" smooth="yes"/>
      <point x="528" y="127"/>
      <point x="504" y="95"/>
      <point x="504" y="49" type="curve" smooth="yes"/>
      <point x="504" y="11"/>
      <point x="525" y="-8"/>
    </contour>
    <contour>
      <point x="88" y="-8" type="curve" smooth="yes"/>
      <point x="116" y="-8"/>
      <point x="147" y="13"/>
      <point x="147" y="71" type="curve" smooth="yes"/>
      <point x="147" y="108"/>
      <point x="126" y="128"/>
      <point x="97" y="128" type="curve" smooth="yes"/>
      <point x="62" y="128"/>
      <point x="38" y="96"/>
      <point x="38" y="49" type="curve" smooth="yes"/>
      <point x="38" y="11"/>
      <point x="59" y="-8"/>
    </contour>
    <contour>
      <point x="320" y="-8" type="curve" smooth="yes"/>
      <point x="348" y="-8"/>
      <point x="379" y="13"/>
      <point x="379" y="71" type="curve" smooth="yes"/>
      <point x="379" y="108"/>
      <point x="357" y="128"/>
      <point x="329" y="128" type="curve" smooth="yes"/>
      <point x="294" y="128"/>
      <point x="269" y="96"/>
      <point x="269" y="49" type="curve" smooth="yes"/>
      <point x="269" y="11"/>
      <point x="290" y="-8"/>
    </contour>
  </outline>
</glyph>
<glyph name="foursuperior" format="2">
  <advance width="320"/>
  <unicode hex="2074"/>
  <outline>
    <contour>
      <point x="134" y="387" type="line"/>
      <point x="310" y="387" type="line"/>
      <point x="318" y="420" type="line"/>
      <point x="302" y="420" type="line" smooth="yes"/>
      <point x="287" y="420"/>
      <point x="274" y="423"/>
      <point x="274" y="443" type="curve" smooth="yes"/>
      <point x="274" y="449"/>
      <point x="277" y="465"/>
      <point x="280" y="477" type="curve" smooth="yes"/>
      <point x="288" y="515" type="line"/>
      <point x="353" y="515" type="line"/>
      <point x="363" y="557" type="line"/>
      <point x="296" y="557" type="line"/>
      <point x="351" y="819" type="line"/>
      <point x="287" y="819" type="line"/>
      <point x="77" y="549" type="line"/>
      <point x="70" y="515" type="line"/>
      <point x="219" y="515" type="line"/>
      <point x="208" y="458" type="line" smooth="yes"/>
      <point x="201" y="424"/>
      <point x="183" y="420"/>
      <point x="163" y="420" type="curve" smooth="yes"/>
      <point x="141" y="420" type="line"/>
    </contour>
    <contour>
      <point x="128" y="557" type="line"/>
      <point x="238" y="701" type="line" smooth="yes"/>
      <point x="253" y="721"/>
      <point x="267" y="740"/>
      <point x="274" y="750" type="curve"/>
      <point x="267" y="726"/>
      <point x="255" y="683"/>
      <point x="250" y="659" type="curve" smooth="yes"/>
      <point x="229" y="557" type="line"/>
    </contour>
  </outline>
</glyph>
<glyph name="rupeeIndian" format="2">
  <advance width="409"/>
  <unicode hex="20B9"/>
  <outline>
    <contour>
      <point x="226" y="0" type="curve" smooth="yes"/>
      <point x="253" y="0" type="line"/>
      <point x="262" y="42" type="line"/>
      <point x="256" y="42" type="line" smooth="yes"/>
      <point x="227" y="42"/>
      <point x="209" y="68"/>
      <point x="198" y="122" type="curve" smooth="yes"/>
      <point x="158" y="318" type="line"/>
      <point x="256" y="324"/>
      <point x="314" y="400"/>
      <point x="343" y="497" type="curve"/>
      <point x="421" y="497" type="line"/>
      <point x="431" y="544" type="line"/>
      <point x="354" y="544" type="line"/>
      <point x="362" y="597"/>
      <point x="358" y="638"/>
      <point x="340" y="667" type="curve"/>
      <point x="457" y="667" type="line"/>
      <point x="467" y="714" type="line"/>
      <point x="138" y="714" type="line"/>
      <point x="128" y="667" type="line"/>
      <point x="191" y="667" type="line" smooth="yes"/>
      <point x="253" y="667"/>
      <point x="273" y="632"/>
      <point x="258" y="544" type="curve"/>
      <point x="102" y="544" type="line"/>
      <point x="92" y="497" type="line"/>
      <point x="248" y="497" type="line"/>
      <point x="221" y="397"/>
      <point x="171" y="365"/>
      <point x="101" y="365" type="curve" smooth="yes"/>
      <point x="64" y="365" type="line"/>
      <point x="58" y="337" type="line"/>
      <point x="102" y="90" type="line" smooth="yes"/>
      <point x="116" y="13"/>
      <point x="141" y="0"/>
    </contour>
  </outline>
</glyph>
<glyph name="minus" format="2">
  <advance width="425"/>
  <unicode hex="2212"/>
  <outline>
    <contour>
      <point x="58" y="329" type="line"/>
      <point x="397" y="329" type="line"/>
      <point x="397" y="386" type="line"/>
      <point x="58" y="386" type="line"/>
    </contour>
  </outline>
</glyph>
<glyph name="dottedCircle" format="2">
  <advance width="594"/>
  <unicode hex="25CC"/>
  <anchor x="299" y="300" name="bottom"/>
  <anchor x="350" y="554" name="imatra"/>
  <anchor x="233" y="0" name="nukta"/>
  <anchor x="340" y="554" name="top"/>
  <anchor x="289" y="304" name="vedic"/>
  <outline>
    <contour>
      <point x="385" y="470" type="curve" smooth="yes"/>
      <point x="400" y="470"/>
      <point x="411" y="482"/>
      <point x="411" y="496" type="curve" smooth="yes"/>
      <point x="411" y="510"/>
      <point x="400" y="522"/>
      <point x="385" y="522" type="curve" smooth="yes"/>
      <point x="369" y="522"/>
      <point x="358" y="510"/>
      <point x="358" y="496" type="curve" smooth="yes"/>
      <point x="358" y="482"/>
      <point x="369" y="470"/>
    </contour>
    <contour>
      <point x="143" y="107" type="curve" smooth="yes"/>
      <point x="158" y="107"/>
      <point x="169" y="119"/>
      <point x="169" y="133" type="curve" smooth="yes"/>
      <point x="169" y="147"/>
      <point x="158" y="159"/>
      <point x="143" y="159" type="curve" smooth="yes"/>
      <point x="127" y="159"/>
      <point x="116" y="147"/>
      <point x="116" y="133" type="curve" smooth="yes"/>
      <point x="116" y="119"/>
      <point x="127" y="107"/>
    </contour>
    <contour>
      <point x="95" y="181" type="curve" smooth="yes"/>
      <point x="110" y="181"/>
      <point x="121" y="193"/>
      <point x="121" y="207" type="curve" smooth="yes"/>
      <point x="121" y="221"/>
      <point x="110" y="233"/>
      <point x="95" y="233" type="curve" smooth="yes"/>
      <point x="79" y="233"/>
      <point x="68" y="221"/>
      <point x="68" y="207" type="curve" smooth="yes"/>
      <point x="68" y="193"/>
      <point x="79" y="181"/>
    </contour>
    <contour>
      <point x="215" y="60" type="curve" smooth="yes"/>
      <point x="232" y="60"/>
      <point x="242" y="72"/>
      <point x="242" y="86" type="curve" smooth="yes"/>
      <point x="242" y="100"/>
      <point x="232" y="112"/>
      <point x="215" y="112" type="curve" smooth="yes"/>
      <point x="200" y="112"/>
      <point x="190" y="100"/>
      <point x="190" y="86" type="curve" smooth="yes"/>
      <point x="190" y="72"/>
      <point x="200" y="60"/>
    </contour>
    <contour>
      <point x="78" y="265" type="curve" smooth="yes"/>
      <point x="93" y="265"/>
      <point x="104" y="277"/>
      <point x="104" y="291" type="curve" smooth="yes"/>
      <point x="104" y="305"/>
      <point x="93" y="317"/>
      <point x="78" y="317" type="curve" smooth="yes"/>
      <point x="62" y="317"/>
      <point x="51" y="305"/>
      <point x="51" y="291" type="curve" smooth="yes"/>
      <point x="51" y="277"/>
      <point x="62" y="265"/>
    </contour>
    <contour>
      <point x="300" y="42" type="curve" smooth="yes"/>
      <point x="316" y="42"/>
      <point x="326" y="54"/>
      <point x="326" y="68" type="curve" smooth="yes"/>
      <point x="326" y="82"/>
      <point x="316" y="94"/>
      <point x="300" y="94" type="curve" smooth="yes"/>
      <point x="285" y="94"/>
      <point x="274" y="82"/>
      <point x="274" y="68" type="curve" smooth="yes"/>
      <point x="274" y="54"/>
      <point x="285" y="42"/>
    </contour>
    <contour>
      <point x="95" y="349" type="curve" smooth="yes"/>
      <point x="111" y="349"/>
      <point x="121" y="361"/>
      <point x="121" y="375" type="curve" smooth="yes"/>
      <point x="121" y="389"/>
      <point x="110" y="401"/>
      <point x="95" y="401" type="curve" smooth="yes"/>
      <point x="79" y="401"/>
      <point x="68" y="389"/>
      <point x="68" y="375" type="curve" smooth="yes"/>
      <point x="68" y="361"/>
      <point x="79" y="349"/>
    </contour>
    <contour>
      <point x="385" y="60" type="curve" smooth="yes"/>
      <point x="400" y="60"/>
      <point x="411" y="72"/>
      <point x="411" y="86" type="curve" smooth="yes"/>
      <point x="411" y="100"/>
      <point x="400" y="112"/>
      <point x="385" y="112" type="curve" smooth="yes"/>
      <point x="369" y="112"/>
      <point x="358" y="100"/>
      <point x="358" y="86" type="curve" smooth="yes"/>
      <point x="358" y="72"/>
      <point x="369" y="60"/>
    </contour>
    <contour>
      <point x="458" y="107" type="curve" smooth="yes"/>
      <point x="474" y="107"/>
      <point x="483" y="119"/>
      <point x="483" y="133" type="curve" smooth="yes"/>
      <point x="483" y="147"/>
      <point x="474" y="159"/>
      <point x="458" y="159" type="curve" smooth="yes"/>
      <point x="442" y="159"/>
      <point x="432" y="147"/>
      <point x="432" y="133" type="curve" smooth="yes"/>
      <point x="432" y="119"/>
      <point x="442" y="107"/>
    </contour>
    <contour>
      <point x="143" y="423" type="curve" smooth="yes"/>
      <point x="158" y="423"/>
      <point x="169" y="435"/>
      <point x="169" y="449" type="curve" smooth="yes"/>
      <point x="169" y="463"/>
      <point x="158" y="475"/>
      <point x="143" y="475" type="curve" smooth="yes"/>
      <point x="127" y="475"/>
      <point x="116" y="463"/>
      <point x="116" y="449" type="curve" smooth="yes"/>
      <point x="116" y="435"/>
      <point x="127" y="423"/>
    </contour>
    <contour>
      <point x="215" y="470" type="curve" smooth="yes"/>
      <point x="232" y="470"/>
      <point x="242" y="482"/>
      <point x="242" y="496" type="curve" smooth="yes"/>
      <point x="242" y="510"/>
      <point x="232" y="522"/>
      <point x="215" y="522" type="curve" smooth="yes"/>
      <point x="200" y="522"/>
      <point x="190" y="510"/>
      <point x="190" y="496" type="curve" smooth="yes"/>
      <point x="190" y="482"/>
      <point x="200" y="470"/>
    </contour>
    <contour>
      <point x="505" y="181" type="curve" smooth="yes"/>
      <point x="521" y="181"/>
      <point x="531" y="193"/>
      <point x="531" y="207" type="curve" smooth="yes"/>
      <point x="531" y="221"/>
      <point x="521" y="233"/>
      <point x="505" y="233" type="curve" smooth="yes"/>
      <point x="489" y="233"/>
      <point x="479" y="221"/>
      <point x="479" y="207" type="curve" smooth="yes"/>
      <point x="479" y="193"/>
      <point x="489" y="181"/>
    </contour>
    <contour>
      <point x="300" y="488" type="curve" smooth="yes"/>
      <point x="316" y="488"/>
      <point x="326" y="500"/>
      <point x="326" y="514" type="curve" smooth="yes"/>
      <point x="326" y="528"/>
      <point x="316" y="540"/>
      <point x="300" y="540" type="curve" smooth="yes"/>
      <point x="285" y="540"/>
      <point x="274" y="528"/>
      <point x="274" y="514" type="curve" smooth="yes"/>
      <point x="274" y="500"/>
      <point x="285" y="488"/>
    </contour>
    <contour>
      <point x="524" y="265" type="curve" smooth="yes"/>
      <point x="539" y="265"/>
      <point x="549" y="277"/>
      <point x="549" y="291" type="curve" smooth="yes"/>
      <point x="549" y="305"/>
      <point x="539" y="317"/>
      <point x="524" y="317" type="curve" smooth="yes"/>
      <point x="507" y="317"/>
      <point x="497" y="305"/>
      <point x="497" y="291" type="curve" smooth="yes"/>
      <point x="497" y="277"/>
      <point x="507" y="265"/>
    </contour>
    <contour>
      <point x="505" y="349" type="curve" smooth="yes"/>
      <point x="521" y="349"/>
      <point x="531" y="361"/>
      <point x="531" y="375" type="curve" smooth="yes"/>
      <point x="531" y="389"/>
      <point x="521" y="401"/>
      <point x="505" y="401" type="curve" smooth="yes"/>
      <point x="489" y="401"/>
      <point x="479" y="389"/>
      <point x="479" y="375" type="curve" smooth="yes"/>
      <point x="479" y="361"/>
      <point x="489" y="349"/>
    </contour>
    <contour>
      <point x="458" y="423" type="curve" smooth="yes"/>
      <point x="474" y="423"/>
      <point x="483" y="435"/>
      <point x="483" y="449" type="curve" smooth="yes"/>
      <point x="483" y="463"/>
      <point x="474" y="475"/>
      <point x="458" y="475" type="curve" smooth="yes"/>
      <point x="442" y="475"/>
      <point x="432" y="463"/>
      <point x="432" y="449" type="curve" smooth="yes"/>
      <point x="432" y="435"/>
      <point x="442" y="423"/>
    </contour>
  </outline>
</glyph>
<glyph name="candrabinduhalant-deva" format="2">
  <advance width="358"/>
  <unicode hex="A8F3"/>
  <note>
uniA8F3
</note>
  <outline>
    <contour>
      <point x="201" y="358" type="curve" smooth="yes"/>
      <point x="275" y="358"/>
      <point x="343" y="409"/>
      <point x="383" y="538" type="curve"/>
      <point x="325" y="554" type="line"/>
      <point x="294" y="451"/>
      <point x="253" y="419"/>
      <point x="200" y="419" type="curve" smooth="yes"/>
      <point x="149" y="419"/>
      <point x="129" y="468"/>
      <point x="136" y="547" type="curve"/>
      <point x="94" y="542" type="line"/>
      <point x="82" y="426"/>
      <point x="124" y="358"/>
    </contour>
    <contour>
      <point x="215" y="485" type="curve" smooth="yes"/>
      <point x="243" y="485"/>
      <point x="257" y="506"/>
      <point x="257" y="533" type="curve" smooth="yes"/>
      <point x="257" y="553"/>
      <point x="243" y="563"/>
      <point x="227" y="563" type="curve" smooth="yes"/>
      <point x="199" y="563"/>
      <point x="185" y="544"/>
      <point x="185" y="517" type="curve" smooth="yes"/>
      <point x="185" y="496"/>
      <point x="199" y="485"/>
    </contour>
    <contour>
      <point x="228" y="62" type="curve"/>
      <point x="271" y="76" type="line"/>
      <point x="225" y="252"/>
      <point x="201" y="280"/>
      <point x="137" y="280" type="curve" smooth="yes"/>
      <point x="115" y="280"/>
      <point x="94" y="272"/>
      <point x="87" y="272" type="curve"/>
      <point x="95" y="202" type="line"/>
      <point x="111" y="208"/>
      <point x="123" y="210"/>
      <point x="138" y="210" type="curve" smooth="yes"/>
      <point x="170" y="210"/>
      <point x="191" y="195"/>
    </contour>
  </outline>
</glyph>
<glyph name="u11301" format="2">
  <unicode hex="11301"/>
  <anchor x="60" y="554" name="_vedic"/>
  <outline>
    <contour>
      <point x="148" y="906" type="curve" smooth="yes"/>
      <point x="254" y="906"/>
      <point x="321" y="970"/>
      <point x="321" y="1052" type="curve" smooth="yes"/>
      <point x="321" y="1081"/>
      <point x="311" y="1100"/>
      <point x="285" y="1100" type="curve" smooth="yes"/>
      <point x="279" y="1100"/>
      <point x="272" y="1099"/>
      <point x="266" y="1097" type="curve"/>
      <point x="268" y="1090"/>
      <point x="269" y="1083"/>
      <point x="269" y="1065" type="curve" smooth="yes"/>
      <point x="269" y="1014"/>
      <point x="236" y="964"/>
      <point x="159" y="964" type="curve" smooth="yes"/>
      <point x="104" y="964"/>
      <point x="79" y="986"/>
      <point x="79" y="1025" type="curve" smooth="yes"/>
      <point x="79" y="1053"/>
      <point x="88" y="1077"/>
      <point x="99" y="1097" type="curve"/>
      <point x="92" y="1100"/>
      <point x="86" y="1101"/>
      <point x="80" y="1101" type="curve" smooth="yes"/>
      <point x="31" y="1101"/>
      <point x="0" y="1057"/>
      <point x="0" y="1011" type="curve" smooth="yes"/>
      <point x="0" y="950"/>
      <point x="44" y="906"/>
    </contour>
    <contour>
      <point x="173" y="1011" type="curve" smooth="yes"/>
      <point x="200" y="1011"/>
      <point x="222" y="1031"/>
      <point x="222" y="1062" type="curve" smooth="yes"/>
      <point x="222" y="1090"/>
      <point x="200" y="1112"/>
      <point x="173" y="1112" type="curve" smooth="yes"/>
      <point x="146" y="1112"/>
      <point x="125" y="1090"/>
      <point x="125" y="1062" type="curve" smooth="yes"/>
      <point x="125" y="1031"/>
      <point x="146" y="1011"/>
    </contour>
  </outline>
</glyph>
<glyph name="visarga-grantha" format="2">
  <advance width="228"/>
  <unicode hex="11303"/>
  <outline>
    <contour>
      <point x="77" y="-4" type="curve" smooth="yes"/>
      <point x="139" y="-4"/>
      <point x="185" y="38"/>
      <point x="185" y="101" type="curve" smooth="yes"/>
      <point x="185" y="164"/>
      <point x="139" y="206"/>
      <point x="77" y="206" type="curve" smooth="yes"/>
      <point x="14" y="206"/>
      <point x="-31" y="164"/>
      <point x="-31" y="101" type="curve" smooth="yes"/>
      <point x="-31" y="38"/>
      <point x="14" y="-4"/>
    </contour>
    <contour>
      <point x="77" y="51" type="curve" smooth="yes"/>
      <point x="48" y="51"/>
      <point x="28" y="72"/>
      <point x="28" y="102" type="curve" smooth="yes"/>
      <point x="28" y="131"/>
      <point x="48" y="152"/>
      <point x="77" y="152" type="curve" smooth="yes"/>
      <point x="105" y="152"/>
      <point x="125" y="131"/>
      <point x="125" y="102" type="curve" smooth="yes"/>
      <point x="125" y="72"/>
      <point x="105" y="51"/>
    </contour>
    <contour>
      <point x="151" y="348" type="curve" smooth="yes"/>
      <point x="213" y="348"/>
      <point x="259" y="391"/>
      <point x="259" y="454" type="curve" smooth="yes"/>
      <point x="259" y="517"/>
      <point x="213" y="559"/>
      <point x="151" y="559" type="curve" smooth="yes"/>
      <point x="88" y="559"/>
      <point x="43" y="517"/>
      <point x="43" y="454" type="curve" smooth="yes"/>
      <point x="43" y="391"/>
      <point x="88" y="348"/>
    </contour>
    <contour>
      <point x="151" y="404" type="curve" smooth="yes"/>
      <point x="122" y="404"/>
      <point x="102" y="425"/>
      <point x="102" y="455" type="curve" smooth="yes"/>
      <point x="102" y="484"/>
      <point x="122" y="505"/>
      <point x="151" y="505" type="curve" smooth="yes"/>
      <point x="179" y="505"/>
      <point x="199" y="484"/>
      <point x="199" y="455" type="curve" smooth="yes"/>
      <point x="199" y="425"/>
      <point x="179" y="404"/>
    </contour>
  </outline>
</glyph>
<glyph name="u1133B" format="2">
  <unicode hex="1133B"/>
  <anchor x="-59" y="0" name="_nukta"/>
  <outline>
    <contour>
      <point x="-80" y="-160" type="curve" smooth="yes"/>
      <point x="-49" y="-160"/>
      <point x="-24" y="-135"/>
      <point x="-24" y="-106" type="curve" smooth="yes"/>
      <point x="-24" y="-77"/>
      <point x="-49" y="-51"/>
      <point x="-80" y="-51" type="curve" smooth="yes"/>
      <point x="-111" y="-51"/>
      <point x="-136" y="-77"/>
      <point x="-136" y="-106" type="curve" smooth="yes"/>
      <point x="-136" y="-135"/>
      <point x="-111" y="-160"/>
    </contour>
  </outline>
</glyph>
<glyph name="nukta-grantha" format="2">
  <unicode hex="1133C"/>
  <anchor x="-59" y="0" name="_nukta"/>
  <outline>
    <contour>
      <point x="-169" y="-160" type="curve" smooth="yes"/>
      <point x="-138" y="-160"/>
      <point x="-113" y="-135"/>
      <point x="-113" y="-106" type="curve" smooth="yes"/>
      <point x="-113" y="-77"/>
      <point x="-138" y="-51"/>
      <point x="-169" y="-51" type="curve" smooth="yes"/>
      <point x="-200" y="-51"/>
      <point x="-225" y="-77"/>
      <point x="-225" y="-106" type="curve" smooth="yes"/>
      <point x="-225" y="-135"/>
      <point x="-200" y="-160"/>
    </contour>
    <contour>
      <point x="9" y="-160" type="curve" smooth="yes"/>
      <point x="40" y="-160"/>
      <point x="65" y="-135"/>
      <point x="65" y="-106" type="curve" smooth="yes"/>
      <point x="65" y="-77"/>
      <point x="40" y="-51"/>
      <point x="9" y="-51" type="curve" smooth="yes"/>
      <point x="-22" y="-51"/>
      <point x="-47" y="-77"/>
      <point x="-47" y="-106" type="curve" smooth="yes"/>
      <point x="-47" y="-135"/>
      <point x="-22" y="-160"/>
    </contour>
  </outline>
</glyph>
<glyph name=".notdef" format="2">
  <advance width="592"/>
  <outline>
    <contour>
      <point x="90" y="5" type="line"/>
      <point x="501" y="5" type="line"/>
      <point x="501" y="719" type="line"/>
      <point x="90" y="719" type="line"/>
    </contour>
    <contour>
      <point x="141" y="56" type="line"/>
      <point x="141" y="668" type="line"/>
      <point x="450" y="668" type="line"/>
      <point x="450" y="56" type="line"/>
    </contour>
  </outline>
</glyph>
<glyph name="anusvara-tamil.alt" format="2">
  <note>
uni0B82
</note>
  <anchor x="32" y="424" name="_top"/>
  <outline>
    <contour>
      <point x="97" y="633" type="curve" smooth="yes"/>
      <point x="157" y="633"/>
      <point x="201" y="673"/>
      <point x="201" y="734" type="curve" smooth="yes"/>
      <point x="201" y="794"/>
      <point x="157" y="835"/>
      <point x="97" y="835" type="curve" smooth="yes"/>
      <point x="37" y="835"/>
      <point x="-7" y="794"/>
      <point x="-7" y="734" type="curve" smooth="yes"/>
      <point x="-7" y="673"/>
      <point x="37" y="633"/>
    </contour>
    <contour>
      <point x="97" y="687" type="curve" smooth="yes"/>
      <point x="70" y="687"/>
      <point x="52" y="706"/>
      <point x="52" y="734" type="curve" smooth="yes"/>
      <point x="52" y="762"/>
      <point x="70" y="781"/>
      <point x="97" y="781" type="curve" smooth="yes"/>
      <point x="124" y="781"/>
      <point x="142" y="762"/>
      <point x="142" y="734" type="curve" smooth="yes"/>
      <point x="142" y="706"/>
      <point x="124" y="687"/>
    </contour>
  </outline>
</glyph>
<glyph name="cii-tamil" format="2">
  <advance width="524"/>
  <note>
uni0B9A
</note>
  <anchor x="216" y="0" name="bottom"/>
  <anchor x="215" y="0" name="nukta"/>
  <anchor x="547" y="882" name="top"/>
  <anchor x="361" y="554" name="vedic"/>
  <outline>
    <contour>
      <point x="164" y="-4" type="curve" smooth="yes"/>
      <point x="273" y="-4"/>
      <point x="329" y="62"/>
      <point x="355" y="186" type="curve" smooth="yes"/>
      <point x="371" y="263" type="line"/>
      <point x="485" y="263" type="line"/>
      <point x="496" y="317" type="line"/>
      <point x="383" y="317" type="line"/>
      <point x="422" y="500" type="line"/>
      <point x="535" y="500" type="line"/>
      <point x="547" y="554" type="line"/>
      <point x="191" y="554" type="line"/>
      <point x="134" y="286" type="line"/>
      <point x="188" y="286" type="line"/>
      <point x="233" y="500" type="line"/>
      <point x="333" y="500" type="line"/>
      <point x="295" y="317" type="line"/>
      <point x="178" y="317" type="line" smooth="yes"/>
      <point x="78" y="317"/>
      <point x="16" y="229"/>
      <point x="16" y="138" type="curve" smooth="yes"/>
      <point x="16" y="60"/>
      <point x="74" y="-4"/>
    </contour>
    <contour>
      <point x="158" y="49" type="curve" smooth="yes"/>
      <point x="105" y="49"/>
      <point x="73" y="91"/>
      <point x="73" y="143" type="curve" smooth="yes"/>
      <point x="73" y="207"/>
      <point x="103" y="263"/>
      <point x="172" y="263" type="curve" smooth="yes"/>
      <point x="283" y="263" type="line"/>
      <point x="264" y="175" type="line" smooth="yes"/>
      <point x="244" y="82"/>
      <point x="213" y="49"/>
    </contour>
    <component base="iiMatra-tamil" xOffset="440"/>
  </outline>
</glyph>
<glyph name="cuu-tamil" format="2">
  <advance width="915"/>
  <note>
g107
</note>
  <anchor x="420" y="0" name="bottom"/>
  <anchor x="397" y="-254" name="nukta"/>
  <anchor x="550" y="554" name="top"/>
  <anchor x="534" y="554" name="vedic"/>
  <outline>
    <contour>
      <point x="324" y="-4" type="curve" smooth="yes"/>
      <point x="433" y="-4"/>
      <point x="489" y="62"/>
      <point x="515" y="186" type="curve" smooth="yes"/>
      <point x="531" y="263" type="line"/>
      <point x="792" y="263" type="line"/>
      <point x="803" y="317" type="line"/>
      <point x="543" y="317" type="line"/>
      <point x="582" y="500" type="line"/>
      <point x="695" y="500" type="line"/>
      <point x="707" y="554" type="line"/>
      <point x="351" y="554" type="line"/>
      <point x="294" y="286" type="line"/>
      <point x="348" y="286" type="line"/>
      <point x="393" y="500" type="line"/>
      <point x="493" y="500" type="line"/>
      <point x="455" y="317" type="line"/>
      <point x="338" y="317" type="line" smooth="yes"/>
      <point x="238" y="317"/>
      <point x="176" y="229"/>
      <point x="176" y="138" type="curve" smooth="yes"/>
      <point x="176" y="60"/>
      <point x="234" y="-4"/>
    </contour>
    <contour>
      <point x="318" y="49" type="curve" smooth="yes"/>
      <point x="265" y="49"/>
      <point x="233" y="91"/>
      <point x="233" y="143" type="curve" smooth="yes"/>
      <point x="233" y="207"/>
      <point x="263" y="263"/>
      <point x="332" y="263" type="curve" smooth="yes"/>
      <point x="443" y="263" type="line"/>
      <point x="424" y="175" type="line" smooth="yes"/>
      <point x="404" y="82"/>
      <point x="373" y="49"/>
    </contour>
    <contour>
      <point x="569" y="0" type="line"/>
      <point x="652" y="0" type="line"/>
      <point x="714" y="293" type="line"/>
      <point x="631" y="294" type="line"/>
    </contour>
    <contour>
      <point x="397" y="-254" type="curve" smooth="yes"/>
      <point x="598" y="-254"/>
      <point x="828" y="-129"/>
      <point x="828" y="91" type="curve" smooth="yes"/>
      <point x="828" y="151"/>
      <point x="797" y="181"/>
      <point x="752" y="181" type="curve" smooth="yes"/>
      <point x="696" y="181"/>
      <point x="661" y="125"/>
      <point x="650" y="73" type="curve" smooth="yes"/>
      <point x="645" y="49" type="line"/>
      <point x="662" y="49" type="line"/>
      <point x="667" y="71" type="line" smooth="yes"/>
      <point x="674" y="103"/>
      <point x="687" y="123"/>
      <point x="711" y="123" type="curve" smooth="yes"/>
      <point x="732" y="123"/>
      <point x="744" y="107"/>
      <point x="744" y="79" type="curve" smooth="yes"/>
      <point x="744" y="-104"/>
      <point x="569" y="-200"/>
      <point x="388" y="-200" type="curve" smooth="yes"/>
      <point x="213" y="-200"/>
      <point x="71" y="-80"/>
      <point x="71" y="116" type="curve" smooth="yes"/>
      <point x="71" y="258"/>
      <point x="135" y="362"/>
      <point x="223" y="482" type="curve"/>
      <point x="182" y="510" type="line"/>
      <point x="90" y="385"/>
      <point x="19" y="260"/>
      <point x="19" y="107" type="curve" smooth="yes"/>
      <point x="19" y="-116"/>
      <point x="186" y="-254"/>
    </contour>
  </outline>
</glyph>
<glyph name="iMatra-tamil.alt01" format="2">
  <advance width="185"/>
  <note>
uni0BBF
</note>
  <outline>
    <contour>
      <point x="4" y="0" type="line"/>
      <point x="57" y="0" type="line"/>
      <point x="179" y="572" type="line" smooth="yes"/>
      <point x="184" y="594"/>
      <point x="186" y="615"/>
      <point x="186" y="635" type="curve" smooth="yes"/>
      <point x="186" y="744"/>
      <point x="116" y="815"/>
      <point x="3" y="815" type="curve" smooth="yes"/>
      <point x="-117" y="815"/>
      <point x="-185" y="723"/>
      <point x="-185" y="625" type="curve" smooth="yes"/>
      <point x="-185" y="570"/>
      <point x="-159" y="531"/>
      <point x="-130" y="502" type="curve"/>
      <point x="-101" y="528" type="line"/>
      <point x="-119" y="548"/>
      <point x="-130" y="575"/>
      <point x="-130" y="607" type="curve" smooth="yes"/>
      <point x="-130" y="666"/>
      <point x="-90" y="728"/>
      <point x="-3" y="728" type="curve" smooth="yes"/>
      <point x="82" y="728"/>
      <point x="127" y="679"/>
      <point x="127" y="602" type="curve" smooth="yes"/>
      <point x="127" y="586"/>
      <point x="125" y="568"/>
      <point x="121" y="550" type="curve" smooth="yes"/>
    </contour>
  </outline>
</glyph>
<glyph name="iMatra-tamil.alt02" format="2">
  <advance width="175"/>
  <note>
uni0BBF
</note>
  <outline>
    <contour>
      <point x="-9" y="0" type="line"/>
      <point x="46" y="0" type="line"/>
      <point x="155" y="509" type="line" smooth="yes"/>
      <point x="161" y="536"/>
      <point x="163" y="562"/>
      <point x="163" y="587" type="curve" smooth="yes"/>
      <point x="163" y="721"/>
      <point x="80" y="815"/>
      <point x="-61" y="815" type="curve" smooth="yes"/>
      <point x="-198" y="815"/>
      <point x="-280" y="723"/>
      <point x="-280" y="609" type="curve" smooth="yes"/>
      <point x="-280" y="566"/>
      <point x="-265" y="531"/>
      <point x="-231" y="501" type="curve"/>
      <point x="-206" y="525" type="line"/>
      <point x="-219" y="545"/>
      <point x="-225" y="570"/>
      <point x="-225" y="590" type="curve" smooth="yes"/>
      <point x="-225" y="674"/>
      <point x="-167" y="728"/>
      <point x="-71" y="728" type="curve" smooth="yes"/>
      <point x="42" y="728"/>
      <point x="102" y="662"/>
      <point x="102" y="555" type="curve" smooth="yes"/>
      <point x="102" y="532"/>
      <point x="99" y="506"/>
      <point x="93" y="479" type="curve" smooth="yes"/>
    </contour>
  </outline>
</glyph>
<glyph name="iiMatra-tamil.alt01" format="2">
  <note>
uni0BC0
</note>
  <anchor x="-11" y="875" name="top"/>
  <outline>
    <contour>
      <point x="-144" y="499" type="curve"/>
      <point x="-108" y="533" type="line"/>
      <point x="-130" y="560"/>
      <point x="-152" y="596"/>
      <point x="-152" y="655" type="curve" smooth="yes"/>
      <point x="-152" y="737"/>
      <point x="-111" y="821"/>
      <point x="-17" y="821" type="curve" smooth="yes"/>
      <point x="33" y="821"/>
      <point x="59" y="788"/>
      <point x="59" y="745" type="curve" smooth="yes"/>
      <point x="59" y="695"/>
      <point x="36" y="656"/>
      <point x="-7" y="656" type="curve" smooth="yes"/>
      <point x="-72" y="656"/>
      <point x="-56" y="762"/>
      <point x="-4" y="844" type="curve"/>
      <point x="-44" y="848" type="line"/>
      <point x="-121" y="735"/>
      <point x="-117" y="602"/>
      <point x="-1" y="602" type="curve" smooth="yes"/>
      <point x="70" y="602"/>
      <point x="134" y="656"/>
      <point x="134" y="742" type="curve" smooth="yes"/>
      <point x="134" y="827"/>
      <point x="75" y="875"/>
      <point x="-11" y="875" type="curve" smooth="yes"/>
      <point x="-132" y="875"/>
      <point x="-206" y="769"/>
      <point x="-206" y="652" type="curve" smooth="yes"/>
      <point x="-206" y="589"/>
      <point x="-181" y="540"/>
    </contour>
  </outline>
</glyph>
<glyph name="iiMatra-tamil.alt02" format="2">
  <note>
uni0BC0
</note>
  <outline>
    <contour>
      <point x="-252" y="505" type="curve"/>
      <point x="-225" y="540" type="line"/>
      <point x="-256" y="565"/>
      <point x="-273" y="612"/>
      <point x="-273" y="658" type="curve" smooth="yes"/>
      <point x="-273" y="734"/>
      <point x="-230" y="828"/>
      <point x="-139" y="828" type="curve" smooth="yes"/>
      <point x="-88" y="828"/>
      <point x="-61" y="794"/>
      <point x="-61" y="746" type="curve" smooth="yes"/>
      <point x="-61" y="696"/>
      <point x="-85" y="656"/>
      <point x="-130" y="656" type="curve" smooth="yes"/>
      <point x="-160" y="656"/>
      <point x="-172" y="681"/>
      <point x="-172" y="715" type="curve" smooth="yes"/>
      <point x="-172" y="757"/>
      <point x="-154" y="812"/>
      <point x="-128" y="851" type="curve"/>
      <point x="-168" y="855" type="line"/>
      <point x="-200" y="808"/>
      <point x="-219" y="753"/>
      <point x="-219" y="706" type="curve" smooth="yes"/>
      <point x="-219" y="647"/>
      <point x="-190" y="602"/>
      <point x="-124" y="602" type="curve" smooth="yes"/>
      <point x="-47" y="602"/>
      <point x="14" y="662"/>
      <point x="14" y="750" type="curve" smooth="yes"/>
      <point x="14" y="837"/>
      <point x="-48" y="882"/>
      <point x="-129" y="882" type="curve" smooth="yes"/>
      <point x="-249" y="882"/>
      <point x="-327" y="772"/>
      <point x="-327" y="662" type="curve" smooth="yes"/>
      <point x="-327" y="595"/>
      <point x="-301" y="539"/>
    </contour>
  </outline>
</glyph>
<glyph name="jii-tamil" format="2">
  <advance width="735"/>
  <note>
uni0B9C
</note>
  <anchor x="303" y="0" name="bottom"/>
  <anchor x="236" y="-296" name="nukta"/>
  <anchor x="745" y="875" name="top"/>
  <anchor x="420" y="554" name="vedic"/>
  <outline>
    <contour>
      <point x="95" y="-296" type="curve" smooth="yes"/>
      <point x="249" y="-296"/>
      <point x="340" y="-21"/>
      <point x="449" y="-21" type="curve" smooth="yes"/>
      <point x="496" y="-21"/>
      <point x="518" y="-55"/>
      <point x="518" y="-110" type="curve" smooth="yes"/>
      <point x="518" y="-182"/>
      <point x="481" y="-242"/>
      <point x="413" y="-242" type="curve" smooth="yes"/>
      <point x="385" y="-242"/>
      <point x="364" y="-234"/>
      <point x="340" y="-219" type="curve"/>
      <point x="314" y="-263" type="line"/>
      <point x="344" y="-283"/>
      <point x="374" y="-296"/>
      <point x="424" y="-296" type="curve" smooth="yes"/>
      <point x="520" y="-296"/>
      <point x="607" y="-222"/>
      <point x="607" y="-109" type="curve" smooth="yes"/>
      <point x="607" y="-15"/>
      <point x="560" y="37"/>
      <point x="474" y="37" type="curve" smooth="yes"/>
      <point x="316" y="37"/>
      <point x="231" y="-238"/>
      <point x="113" y="-238" type="curve" smooth="yes"/>
      <point x="62" y="-238"/>
      <point x="46" y="-193"/>
      <point x="46" y="-132" type="curve" smooth="yes"/>
      <point x="46" y="27"/>
      <point x="162" y="56"/>
      <point x="338" y="82" type="curve" smooth="yes"/>
      <point x="560" y="115"/>
      <point x="707" y="203"/>
      <point x="707" y="396" type="curve" smooth="yes"/>
      <point x="707" y="505"/>
      <point x="642" y="559"/>
      <point x="564" y="559" type="curve" smooth="yes"/>
      <point x="498" y="559"/>
      <point x="447" y="522"/>
      <point x="410" y="444" type="curve"/>
      <point x="397" y="520"/>
      <point x="335" y="559"/>
      <point x="264" y="559" type="curve" smooth="yes"/>
      <point x="138" y="559"/>
      <point x="47" y="447"/>
      <point x="47" y="305" type="curve" smooth="yes"/>
      <point x="47" y="230"/>
      <point x="72" y="156"/>
      <point x="148" y="156" type="curve" smooth="yes"/>
      <point x="219" y="156"/>
      <point x="282" y="219"/>
      <point x="282" y="309" type="curve" smooth="yes"/>
      <point x="282" y="380"/>
      <point x="246" y="412"/>
      <point x="197" y="412" type="curve" smooth="yes"/>
      <point x="148" y="412"/>
      <point x="102" y="365"/>
      <point x="76" y="288" type="curve"/>
      <point x="85" y="255" type="line"/>
      <point x="112" y="328"/>
      <point x="137" y="348"/>
      <point x="167" y="348" type="curve" smooth="yes"/>
      <point x="189" y="348"/>
      <point x="208" y="333"/>
      <point x="208" y="294" type="curve" smooth="yes"/>
      <point x="208" y="251"/>
      <point x="183" y="210"/>
      <point x="146" y="210" type="curve" smooth="yes"/>
      <point x="109" y="210"/>
      <point x="98" y="251"/>
      <point x="98" y="300" type="curve" smooth="yes"/>
      <point x="98" y="402"/>
      <point x="149" y="505"/>
      <point x="250" y="505" type="curve" smooth="yes"/>
      <point x="339" y="505"/>
      <point x="371" y="448"/>
      <point x="350" y="355" type="curve" smooth="yes"/>
      <point x="319" y="215" type="line"/>
      <point x="408" y="215" type="line"/>
      <point x="438" y="361" type="line" smooth="yes"/>
      <point x="455" y="443"/>
      <point x="485" y="505"/>
      <point x="545" y="505" type="curve" smooth="yes"/>
      <point x="588" y="505"/>
      <point x="618" y="478"/>
      <point x="618" y="402" type="curve" smooth="yes"/>
      <point x="618" y="208"/>
      <point x="516" y="148"/>
      <point x="305" y="117" type="curve" smooth="yes"/>
      <point x="97" y="86"/>
      <point x="-42" y="27"/>
      <point x="-42" y="-132" type="curve" smooth="yes"/>
      <point x="-42" y="-229"/>
      <point x="6" y="-296"/>
    </contour>
    <component base="iiMatra-tamil.alt01" xOffset="756"/>
  </outline>
</glyph>
<glyph name="kssii-tamil" format="2">
  <advance width="1349"/>
  <note>
g76
</note>
  <anchor x="612" y="0" name="bottom"/>
  <anchor x="555" y="0" name="nukta"/>
  <anchor x="1228" y="882" name="top"/>
  <anchor x="744" y="554" name="vedic"/>
  <outline>
    <contour>
      <point x="520" y="-5" type="curve" smooth="yes"/>
      <point x="607" y="-5"/>
      <point x="677" y="72"/>
      <point x="677" y="170" type="curve" smooth="yes"/>
      <point x="677" y="271"/>
      <point x="613" y="317"/>
      <point x="507" y="317" type="curve" smooth="yes"/>
      <point x="383" y="317" type="line"/>
      <point x="422" y="500" type="line"/>
      <point x="535" y="500" type="line"/>
      <point x="547" y="554" type="line"/>
      <point x="191" y="554" type="line"/>
      <point x="134" y="286" type="line"/>
      <point x="188" y="286" type="line"/>
      <point x="233" y="500" type="line"/>
      <point x="333" y="500" type="line"/>
      <point x="295" y="317" type="line"/>
      <point x="178" y="317" type="line" smooth="yes"/>
      <point x="78" y="317"/>
      <point x="16" y="229"/>
      <point x="16" y="138" type="curve" smooth="yes"/>
      <point x="16" y="60"/>
      <point x="74" y="-4"/>
      <point x="164" y="-4" type="curve" smooth="yes"/>
      <point x="273" y="-4"/>
      <point x="329" y="62"/>
      <point x="355" y="186" type="curve" smooth="yes"/>
      <point x="371" y="263" type="line"/>
      <point x="490" y="263" type="line" smooth="yes"/>
      <point x="554" y="263"/>
      <point x="589" y="235"/>
      <point x="589" y="162" type="curve" smooth="yes"/>
      <point x="589" y="98"/>
      <point x="560" y="49"/>
      <point x="512" y="49" type="curve" smooth="yes"/>
      <point x="481" y="49"/>
      <point x="464" y="82"/>
      <point x="464" y="128" type="curve" smooth="yes"/>
      <point x="464" y="232"/>
      <point x="538" y="370"/>
      <point x="649" y="370" type="curve" smooth="yes"/>
      <point x="722" y="370"/>
      <point x="773" y="324"/>
      <point x="773" y="235" type="curve" smooth="yes"/>
      <point x="773" y="156"/>
      <point x="745" y="97"/>
      <point x="699" y="40" type="curve"/>
      <point x="717" y="0" type="line"/>
      <point x="1242" y="0" type="line"/>
      <point x="1308" y="311" type="line"/>
      <point x="1208" y="260" type="line"/>
      <point x="1165" y="54" type="line"/>
      <point x="747" y="54" type="line"/>
      <point x="745" y="29" type="line"/>
      <point x="812" y="84"/>
      <point x="860" y="157"/>
      <point x="860" y="247" type="curve" smooth="yes"/>
      <point x="860" y="367"/>
      <point x="777" y="423"/>
      <point x="669" y="423" type="curve" smooth="yes"/>
      <point x="514" y="423"/>
      <point x="412" y="269"/>
      <point x="412" y="123" type="curve" smooth="yes"/>
      <point x="412" y="52"/>
      <point x="444" y="-5"/>
    </contour>
    <contour>
      <point x="158" y="49" type="curve" smooth="yes"/>
      <point x="105" y="49"/>
      <point x="73" y="91"/>
      <point x="73" y="143" type="curve" smooth="yes"/>
      <point x="73" y="207"/>
      <point x="103" y="263"/>
      <point x="172" y="263" type="curve" smooth="yes"/>
      <point x="283" y="263" type="line"/>
      <point x="264" y="175" type="line" smooth="yes"/>
      <point x="244" y="82"/>
      <point x="213" y="49"/>
    </contour>
    <contour>
      <point x="922" y="-254" type="line"/>
      <point x="1009" y="-254" type="line"/>
      <point x="1154" y="427" type="line" smooth="yes"/>
      <point x="1171" y="507"/>
      <point x="1145" y="559"/>
      <point x="1072" y="559" type="curve" smooth="yes"/>
      <point x="985" y="559"/>
      <point x="920" y="470"/>
      <point x="920" y="370" type="curve" smooth="yes"/>
      <point x="920" y="273"/>
      <point x="986" y="220"/>
      <point x="1073" y="220" type="curve" smooth="yes"/>
      <point x="1150" y="220"/>
      <point x="1217" y="246"/>
      <point x="1307" y="305" type="curve"/>
      <point x="1309" y="316" type="line"/>
      <point x="1288" y="346" type="line"/>
      <point x="1213" y="294"/>
      <point x="1151" y="272"/>
      <point x="1082" y="272" type="curve" smooth="yes"/>
      <point x="1007" y="272"/>
      <point x="970" y="300"/>
      <point x="970" y="376" type="curve" smooth="yes"/>
      <point x="970" y="441"/>
      <point x="1000" y="499"/>
      <point x="1042" y="499" type="curve" smooth="yes"/>
      <point x="1070" y="499"/>
      <point x="1076" y="474"/>
      <point x="1068" y="436" type="curve" smooth="yes"/>
    </contour>
    <component base="iiMatra-tamil.alt02" xOffset="1357"/>
  </outline>
</glyph>
<glyph name="ku-tamil" format="2">
  <advance width="796"/>
  <note>
g101
</note>
  <anchor x="369" y="0" name="bottom"/>
  <anchor x="323" y="-254" name="nukta"/>
  <anchor x="561" y="554" name="top"/>
  <anchor x="562" y="554" name="vedic"/>
  <outline>
    <contour>
      <point x="323" y="-254" type="curve" smooth="yes"/>
      <point x="553" y="-254"/>
      <point x="724" y="-86"/>
      <point x="724" y="128" type="curve" smooth="yes"/>
      <point x="724" y="252"/>
      <point x="645" y="317"/>
      <point x="530" y="317" type="curve" smooth="yes"/>
      <point x="356" y="317" type="line" smooth="yes"/>
      <point x="256" y="317"/>
      <point x="194" y="229"/>
      <point x="194" y="138" type="curve" smooth="yes"/>
      <point x="194" y="60"/>
      <point x="252" y="-4"/>
      <point x="342" y="-4" type="curve" smooth="yes"/>
      <point x="451" y="-4"/>
      <point x="507" y="62"/>
      <point x="533" y="186" type="curve" smooth="yes"/>
      <point x="600" y="500" type="line"/>
      <point x="713" y="500" type="line"/>
      <point x="725" y="554" type="line"/>
      <point x="369" y="554" type="line"/>
      <point x="312" y="286" type="line"/>
      <point x="366" y="286" type="line"/>
      <point x="411" y="500" type="line"/>
      <point x="511" y="500" type="line"/>
      <point x="442" y="175" type="line" smooth="yes"/>
      <point x="422" y="82"/>
      <point x="391" y="49"/>
      <point x="336" y="49" type="curve" smooth="yes"/>
      <point x="283" y="49"/>
      <point x="251" y="91"/>
      <point x="251" y="143" type="curve" smooth="yes"/>
      <point x="251" y="207"/>
      <point x="281" y="263"/>
      <point x="350" y="263" type="curve" smooth="yes"/>
      <point x="518" y="263" type="line" smooth="yes"/>
      <point x="591" y="263"/>
      <point x="636" y="221"/>
      <point x="636" y="124" type="curve" smooth="yes"/>
      <point x="636" y="-53"/>
      <point x="519" y="-200"/>
      <point x="325" y="-200" type="curve" smooth="yes"/>
      <point x="177" y="-200"/>
      <point x="64" y="-87"/>
      <point x="64" y="84" type="curve" smooth="yes"/>
      <point x="64" y="241"/>
      <point x="134" y="361"/>
      <point x="247" y="492" type="curve"/>
      <point x="211" y="522" type="line"/>
      <point x="92" y="388"/>
      <point x="13" y="243"/>
      <point x="13" y="78" type="curve" smooth="yes"/>
      <point x="13" y="-116"/>
      <point x="146" y="-254"/>
    </contour>
  </outline>
</glyph>
<glyph name="kuu-tamil" format="2">
  <advance width="970"/>
  <note>
g102
</note>
  <anchor x="422" y="0" name="bottom"/>
  <anchor x="422" y="0" name="nukta"/>
  <anchor x="392" y="554" name="top"/>
  <anchor x="556" y="554" name="vedic"/>
  <outline>
    <contour>
      <point x="521" y="-5" type="curve" smooth="yes"/>
      <point x="608" y="-5"/>
      <point x="677" y="67"/>
      <point x="677" y="165" type="curve" smooth="yes"/>
      <point x="677" y="259"/>
      <point x="613" y="317"/>
      <point x="507" y="317" type="curve" smooth="yes"/>
      <point x="383" y="317" type="line"/>
      <point x="422" y="500" type="line"/>
      <point x="535" y="500" type="line"/>
      <point x="547" y="554" type="line"/>
      <point x="191" y="554" type="line"/>
      <point x="134" y="286" type="line"/>
      <point x="188" y="286" type="line"/>
      <point x="233" y="500" type="line"/>
      <point x="333" y="500" type="line"/>
      <point x="295" y="317" type="line"/>
      <point x="178" y="317" type="line" smooth="yes"/>
      <point x="78" y="317"/>
      <point x="16" y="229"/>
      <point x="16" y="138" type="curve" smooth="yes"/>
      <point x="16" y="60"/>
      <point x="74" y="-4"/>
      <point x="164" y="-4" type="curve" smooth="yes"/>
      <point x="273" y="-4"/>
      <point x="329" y="62"/>
      <point x="355" y="186" type="curve" smooth="yes"/>
      <point x="371" y="263" type="line"/>
      <point x="490" y="263" type="line" smooth="yes"/>
      <point x="554" y="263"/>
      <point x="589" y="223"/>
      <point x="589" y="157" type="curve" smooth="yes"/>
      <point x="589" y="101"/>
      <point x="561" y="49"/>
      <point x="513" y="49" type="curve" smooth="yes"/>
      <point x="482" y="49"/>
      <point x="464" y="82"/>
      <point x="464" y="128" type="curve" smooth="yes"/>
      <point x="464" y="232"/>
      <point x="544" y="370"/>
      <point x="655" y="370" type="curve" smooth="yes"/>
      <point x="728" y="370"/>
      <point x="773" y="324"/>
      <point x="773" y="235" type="curve" smooth="yes"/>
      <point x="773" y="156"/>
      <point x="745" y="97"/>
      <point x="699" y="40" type="curve"/>
      <point x="717" y="0" type="line"/>
      <point x="895" y="0" type="line"/>
      <point x="906" y="54" type="line"/>
      <point x="747" y="54" type="line"/>
      <point x="745" y="29" type="line"/>
      <point x="816" y="85"/>
      <point x="860" y="157"/>
      <point x="860" y="247" type="curve" smooth="yes"/>
      <point x="860" y="367"/>
      <point x="773" y="423"/>
      <point x="675" y="423" type="curve" smooth="yes"/>
      <point x="520" y="423"/>
      <point x="412" y="269"/>
      <point x="412" y="123" type="curve" smooth="yes"/>
      <point x="412" y="52"/>
      <point x="445" y="-5"/>
    </contour>
    <contour>
      <point x="158" y="49" type="curve" smooth="yes"/>
      <point x="105" y="49"/>
      <point x="73" y="91"/>
      <point x="73" y="143" type="curve" smooth="yes"/>
      <point x="73" y="207"/>
      <point x="103" y="263"/>
      <point x="172" y="263" type="curve" smooth="yes"/>
      <point x="283" y="263" type="line"/>
      <point x="264" y="175" type="line" smooth="yes"/>
      <point x="244" y="82"/>
      <point x="213" y="49"/>
    </contour>
  </outline>
</glyph>
<glyph name="li-tamil" format="2">
  <advance width="958"/>
  <note>
g134
</note>
  <anchor x="407" y="0" name="bottom"/>
  <anchor x="407" y="0" name="nukta"/>
  <anchor x="819" y="815" name="top"/>
  <anchor x="528" y="554" name="vedic"/>
  <outline>
    <contour>
      <point x="163" y="-5" type="curve" smooth="yes"/>
      <point x="242" y="-5"/>
      <point x="321" y="66"/>
      <point x="321" y="174" type="curve" smooth="yes"/>
      <point x="321" y="257"/>
      <point x="272" y="303"/>
      <point x="209" y="303" type="curve" smooth="yes"/>
      <point x="134" y="303"/>
      <point x="77" y="237"/>
      <point x="48" y="144" type="curve"/>
      <point x="71" y="116" type="line"/>
      <point x="93" y="193"/>
      <point x="128" y="236"/>
      <point x="176" y="236" type="curve" smooth="yes"/>
      <point x="210" y="236"/>
      <point x="235" y="209"/>
      <point x="235" y="157" type="curve" smooth="yes"/>
      <point x="235" y="98"/>
      <point x="203" y="49"/>
      <point x="151" y="49" type="curve" smooth="yes"/>
      <point x="101" y="49"/>
      <point x="76" y="102"/>
      <point x="76" y="199" type="curve" smooth="yes"/>
      <point x="76" y="331"/>
      <point x="169" y="505"/>
      <point x="318" y="505" type="curve" smooth="yes"/>
      <point x="421" y="505"/>
      <point x="457" y="429"/>
      <point x="430" y="314" type="curve" smooth="yes"/>
      <point x="396" y="168" type="line" smooth="yes"/>
      <point x="376" y="82"/>
      <point x="407" y="0"/>
      <point x="503" y="0" type="curve" smooth="yes"/>
      <point x="635" y="0"/>
      <point x="737" y="130"/>
      <point x="737" y="272" type="curve" smooth="yes"/>
      <point x="737" y="395"/>
      <point x="695" y="503"/>
      <point x="695" y="597" type="curve" smooth="yes"/>
      <point x="695" y="663"/>
      <point x="729" y="728"/>
      <point x="811" y="728" type="curve" smooth="yes"/>
      <point x="883" y="728"/>
      <point x="920" y="681"/>
      <point x="895" y="565" type="curve" smooth="yes"/>
      <point x="775" y="0" type="line"/>
      <point x="829" y="0" type="line"/>
      <point x="955" y="589" type="line" smooth="yes"/>
      <point x="987" y="741"/>
      <point x="922" y="815"/>
      <point x="819" y="815" type="curve" smooth="yes"/>
      <point x="699" y="815"/>
      <point x="639" y="709"/>
      <point x="639" y="601" type="curve" smooth="yes"/>
      <point x="639" y="496"/>
      <point x="683" y="387"/>
      <point x="683" y="263" type="curve" smooth="yes"/>
      <point x="683" y="160"/>
      <point x="612" y="59"/>
      <point x="527" y="59" type="curve" smooth="yes"/>
      <point x="479" y="59"/>
      <point x="470" y="105"/>
      <point x="484" y="167" type="curve" smooth="yes"/>
      <point x="518" y="315" type="line" smooth="yes"/>
      <point x="552" y="464"/>
      <point x="477" y="559"/>
      <point x="332" y="559" type="curve" smooth="yes"/>
      <point x="148" y="559"/>
      <point x="25" y="361"/>
      <point x="25" y="198" type="curve" smooth="yes"/>
      <point x="25" y="67"/>
      <point x="73" y="-5"/>
    </contour>
  </outline>
</glyph>
<glyph name="lii-tamil" format="2">
  <advance width="785"/>
  <note>
g135
</note>
  <anchor x="344" y="0" name="bottom"/>
  <anchor x="344" y="0" name="nukta"/>
  <anchor x="771" y="882" name="top"/>
  <anchor x="503" y="554" name="vedic"/>
  <outline>
    <contour>
      <point x="163" y="-5" type="curve" smooth="yes"/>
      <point x="242" y="-5"/>
      <point x="321" y="66"/>
      <point x="321" y="174" type="curve" smooth="yes"/>
      <point x="321" y="257"/>
      <point x="272" y="303"/>
      <point x="209" y="303" type="curve" smooth="yes"/>
      <point x="134" y="303"/>
      <point x="77" y="237"/>
      <point x="48" y="144" type="curve"/>
      <point x="71" y="116" type="line"/>
      <point x="93" y="193"/>
      <point x="128" y="236"/>
      <point x="176" y="236" type="curve" smooth="yes"/>
      <point x="210" y="236"/>
      <point x="235" y="209"/>
      <point x="235" y="157" type="curve" smooth="yes"/>
      <point x="235" y="98"/>
      <point x="203" y="49"/>
      <point x="151" y="49" type="curve" smooth="yes"/>
      <point x="101" y="49"/>
      <point x="76" y="102"/>
      <point x="76" y="199" type="curve" smooth="yes"/>
      <point x="76" y="331"/>
      <point x="169" y="505"/>
      <point x="318" y="505" type="curve" smooth="yes"/>
      <point x="399" y="505"/>
      <point x="439" y="458"/>
      <point x="439" y="382" type="curve" smooth="yes"/>
      <point x="439" y="361"/>
      <point x="436" y="338"/>
      <point x="430" y="314" type="curve" smooth="yes"/>
      <point x="396" y="168" type="line" smooth="yes"/>
      <point x="392" y="152"/>
      <point x="390" y="135"/>
      <point x="390" y="120" type="curve" smooth="yes"/>
      <point x="390" y="54"/>
      <point x="425" y="0"/>
      <point x="503" y="0" type="curve" smooth="yes"/>
      <point x="635" y="0"/>
      <point x="733" y="124"/>
      <point x="733" y="266" type="curve" smooth="yes"/>
      <point x="733" y="427"/>
      <point x="634" y="506"/>
      <point x="634" y="660" type="curve" smooth="yes"/>
      <point x="634" y="736"/>
      <point x="668" y="828"/>
      <point x="765" y="828" type="curve" smooth="yes"/>
      <point x="815" y="828"/>
      <point x="833" y="789"/>
      <point x="833" y="746" type="curve" smooth="yes"/>
      <point x="833" y="696"/>
      <point x="813" y="656"/>
      <point x="770" y="656" type="curve" smooth="yes"/>
      <point x="741" y="656"/>
      <point x="729" y="679"/>
      <point x="729" y="711" type="curve" smooth="yes"/>
      <point x="729" y="751"/>
      <point x="747" y="806"/>
      <point x="776" y="851" type="curve"/>
      <point x="736" y="855" type="line"/>
      <point x="702" y="805"/>
      <point x="683" y="749"/>
      <point x="683" y="702" type="curve" smooth="yes"/>
      <point x="683" y="645"/>
      <point x="712" y="602"/>
      <point x="776" y="602" type="curve" smooth="yes"/>
      <point x="845" y="602"/>
      <point x="908" y="660"/>
      <point x="908" y="746" type="curve" smooth="yes"/>
      <point x="908" y="831"/>
      <point x="857" y="882"/>
      <point x="771" y="882" type="curve" smooth="yes"/>
      <point x="658" y="882"/>
      <point x="580" y="770"/>
      <point x="580" y="655" type="curve" smooth="yes"/>
      <point x="580" y="490"/>
      <point x="679" y="411"/>
      <point x="679" y="257" type="curve" smooth="yes"/>
      <point x="679" y="154"/>
      <point x="612" y="59"/>
      <point x="527" y="59" type="curve" smooth="yes"/>
      <point x="492" y="59"/>
      <point x="478" y="83"/>
      <point x="478" y="120" type="curve" smooth="yes"/>
      <point x="478" y="134"/>
      <point x="480" y="150"/>
      <point x="484" y="167" type="curve" smooth="yes"/>
      <point x="518" y="315" type="line" smooth="yes"/>
      <point x="523" y="339"/>
      <point x="526" y="361"/>
      <point x="526" y="382" type="curve" smooth="yes"/>
      <point x="526" y="492"/>
      <point x="454" y="559"/>
      <point x="332" y="559" type="curve" smooth="yes"/>
      <point x="148" y="559"/>
      <point x="25" y="361"/>
      <point x="25" y="198" type="curve" smooth="yes"/>
      <point x="25" y="67"/>
      <point x="73" y="-5"/>
    </contour>
  </outline>
</glyph>
